<?xml version="1.0" encoding="utf-8"?>
<!-- Generator: Adobe Illustrator 20.0.0, SVG Export Plug-In . SVG Version: 6.00 Build 0)  -->
<svg version="1.1" id="Layer_1" xmlns="http://www.w3.org/2000/svg" xmlns:xlink="http://www.w3.org/1999/xlink" x="0px" y="0px"
	 viewBox="0 0 280.2 111.9" style="enable-background:new 0 0 280.2 111.9;" xml:space="preserve">
<style type="text/css">
	.st0{opacity:0.5;enable-background:new    ;}
	.st1{fill:#333333;}
	.st2{opacity:0.5;fill:#333333;enable-background:new    ;}
	.st3{fill:#4D4D4F;}
	.st4{fill:#FFFFFF;}
	.st5{enable-background:new    ;}
</style>
<title>48HourChallenge</title>
<g class="st0">
	<path class="st1" d="M129.2,82.6h-4.4c-1.5,0-2.7-0.4-3.6-1.3c-0.9-0.9-1.3-2.1-1.3-3.6V65c0-1.5,0.4-2.8,1.3-3.6
		c0.9-0.9,2.1-1.3,3.6-1.3h4.4c1.5,0,2.7,0.4,3.6,1.3c0.9,0.9,1.3,2.1,1.3,3.6v1.7c0,0.3-0.1,0.4-0.4,0.4h-1c-0.3,0-0.4-0.1-0.4-0.4
		v-1.6c0-1.1-0.3-2-0.9-2.6c-0.6-0.6-1.4-0.9-2.5-0.9h-4.1c-1.1,0-1.9,0.3-2.5,0.9c-0.6,0.6-0.8,1.5-0.8,2.6v12.4
		c0,1.1,0.3,1.9,0.8,2.6c0.6,0.6,1.4,0.9,2.5,0.9h4.1c1.1,0,1.9-0.3,2.5-0.9c0.6-0.6,0.9-1.5,0.9-2.6v-1.6c0-0.3,0.1-0.4,0.4-0.4h1
		c0.3,0,0.4,0.1,0.4,0.4v1.7c0,1.5-0.4,2.8-1.3,3.6C131.9,82.1,130.7,82.6,129.2,82.6z"/>
	<path class="st1" d="M140.5,82.6h-1c-0.2,0-0.4-0.1-0.4-0.4V60.5c0-0.3,0.1-0.4,0.4-0.4h1c0.3,0,0.4,0.1,0.4,0.4V70
		c0,0.2,0.1,0.3,0.4,0.3h9.8c0.2,0,0.3-0.1,0.3-0.3v-9.6c0-0.3,0.1-0.4,0.4-0.4h1c0.3,0,0.4,0.1,0.4,0.4v21.7c0,0.3-0.1,0.4-0.4,0.4
		h-1c-0.2,0-0.4-0.1-0.4-0.4v-9.9c0-0.2-0.1-0.3-0.3-0.3h-9.8c-0.2,0-0.4,0.1-0.4,0.3v9.9C140.9,82.4,140.8,82.6,140.5,82.6z"/>
	<path class="st1" d="M158.5,82.6h-1.1c-0.3,0-0.3-0.1-0.2-0.4l7-21.7c0.1-0.3,0.2-0.4,0.5-0.4h1.6c0.2,0,0.4,0.1,0.5,0.4l7,21.7
		c0.1,0.3,0,0.4-0.2,0.4h-1.1c-0.2,0-0.4-0.1-0.5-0.4l-1.9-5.6h-9.2l-1.9,5.6C158.9,82.4,158.8,82.6,158.5,82.6z M165.4,62l-4,13
		h8.2l-4.1-13H165.4z"/>
	<path class="st1" d="M189.3,82.6h-11.1c-0.2,0-0.3-0.1-0.3-0.4V60.5c0-0.3,0.1-0.4,0.3-0.4h1c0.3,0,0.4,0.1,0.4,0.4v20.1
		c0,0.2,0.1,0.3,0.4,0.3h9.4c0.3,0,0.4,0.1,0.4,0.4v0.9C189.7,82.4,189.6,82.6,189.3,82.6z"/>
	<path class="st1" d="M205.1,82.6h-11.1c-0.2,0-0.3-0.1-0.3-0.4V60.5c0-0.3,0.1-0.4,0.3-0.4h1c0.3,0,0.4,0.1,0.4,0.4v20.1
		c0,0.2,0.1,0.3,0.4,0.3h9.4c0.3,0,0.4,0.1,0.4,0.4v0.9C205.5,82.4,205.3,82.6,205.1,82.6z"/>
	<path class="st1" d="M220.5,82.6h-10.8c-0.2,0-0.4-0.1-0.4-0.4V60.5c0-0.3,0.1-0.4,0.4-0.4h10.8c0.3,0,0.4,0.1,0.4,0.4v0.8
		c0,0.3-0.1,0.4-0.4,0.4h-9.1c-0.2,0-0.3,0.1-0.3,0.3V70c0,0.2,0.1,0.3,0.3,0.3h8.1c0.3,0,0.4,0.1,0.4,0.4v0.8
		c0,0.3-0.1,0.4-0.4,0.4h-8.1c-0.2,0-0.3,0.1-0.3,0.3v8.5c0,0.2,0.1,0.3,0.3,0.3h9.1c0.3,0,0.4,0.1,0.4,0.4v0.8
		C221,82.4,220.8,82.6,220.5,82.6z"/>
	<path class="st1" d="M227.6,82.6h-1c-0.2,0-0.3-0.1-0.3-0.4V60.5c0-0.3,0.1-0.4,0.3-0.4h0.9c0.2,0,0.3,0.1,0.4,0.2l10.7,18.5h0.1
		V60.5c0-0.3,0.1-0.4,0.4-0.4h1c0.3,0,0.4,0.1,0.4,0.4v21.7c0,0.3-0.1,0.4-0.4,0.4h-0.8c-0.2,0-0.4-0.1-0.6-0.4l-10.7-18.3H228v18.3
		C228,82.4,227.8,82.6,227.6,82.6z"/>
	<path class="st1" d="M254.9,82.6H251c-1.5,0-2.7-0.4-3.6-1.3c-0.9-0.9-1.3-2.1-1.3-3.6V65c0-1.5,0.4-2.8,1.3-3.6
		c0.9-0.9,2.1-1.3,3.6-1.3h3.8c1.5,0,2.7,0.4,3.6,1.3s1.3,2.1,1.3,3.6v1.6c0,0.3-0.1,0.4-0.4,0.4h-1c-0.3,0-0.4-0.1-0.4-0.4v-1.5
		c0-1.1-0.3-2-0.8-2.6c-0.6-0.6-1.4-0.9-2.5-0.9h-3.5c-1.1,0-1.9,0.3-2.5,0.9c-0.6,0.6-0.8,1.5-0.8,2.6v12.4c0,1.1,0.3,1.9,0.8,2.6
		c0.6,0.6,1.4,0.9,2.5,0.9h3.5c1.1,0,1.9-0.3,2.5-0.9c0.6-0.6,0.8-1.5,0.8-2.6v-4.6c0-0.2-0.1-0.3-0.3-0.3h-4
		c-0.3,0-0.4-0.1-0.4-0.4v-0.8c0-0.3,0.1-0.4,0.4-0.4h5.5c0.4,0,0.7,0.2,0.7,0.7v5.9c0,1.5-0.4,2.8-1.3,3.6S256.4,82.6,254.9,82.6z"
		/>
	<path class="st1" d="M276.5,82.6h-10.8c-0.2,0-0.4-0.1-0.4-0.4V60.5c0-0.3,0.1-0.4,0.4-0.4h10.8c0.3,0,0.4,0.1,0.4,0.4v0.8
		c0,0.3-0.1,0.4-0.4,0.4h-9.1c-0.2,0-0.3,0.1-0.3,0.3V70c0,0.2,0.1,0.3,0.3,0.3h8.1c0.3,0,0.4,0.1,0.4,0.4v0.8
		c0,0.3-0.1,0.4-0.4,0.4h-8.1c-0.2,0-0.3,0.1-0.3,0.3v8.5c0,0.2,0.1,0.3,0.3,0.3h9.1c0.3,0,0.4,0.1,0.4,0.4v0.8
		C276.9,82.4,276.8,82.6,276.5,82.6z"/>
</g>
<g class="st0">
	<path class="st1" d="M46.6,73.6H45c-0.4,0-0.7-0.2-0.7-0.7v-7.1H27c-0.6,0-0.9-0.3-0.9-0.8v-1.1c0-0.4,0.1-0.8,0.4-1.4l15.6-26.3
		c0.4-0.6,0.8-0.9,1.4-0.9h2.8c0.6,0,0.8,0.3,0.8,0.9v26.9h4.5c0.4,0,0.7,0.2,0.7,0.6v1.4c0,0.4-0.2,0.7-0.7,0.7h-4.5v7.1
		C47.2,73.4,47,73.6,46.6,73.6z M44.3,63.1V37.7l-15,25.4H44.3z"/>
	<path class="st1" d="M72.9,73.6h-6.2c-2.6,0-4.6-0.7-6.1-2.2c-1.5-1.4-2.3-3.5-2.3-6v-3.9c0-3.6,1.4-6,4.3-7.1
		c-2.9-1.2-4.3-3.5-4.3-7.1v-3.7c0-2.6,0.8-4.6,2.3-6c1.5-1.4,3.6-2.2,6.1-2.2h6.2c2.6,0,4.6,0.7,6.1,2.2c1.5,1.4,2.2,3.5,2.2,6v3.7
		c0,3.7-1.4,6-4.3,7.1c2.9,1.1,4.3,3.5,4.3,7.1v3.9c0,2.6-0.7,4.6-2.2,6C77.5,72.9,75.5,73.6,72.9,73.6z M66.9,53.1h5.8
		c1.8,0,3.2-0.5,4.2-1.5c1-1,1.5-2.4,1.5-4.3v-3.6c0-3.8-1.9-5.7-5.7-5.7h-5.8c-3.7,0-5.6,1.9-5.6,5.7v3.6
		C61.3,51.1,63.2,53.1,66.9,53.1z M66.9,70.9h5.8c3.8,0,5.7-1.9,5.7-5.7v-3.9c0-3.8-1.9-5.7-5.7-5.7h-5.8c-3.7,0-5.6,1.9-5.6,5.7
		v3.9C61.3,69,63.2,70.9,66.9,70.9z"/>
</g>
<path class="st2" d="M97.8,59.3c0,21.3-17.2,38.5-38.5,38.5S20.8,80.6,20.8,59.3c0-15.5,9.3-29.5,23.6-35.5l0,0c4.7-2,9.8-3,14.9-3
	l0,0C80.6,20.8,97.8,38,97.8,59.3L97.8,59.3 M112,59.3c0-29-23.4-52.6-52.4-52.6c0,0,0,0-0.1,0h-0.1c-6.9,0-13.7,1.4-20.1,4l0,0
	C12.4,21.8-0.3,52.6,10.8,79.4s41.9,39.6,68.7,28.5C99.2,99.8,112,80.6,112,59.3"/>
<path class="st3" d="M52.6,0L52.6,0c-6.9,0-13.7,1.4-20.1,4l5.2,13.1l0,0c4.7-2,9.8-3,14.9-3V0z"/>
<path class="st4" d="M105.3,52.6c0-29-23.4-52.6-52.4-52.6h-0.1h-0.1v14.1c21.3,0,38.5,17.2,38.5,38.5C91.2,73.8,74,91,52.7,91
	S14.2,73.8,14.2,52.6c0-15.5,9.3-29.5,23.6-35.5L32.6,4C5.7,15.1-7,45.8,4.1,72.7s41.9,39.6,68.7,28.5
	C92.4,93.1,105.3,73.9,105.3,52.6"/>
<g class="st5">
	<path class="st4" d="M125.7,80.3h-3.8c-1.8,0-3.3-0.5-4.3-1.5s-1.5-2.4-1.5-4.2V63.5c0-1.8,0.5-3.3,1.5-4.2c1-1,2.4-1.5,4.3-1.5
		h3.8c1.8,0,3.2,0.5,4.3,1.5s1.5,2.4,1.5,4.2v1.6c0,0.5-0.3,0.8-0.8,0.8h-2.9c-0.5,0-0.7-0.3-0.7-0.8v-1.4c0-0.7-0.2-1.3-0.5-1.6
		s-0.8-0.5-1.6-0.5h-2.4c-0.7,0-1.2,0.2-1.6,0.5c-0.3,0.3-0.5,0.8-0.5,1.6v10.7c0,0.7,0.2,1.3,0.5,1.6c0.3,0.3,0.8,0.5,1.6,0.5h2.4
		c0.7,0,1.3-0.2,1.6-0.5c0.3-0.3,0.5-0.8,0.5-1.6V73c0-0.5,0.2-0.8,0.7-0.8h2.9c0.5,0,0.8,0.3,0.8,0.8v1.6c0,1.8-0.5,3.2-1.5,4.2
		C129,79.8,127.6,80.3,125.7,80.3z"/>
	<path class="st4" d="M139.1,80.3h-3c-0.5,0-0.7-0.2-0.7-0.7v-21c0-0.5,0.2-0.7,0.7-0.7h3c0.5,0,0.7,0.2,0.7,0.7v8.2
		c0,0.3,0.1,0.4,0.4,0.4h5.9c0.3,0,0.4-0.1,0.4-0.4v-8.2c0-0.5,0.2-0.7,0.7-0.7h3c0.5,0,0.7,0.2,0.7,0.7v21c0,0.5-0.2,0.7-0.7,0.7
		h-3c-0.5,0-0.7-0.2-0.7-0.7v-8.2c0-0.3-0.1-0.4-0.4-0.4h-5.9c-0.3,0-0.4,0.1-0.4,0.4v8.2C139.8,80.1,139.5,80.3,139.1,80.3z"/>
	<path class="st4" d="M157.9,80.3h-3.4c-0.4,0-0.6-0.2-0.4-0.7l5.5-21c0.2-0.5,0.5-0.7,1.1-0.7h4.7c0.6,0,0.9,0.2,1,0.7l5.5,21
		c0.1,0.5,0,0.7-0.4,0.7h-3.4c-0.3,0-0.4-0.1-0.5-0.2s-0.2-0.3-0.2-0.6l-1-3.9h-6.8l-1,3.9c0,0.3-0.1,0.5-0.2,0.6
		C158.3,80.2,158.1,80.3,157.9,80.3z M162.9,62l-2.5,10.1h5.2L163.1,62H162.9z"/>
	<path class="st4" d="M187.3,80.3h-11.5c-0.5,0-0.7-0.2-0.7-0.7v-21c0-0.5,0.2-0.7,0.7-0.7h3c0.5,0,0.7,0.2,0.7,0.7V76
		c0,0.3,0.1,0.4,0.4,0.4h7.4c0.5,0,0.7,0.3,0.7,0.8v2.4C188,80.1,187.7,80.3,187.3,80.3z"/>
	<path class="st4" d="M203,80.3h-11.5c-0.5,0-0.7-0.2-0.7-0.7v-21c0-0.5,0.2-0.7,0.7-0.7h3c0.5,0,0.7,0.2,0.7,0.7V76
		c0,0.3,0.1,0.4,0.4,0.4h7.4c0.5,0,0.7,0.3,0.7,0.8v2.4C203.7,80.1,203.4,80.3,203,80.3z"/>
	<path class="st4" d="M218.6,80.3h-11.4c-0.5,0-0.7-0.2-0.7-0.7v-21c0-0.5,0.2-0.7,0.7-0.7h11.4c0.5,0,0.7,0.2,0.7,0.7V61
		c0,0.5-0.2,0.7-0.7,0.7h-7.3c-0.3,0-0.4,0.1-0.4,0.4v4.6c0,0.3,0.1,0.4,0.4,0.4h6c0.5,0,0.7,0.2,0.7,0.7v2.4c0,0.5-0.2,0.7-0.7,0.7
		h-6c-0.3,0-0.4,0.1-0.4,0.4v4.9c0,0.3,0.1,0.4,0.4,0.4h7.3c0.5,0,0.7,0.2,0.7,0.7v2.4C219.3,80.1,219.1,80.3,218.6,80.3z"/>
	<path class="st4" d="M226.9,80.3H224c-0.5,0-0.7-0.2-0.7-0.7v-21c0-0.5,0.2-0.7,0.7-0.7h2.6c0.5,0,0.8,0.2,1,0.5l7.1,13.3h0.1v-13
		c0-0.5,0.2-0.7,0.7-0.7h2.9c0.5,0,0.7,0.2,0.7,0.7v21c0,0.5-0.2,0.7-0.7,0.7h-2.6c-0.5,0-0.9-0.2-1.1-0.7l-7-13h-0.1v13
		C227.6,80.1,227.3,80.3,226.9,80.3z"/>
	<path class="st4" d="M252.8,80.3h-3.7c-1.8,0-3.3-0.5-4.3-1.5s-1.5-2.4-1.5-4.2V63.5c0-1.8,0.5-3.3,1.5-4.2c1-1,2.4-1.5,4.3-1.5
		h3.7c1.8,0,3.2,0.5,4.2,1.5s1.5,2.4,1.5,4.2v1c0,0.5-0.2,0.8-0.7,0.8h-3c-0.5,0-0.7-0.3-0.7-0.8v-0.8c0-0.7-0.2-1.3-0.5-1.6
		s-0.8-0.5-1.6-0.5h-2.3c-0.7,0-1.2,0.2-1.6,0.5c-0.3,0.3-0.5,0.8-0.5,1.6v10.7c0,0.7,0.2,1.3,0.5,1.6c0.3,0.3,0.8,0.5,1.6,0.5h2.3
		c0.7,0,1.3-0.2,1.6-0.5s0.5-0.8,0.5-1.6v-2.2c0-0.3-0.1-0.4-0.4-0.4h-2.1c-0.5,0-0.7-0.2-0.7-0.7v-2.4c0-0.5,0.2-0.7,0.7-0.7h6.1
		c0.5,0,0.8,0.3,0.8,0.8v5.8c0,1.8-0.5,3.2-1.5,4.2C256.1,79.8,254.7,80.3,252.8,80.3z"/>
	<path class="st4" d="M275,80.3h-11.4c-0.5,0-0.7-0.2-0.7-0.7v-21c0-0.5,0.2-0.7,0.7-0.7H275c0.5,0,0.7,0.2,0.7,0.7V61
		c0,0.5-0.2,0.7-0.7,0.7h-7.3c-0.3,0-0.4,0.1-0.4,0.4v4.6c0,0.3,0.1,0.4,0.4,0.4h6c0.5,0,0.7,0.2,0.7,0.7v2.4c0,0.5-0.2,0.7-0.7,0.7
		h-6c-0.3,0-0.4,0.1-0.4,0.4v4.9c0,0.3,0.1,0.4,0.4,0.4h7.3c0.5,0,0.7,0.2,0.7,0.7v2.4C275.7,80.1,275.4,80.3,275,80.3z"/>
</g>
<g class="st5">
	<path class="st4" d="M124.7,54h-1.8c-0.3,0-0.5-0.2-0.5-0.5v-2.2h-5.6c-0.3,0-0.5-0.1-0.6-0.2c-0.2-0.2-0.2-0.4-0.2-0.6v-0.9
		c0-0.5,0.1-0.8,0.2-1.1l4.5-8.4c0.2-0.3,0.3-0.5,0.4-0.6s0.3-0.1,0.6-0.1h2.6c0.3,0,0.5,0.1,0.6,0.2s0.2,0.4,0.2,0.6v8.6h1.6
		c0.3,0,0.5,0.2,0.5,0.5v1.5c0,0.3-0.2,0.5-0.5,0.5h-1.6v2.2c0,0.2,0,0.3-0.1,0.4C125,53.9,124.9,54,124.7,54z M122.4,48.8v-7
		l-3.7,7H122.4z"/>
	<path class="st4" d="M134.8,54h-2.4c-1.2,0-2.1-0.3-2.8-0.9c-0.6-0.6-1-1.5-1-2.6v-1c0-1.4,0.5-2.3,1.5-2.7c-1-0.4-1.5-1.3-1.5-2.8
		v-1c0-1.2,0.3-2,1-2.6c0.6-0.6,1.6-0.9,2.8-0.9h2.4c1.2,0,2.1,0.3,2.8,0.9c0.6,0.6,1,1.5,1,2.6v1c0,0.7-0.1,1.3-0.4,1.8
		c-0.3,0.5-0.6,0.8-1.1,1c1,0.4,1.5,1.3,1.5,2.8v1c0,1.2-0.3,2-1,2.6C137,53.7,136,54,134.8,54z M132.9,45.5h1.5
		c0.5,0,0.8-0.1,1-0.3s0.3-0.6,0.3-1.1v-1c0-0.5-0.1-0.8-0.3-1s-0.5-0.3-1-0.3h-1.5c-0.5,0-0.8,0.1-1,0.3s-0.3,0.5-0.3,1v1
		c0,0.5,0.1,0.8,0.3,1.1C132.1,45.4,132.4,45.5,132.9,45.5z M132.9,51.5h1.5c0.5,0,0.8-0.1,1-0.3s0.3-0.5,0.3-1v-1
		c0-0.5-0.1-0.8-0.3-1.1c-0.2-0.2-0.5-0.3-1-0.3h-1.5c-0.5,0-0.8,0.1-1,0.3s-0.3,0.6-0.3,1.1v1c0,0.5,0.1,0.8,0.3,1
		C132.1,51.4,132.4,51.5,132.9,51.5z"/>
	<path class="st4" d="M145.5,47.9h-4.3c-0.3,0-0.5-0.2-0.5-0.5v-1.3c0-0.3,0.2-0.5,0.5-0.5h4.3c0.3,0,0.5,0.2,0.5,0.5v1.3
		C146,47.7,145.8,47.9,145.5,47.9z"/>
	<path class="st4" d="M150.7,54h-1.9c-0.3,0-0.5-0.2-0.5-0.5V39.9c0-0.3,0.2-0.5,0.5-0.5h1.9c0.3,0,0.5,0.2,0.5,0.5v5.3
		c0,0.2,0.1,0.2,0.3,0.2h3.8c0.2,0,0.2-0.1,0.2-0.2v-5.3c0-0.3,0.2-0.5,0.5-0.5h1.9c0.3,0,0.5,0.2,0.5,0.5v13.6
		c0,0.3-0.2,0.5-0.5,0.5H156c-0.3,0-0.5-0.2-0.5-0.5v-5.3c0-0.2-0.1-0.2-0.2-0.2h-3.8c-0.2,0-0.3,0.1-0.3,0.2v5.3
		C151.2,53.8,151.1,54,150.7,54z"/>
	<path class="st4" d="M167.5,54H165c-1.2,0-2.1-0.3-2.8-1c-0.7-0.6-1-1.5-1-2.7v-7.2c0-1.2,0.3-2.1,1-2.7c0.6-0.6,1.6-1,2.8-1h2.5
		c1.2,0,2.1,0.3,2.8,1c0.6,0.6,1,1.5,1,2.7v7.2c0,1.2-0.3,2.1-1,2.7C169.6,53.7,168.7,54,167.5,54z M165.4,51.5h1.6
		c0.5,0,0.8-0.1,1-0.3s0.3-0.5,0.3-1v-6.9c0-0.5-0.1-0.8-0.3-1s-0.5-0.3-1-0.3h-1.6c-0.5,0-0.8,0.1-1,0.3s-0.3,0.5-0.3,1v6.9
		c0,0.5,0.1,0.8,0.3,1C164.6,51.4,164.9,51.5,165.4,51.5z"/>
	<path class="st4" d="M181.4,39.4h1.9c0.3,0,0.5,0.2,0.5,0.5v10.4c0,1.2-0.3,2.1-1,2.7c-0.7,0.6-1.6,1-2.8,1h-2.5
		c-1.2,0-2.1-0.3-2.8-1c-0.7-0.6-1-1.5-1-2.7V39.9c0-0.3,0.2-0.5,0.5-0.5h1.9c0.3,0,0.5,0.2,0.5,0.5v10.3c0,0.5,0.1,0.8,0.3,1
		s0.5,0.3,1,0.3h1.6c0.5,0,0.8-0.1,1-0.3s0.3-0.5,0.3-1V39.9C180.9,39.5,181.1,39.4,181.4,39.4z"/>
	<path class="st4" d="M189,54h-1.9c-0.3,0-0.5-0.2-0.5-0.5V39.9c0-0.3,0.2-0.5,0.5-0.5h5.4c1.2,0,2.1,0.3,2.8,1s1,1.6,1,2.7v1.8
		c0,1.7-0.7,2.8-2,3.4v0.1l2.4,5.1c0.1,0.4,0,0.5-0.4,0.5h-1.8c-0.3,0-0.5,0-0.6-0.1s-0.2-0.2-0.3-0.4l-2.3-4.9h-1.5
		c-0.2,0-0.3,0.1-0.3,0.2v4.6C189.5,53.8,189.3,54,189,54z M189.8,46.3h2.2c0.5,0,0.8-0.1,1.1-0.3c0.2-0.2,0.3-0.5,0.3-1v-1.8
		c0-0.5-0.1-0.8-0.3-1s-0.6-0.3-1.1-0.3h-2.2c-0.2,0-0.2,0.1-0.2,0.2V46C189.5,46.2,189.6,46.3,189.8,46.3z"/>
</g>
<g class="st5">
	<path class="st4" d="M45.7,71.3H41c-0.8,0-1.2-0.4-1.2-1.2v-5.7H25c-0.7,0-1.2-0.2-1.6-0.6s-0.6-0.9-0.6-1.6v-2.3
		c0-1.2,0.2-2.2,0.6-2.9l11.8-22c0.4-0.7,0.8-1.2,1.1-1.5s0.8-0.4,1.5-0.4h6.7c0.7,0,1.2,0.2,1.6,0.6s0.6,0.9,0.6,1.6v22.6H51
		c0.8,0,1.2,0.4,1.2,1.2v4c0,0.9-0.4,1.4-1.2,1.4h-4.3V70c0,0.5-0.1,0.8-0.3,1C46.4,71.2,46.1,71.3,45.7,71.3z M39.8,57.8V39.4
		l-9.6,18.4C30.2,57.8,39.8,57.8,39.8,57.8z"/>
	<path class="st4" d="M72.4,71.3H66c-3.2,0-5.6-0.8-7.3-2.4S56.2,65,56.2,62v-2.7c0-3.6,1.3-6,3.9-7.2c-2.6-1.1-3.9-3.5-3.9-7.3
		v-2.6c0-3.1,0.8-5.4,2.5-6.9S62.8,33,66,33h6.3c3.1,0,5.5,0.8,7.2,2.3s2.5,3.8,2.5,6.9v2.6c0,1.9-0.4,3.5-1.1,4.8s-1.6,2.1-2.8,2.5
		c2.6,1,3.9,3.5,3.9,7.3V62c0,3.1-0.8,5.4-2.5,6.9C77.9,70.5,75.5,71.3,72.4,71.3z M67.2,49.1h4c1.3,0,2.2-0.3,2.7-0.9
		c0.5-0.6,0.8-1.5,0.8-2.8v-2.5c0-1.2-0.3-2.1-0.8-2.6s-1.4-0.8-2.7-0.8h-4c-1.3,0-2.2,0.3-2.7,0.8s-0.8,1.4-0.8,2.6v2.5
		c0,1.3,0.3,2.2,0.8,2.8C65,48.8,65.9,49.1,67.2,49.1z M67.2,64.8h4c1.3,0,2.2-0.3,2.7-0.8s0.8-1.4,0.8-2.6v-2.7
		c0-1.3-0.3-2.2-0.8-2.8S72.5,55,71.2,55h-4c-1.3,0-2.2,0.3-2.7,0.9c-0.5,0.6-0.8,1.5-0.8,2.8v2.7c0,1.2,0.3,2.1,0.8,2.6
		C65,64.6,65.9,64.8,67.2,64.8z"/>
</g>
</svg>
