<svg id="Layer_1" data-name="Layer 1" xmlns="http://www.w3.org/2000/svg" viewBox="0 0 280.25 111.91"><defs><style>.cls-1,.cls-2,.cls-3{opacity:0.5;fill:#333;}.cls-1,.cls-7{font-size:35.01px;}.cls-1,.cls-2,.cls-6,.cls-7,.cls-8{font-family:Rajdhani-Bold, Rajdhani;font-weight:700;}.cls-2,.cls-6{font-size:59.52px;}.cls-3{isolation:isolate;}.cls-4{fill:#4d4d4f;}.cls-5,.cls-6,.cls-7,.cls-8{fill:#fff;}.cls-8{font-size:22.68px;}</style></defs><title>48HourChallenge</title><text class="cls-1" transform="translate(117.23 82.56)">CHALLENGE</text><text class="cls-2" transform="translate(23.41 73.59)">48</text><path class="cls-3" d="M108.7,81.36A38.49,38.49,0,1,1,55.34,45.85h0a38.32,38.32,0,0,1,14.86-3h0A38.5,38.5,0,0,1,108.7,81.36m14.15,0a52.52,52.52,0,0,0-52.51-52.6H70.2a52.38,52.38,0,0,0-20.06,4v0a52.61,52.61,0,1,0,72.71,48.64" transform="translate(-10.85 -22.04)"/><path class="cls-4" d="M63.49,22h0a52.35,52.35,0,0,0-20.06,4l5.19,13.1h0a38.36,38.36,0,0,1,14.87-3Z" transform="translate(-10.85 -22.04)"/><path class="cls-5" d="M116.13,74.64A52.53,52.53,0,0,0,63.62,22h-.13v14.1a38.49,38.49,0,1,1-14.86,3L43.42,26a52.61,52.61,0,1,0,72.71,48.64" transform="translate(-10.85 -22.04)"/><text class="cls-6" transform="translate(20.87 71.3)">48</text><text class="cls-7" transform="translate(114.23 80.3)">CHALLENGE</text><text class="cls-8" transform="translate(115.23 53.97)">48-HOUR</text></svg>