<?xml version="1.0" encoding="iso-8859-1"?>
<!-- Generator: Adobe Illustrator 16.0.3, SVG Export Plug-In . SVG Version: 6.00 Build 0)  -->
<!DOCTYPE svg PUBLIC "-//W3C//DTD SVG 1.1//EN" "http://www.w3.org/Graphics/SVG/1.1/DTD/svg11.dtd">
<svg version="1.1" id="Layer_1" xmlns="http://www.w3.org/2000/svg" xmlns:xlink="http://www.w3.org/1999/xlink" x="0px" y="0px"
	 width="300px" height="300px" viewBox="0 0 300 300" style="enable-background:new 0 0 300 300;" xml:space="preserve">
<path style="opacity:0.5;fill:#333333;" d="M260.865,159.341c0,56.483-45.798,102.262-102.28,102.262
	c-56.468,0-102.26-45.778-102.26-102.262c0-42.481,25.906-78.896,62.766-94.35c0,0,0,0,0,0.006
	c12.151-5.1,25.497-7.923,39.495-7.923v-0.013C215.067,57.062,260.865,102.86,260.865,159.341 M298.459,159.328
	c0-77.178-62.333-139.756-139.521-139.756c-0.116,0-0.229,0.013-0.354,0.013l0,0c-18.875,0-36.86,3.801-53.289,10.592l-0.034-0.081
	c-50.767,20.935-86.539,70.909-86.539,129.232c0,77.194,62.577,139.758,139.758,139.758
	C235.659,299.086,298.459,236.522,298.459,159.328"/>
<path style="opacity:0.5;fill:#C7C8CA;" d="M186.479,181.834h2.184v-2.45h-4.183l-0.216,0.229L186.479,181.834z M198.041,181.834
	v-2.98l-2.217-2.221l-0.223,0.221v2.53h-4.18v13.044h-2.76l-0.217,0.221l2.216,2.217h3.198v-13.031H198.041z M172.598,185.571
	l-2.444-4.534v11.391h-2.556l-0.223,0.221l2.222,2.217h3.001V185.571z M181.943,194.865v-16.012l-2.229-2.221l-0.223,0.221v15.574
	h-3.001l-0.216,0.221l2.222,2.217H181.943z M176.589,187.794h0.263v-1.882l-3.809-7.059l-2.216-2.221l-0.235,0.221L176.589,187.794z
	 M164.55,191.852l-2.222-2.229l-0.229,0.222v2.584h-10.028l-0.222,0.221l2.227,2.217h10.474V191.852z M160.721,183.174v2.581h-5.892
	v4.089h2.452v-1.65h5.893v-3.023l-2.229-2.221L160.721,183.174z M164.55,181.881v-3.027l-2.222-2.221l-0.229,0.221v2.583h-7.271
	v3.737h2.452v-1.293H164.55z M149.004,189.214l-2.23-2.214l-0.222,0.216v2.353c0,1.876-1.063,2.944-2.936,2.944h-5.066
	c-0.827,0-1.516-0.021-2.064-0.467l1.795,1.802c0.708,0.717,1.375,1.108,2.491,1.108h5.072c1.861,0,3.161-1.29,3.161-3.16V189.214z
	 M143.801,181.796v-1.691c0-0.492-0.275-0.759-0.761-0.759h-3.913c-0.491,0-0.755,0.267-0.755,0.759v9.071
	c0,0.492,0.264,0.755,0.755,0.755h1.692v-7.389c0-0.483,0.267-0.746,0.752-0.746H143.801z M146.088,177.633
	c0.267,0.335,0.464,1.005,0.464,2.064v2.361h-2.751l-0.225,0.223l2.223,2.228h3.205v-2.588c0-0.795-0.185-1.554-0.67-2.039
	L146.088,177.633z M124.519,188.938h1.598l-1.075-2.449h-2.976v5.938h-2.76l-0.216,0.221l2.23,2.217h3.198V188.938z
	 M122.066,179.437v4.509h2.452v-2.064h2.908v-1.691c0-0.492-0.267-0.753-0.759-0.753H122.066z M127.448,192.648l2.221,2.217h3.447
	l-2.667-6.062c1.332-0.388,2.184-1.516,2.184-3.029v-3.756c0-0.812-0.178-1.561-0.67-2.05l-2.241-2.251
	c0.176,0.225,0.464,0.933,0.464,2.073v3.756c0,1.514-0.89,2.45-2.228,3.026l2.557,5.854h-2.845L127.448,192.648z M116.261,191.852
	l-2.229-2.229l-0.223,0.222v2.584h-10.028l-0.216,0.221l2.221,2.217h10.475V191.852z M112.433,183.174v2.581h-5.886v4.089h2.437
	v-1.65h5.899v-3.023l-2.228-2.221L112.433,183.174z M116.261,181.881v-3.027l-2.229-2.221l-0.223,0.221v2.583h-7.262v3.737h2.437
	v-1.293H116.261z M90.397,179.437v4.759h2.438v-2.314h2.944v-1.691c0-0.492-0.27-0.753-0.761-0.753H90.397z M98.066,177.718
	c0.204,0.271,0.472,0.933,0.472,2.073v4.044c0,1.873-1.068,2.942-2.938,2.942h-5.204v5.65h-2.76l-0.223,0.221l2.224,2.217h3.196
	v-5.639h4.996c1.861,0,3.146-1.297,3.146-3.164v-4.044c0-0.812-0.172-1.561-0.662-2.05L98.066,177.718z"/>
<path style="opacity:0.5;fill:#333333;" d="M177.54,156.02v-10.664h-32.029l-0.964,0.962l9.699,9.701H177.54z M177.54,134.855
	v-25.901l-20.572,25.901H177.54z M209.561,143.601l-9.711-9.701v-33.78l-9.687-9.706l-0.971,0.977v43.464h9.805v10.501h-9.805
	v13.972H177.54l-0.971,0.958l9.713,9.699h13.567V156.02h9.711V143.601z M99.692,140.296h0.197l-0.97,0.969v3.298
	c0,2.53,1.35,3.887,3.878,3.887h5.244l-7.575-7.578c2.331,1.749,5.241,2.713,8.349,2.713h8.258c1.153,0,2.228-0.185,3.296-0.485
	l0.964-0.288v-17.368l-2.91,2.433c-2.228,1.84-5.82,5.142-11.063,5.142h-8.245c-3.881,0-7.375-0.674-9.897-3.205L99.692,140.296z
	 M102.026,102.256c-2.518,0-3.881,1.365-3.881,3.881v12.419c0,2.524,1.363,3.887,3.881,3.887h6.789v-5.636
	c0-2.528,1.35-3.894,3.887-3.894h8.631v-6.776c0-2.516-1.35-3.881-3.875-3.881H102.026z M130.371,94.197
	c1.266,1.361,3.008,4.854,3.008,9.803v42.706c0,7.76-5.244,13.01-13.01,13.01H99.896c-3.881,0-7.375-0.583-9.902-3.106l8.925,8.925
	c3.107,3.101,6.016,4.846,10.67,4.846h20.494c7.753,0,13.966-6.202,13.966-13.969v-42.709c0-3.495-1.068-6.889-3.302-9.119
	L130.371,94.197z"/>
<path style="fill:#4D4D4F;" d="M140.753,1.745L140.753,1.745c-18.89,0-36.866,3.794-53.304,10.591l13.803,34.815c0,0,0,0-0.013,0
	c12.162-5.1,25.507-7.93,39.514-7.93V1.745z"/>
<path style="fill:#FFFFFF;" d="M195.824,179.608v-2.976h-11.573v2.976h4.182v13.04h3.205v-13.04H195.824z M176.714,176.633v10.918
	l-5.899-10.918h-3.434v16.016h2.996v-10.925l5.892,10.925h3.446v-16.016H176.714z M151.85,176.633v16.016h10.473v-3.026h-7.274
	v-3.645h5.896v-3.028h-5.896v-3.29h7.274v-3.026H151.85z M143.576,182.281h3.198v-2.584c0-1.86-1.285-3.158-3.158-3.158h-5.072
	c-1.861,0-3.154,1.298-3.154,3.158v9.887c0,1.86,1.293,3.145,3.154,3.145h5.072c1.874,0,3.158-1.284,3.158-3.145v-2.591h-3.198
	v1.958c0,0.492-0.268,0.764-0.759,0.764h-3.467c-0.492,0-0.755-0.271-0.755-0.764v-8.63c0-0.492,0.263-0.755,0.755-0.755h3.467
	c0.492,0,0.759,0.263,0.759,0.755V182.281z M127.205,182.962c0,0.5-0.261,0.761-0.752,0.761h-4.169v-4.063h4.169
	c0.492,0,0.752,0.263,0.752,0.746V182.962z M130.895,192.648l-2.667-6.081c1.338-0.373,2.175-1.507,2.175-3.017v-3.76
	c0-1.874-1.285-3.158-3.152-3.158h-8.173v16.016h3.205v-5.943h2.59l2.582,5.943H130.895z M103.558,176.633v16.016h10.473v-3.026
	h-7.274v-3.645h5.898v-3.028h-5.898v-3.29h7.274v-3.026H103.558z M90.613,183.971v-4.312h4.189c0.485,0,0.748,0.263,0.748,0.746
	v2.807c0,0.498-0.263,0.759-0.748,0.759H90.613z M87.409,176.633v16.016h3.204v-5.655h4.988c1.861,0,3.154-1.291,3.154-3.153v-4.049
	c0-1.874-1.293-3.158-3.154-3.158H87.409z"/>
<path style="fill:#FFFFFF;" d="M158.716,133.899l17.854-22.809v22.809H158.716z M199.953,146.313v-12.414h-9.803V90.414h-11.839
	l-36.675,45.421l2.904,10.479h32.029v13.973h13.581v-13.973H199.953z M120.375,117.687l-1.939,1.166
	c-3.409,2.039-6.999,2.62-9.712,2.62h-5.735c-2.522,0-3.885-1.356-3.885-3.885v-10.495c0-2.515,1.363-3.878,3.885-3.878h13.508
	c2.516,0,3.879,1.363,3.879,3.878V117.687z M99.881,140.296H85.915v6.409c0,7.766,6.215,13.966,13.966,13.966h20.494
	c7.753,0,13.962-6.2,13.962-13.966v-42.718c0-7.76-6.208-13.961-13.962-13.961H99.103c-7.763,0-13.962,6.202-13.962,13.961v15.939
	c0,7.751,6.2,13.96,13.962,13.96h8.257c5.242,0,8.938-3.305,11.075-5.335l1.939-1.848v16.897c0,2.529-1.363,3.885-3.879,3.885
	h-12.728c-2.522,0-3.887-1.356-3.887-3.885V140.296z"/>
<path style="fill:#FFFFFF;" d="M280.621,141.49c0-77.188-62.343-139.758-139.521-139.758c-0.125,0-0.237,0.013-0.354,0.013v37.476
	c56.481,0,102.275,45.794,102.275,102.275c0,56.482-45.794,102.269-102.275,102.269c-56.47,0-102.269-45.787-102.269-102.269
	c0-42.477,25.908-78.889,62.774-94.345l-13.83-34.899C36.649,33.191,0.885,83.158,0.885,141.49
	c0,77.185,62.57,139.757,139.749,139.757C217.819,281.247,280.621,218.675,280.621,141.49"/>
</svg>
