<svg xmlns="http://www.w3.org/2000/svg" width="305.944" height="171.916" viewBox="0 0 305.944 171.916"><g fill="#636466"><path d="M60.16 82.316c5.25-4.16 11.946-6.203 19.43-6.203 3.886 0 9.354.8 12.74 1.75.86.218 1.367.364 2.014.292.07 1.68.432 6.276 1.01 10.727-.364.512-1.442.585-1.945.146-1.08-4.96-4.32-10.654-14.755-10.654-11.01 0-20.367 7.08-20.367 22.184 0 15.324 9.574 23.79 21.375 23.79 9.28 0 13.383-6.13 15.038-10.437.508-.362 1.586-.216 1.875.293-.506 3.796-2.376 8.612-3.454 9.998-.864.147-1.73.44-2.52.73-1.58.585-6.765 1.68-11.37 1.68-6.477 0-12.666-1.314-17.92-4.89-5.757-4.013-10.216-10.654-10.216-20.067 0-8.1 3.594-15.03 9.067-19.337zM132.92 110.542c0 9.258-6.367 15.92-15.624 15.92-8.516 0-15.18-5.997-15.18-15.253 0-9.33 7.037-15.994 15.773-15.994 8.29 0 15.03 6.22 15.03 15.326zM117 97.44c-4.885 0-8.516 4.663-8.516 12.81 0 6.735 3.038 13.992 9.554 13.992s8.516-6.813 8.516-12.513c0-6.295-2.52-14.29-9.554-14.29zM147.233 117.132c0 5.332.148 6.07 2.813 6.442l1.777.223c.517.37.372 1.63-.148 1.852-2.442-.15-4.59-.224-7.18-.224-2.664 0-4.888.074-7.108.223-.517-.224-.665-1.482-.148-1.853l1.702-.223c2.74-.37 2.813-1.11 2.813-6.442v-24.79c0-4.37-.072-4.814-2.296-6.146l-.738-.442c-.373-.223-.373-1.26 0-1.48 1.848-.594 5.33-1.704 7.995-3.11.296 0 .593.145.74.442-.075 2.222-.224 5.923-.224 9.18v26.346zM167.745 117.132c0 5.332.148 6.07 2.813 6.442l1.775.223c.52.37.373 1.63-.148 1.852-2.44-.15-4.59-.224-7.182-.224-2.664 0-4.885.074-7.11.223-.516-.224-.664-1.482-.146-1.853l1.703-.223c2.74-.37 2.817-1.11 2.817-6.442v-24.79c0-4.37-.076-4.814-2.297-6.146l-.74-.442c-.37-.223-.37-1.26 0-1.48 1.85-.594 5.33-1.704 7.994-3.11.296 0 .593.145.74.442-.07 2.222-.22 5.923-.22 9.18v26.346zM184.14 106.47c-1.923 0-2 .15-2 2 0 7.48 4.37 13.846 12.29 13.846 2.446 0 4.518-.74 6.814-3.628.74-.223 1.258.222 1.334.89-2.444 5.035-7.774 6.885-11.625 6.885-4.813 0-8.588-2.072-10.736-4.888-2.22-2.887-3.11-6.367-3.11-9.623 0-9.11 5.996-16.735 14.885-16.735 6.367 0 10.51 4.368 10.51 8.813 0 1.036-.147 1.63-.296 1.924-.22.444-1.258.52-4.367.52h-13.7zm4.593-2.22c5.48 0 7.105-.295 7.698-.74.226-.147.446-.444.446-1.406 0-2.074-1.407-4.664-5.703-4.664-4.368 0-8.143 3.997-8.22 6.44 0 .15 0 .37.522.37h5.258zM239.006 92.187c.813.37.665 2.89-.445 3.038h-5.33c.15 1.258.15 2.517.15 3.774 0 5.108-3.038 11.773-12.44 11.773-1.334 0-2.367-.148-3.257-.223-.89.517-3.26 1.926-3.26 4.07 0 1.704 1.704 3.11 5.183 3.11 2.52 0 5.555-.222 8.813-.222 4.146 0 10.366.74 10.366 8.145 0 8.07-8.813 13.994-18.438 13.994-9.108 0-12.29-4.888-12.29-8.588 0-1.186.296-2.15.813-2.74 1.26-1.334 3.335-3.258 5.038-4.96.665-.668 1.258-1.334.59-1.778-2.886-.74-5.402-3.258-5.402-5.85 0-.37.296-.666 1.11-1.26 1.258-.813 2.664-2.07 3.923-3.406.367-.442.74-1.036.74-1.406-2.517-1.333-5.555-4.22-5.555-8.96 0-6.366 5.48-11.18 12.07-11.18 2.813 0 5.406.742 7.11 1.482 2.367 1.037 2.884 1.184 4.516 1.184h5.996zM223.534 122.1c-2.373 0-5.334.148-6.368.815-1.78 1.11-3.555 3.406-3.555 6.22 0 4 3.183 7.33 9.924 7.33 6.588 0 10.956-3.7 10.956-7.923 0-4.517-3.11-6.442-8.44-6.442h-2.516zm4.588-21.175c0-5.035-2.07-9.255-6.588-9.255-3.555 0-6.22 3.258-6.22 8.293 0 5.256 3.182 8.662 6.736 8.662 4 0 6.072-3.183 6.072-7.7zM248.437 106.47c-1.928 0-2 .15-2 2 0 7.48 4.368 13.846 12.29 13.846 2.445 0 4.517-.74 6.814-3.628.737-.223 1.26.222 1.33.89-2.44 5.035-7.773 6.885-11.625 6.885-4.813 0-8.587-2.072-10.735-4.888-2.22-2.887-3.11-6.367-3.11-9.623 0-9.11 6-16.735 14.884-16.735 6.368 0 10.516 4.368 10.516 8.813 0 1.036-.148 1.63-.297 1.924-.225.444-1.258.52-4.367.52h-13.7zm4.588-2.22c5.48 0 7.11-.295 7.702-.74.22-.147.445-.444.445-1.406 0-2.074-1.41-4.664-5.703-4.664-4.37 0-8.147 3.997-8.22 6.44 0 .15 0 .37.517.37h5.258z"/></g><g fill="#CB2026"><path d="M40.627 79.284c-8.93 0-16.18-2.092-22.164-6.395-8.177-6.016-12.68-15.345-12.68-26.27 0-10.144 4.1-19.37 11.25-25.31 6.34-5.305 14.652-8.11 24.033-8.11 4.56 0 11.31.98 15.697 2.28l.214.058c.74.198 1.223.327 1.73.327.114 0 .232-.005.354-.02l.45-.054.024.464c.088 2.255.54 8.206 1.23 13.82l.01.11-.083.186c-.305.46-.928.747-1.626.747-.54 0-1.04-.175-1.376-.48-1.953-9.085-7.916-13.653-17.765-13.653-11.84 0-24.492 7.414-24.492 28.223 0 18.12 10.338 30.295 25.724 30.295 11.49 0 16.212-8.27 18.004-13.2.398-.387.8-.54 1.302-.54.64 0 1.43.266 1.752.863-.604 5.432-2.968 11.626-4.26 13.377l-.102.135-.16.03c-1.066.192-2.166.593-3.005.92-2.03.79-8.46 2.197-14.058 2.197zM82.998 71.675c-5.707 0-10.725-2.286-13.767-6.273-3.292-4.28-3.983-9.062-3.983-12.32 0-12.203 8.196-21.405 19.065-21.405 8.47 0 13.532 5.786 13.532 11.38 0 1.437-.216 2.173-.397 2.538-.342.686-1.53.783-5.733.783H74.376c-2.3 0-2.3.086-2.3 2.3 0 8.608 4.738 17.294 15.323 17.294 3.452 0 5.897-1.305 8.442-4.504.267-.12.453-.16.65-.16.77 0 1.35.562 1.444 1.4-3.18 6.63-10.033 8.967-14.938 8.967zm.28-36.732c-5.388 0-10.08 4.873-10.174 7.933 0 .136 0 .236.428.236h6.652c5.98 0 8.766-.26 9.612-.893.22-.152.47-.468.47-1.6.002-2.62-1.83-5.677-6.99-5.677zM109.514 45.18c0-4.33 0-4.886-3-6.884l-1-.667c-.445-.444-.445-1.666.11-2 2.555-.89 8.884-3.776 11.108-5.44.44 0 .996.222 1.22.776-.225 2.555-.225 4.22-.225 5.22 0 .665.445 1.22 1.225 1.22 4.665-2.887 9.884-5.662 15.544-5.662 9.22 0 12.994 6.33 12.994 13.77v19.1c0 7.995.22 9.104 4.217 9.66l2.445.334c.775.555.555 2.443-.225 2.775-3.328-.223-6.548-.333-10.438-.333-3.996 0-7.33.11-10.326.333-.78-.333-1-2.22-.225-2.775l2.11-.334c4.11-.665 4.22-1.665 4.22-9.66V48.068c0-6.33-2.886-10.994-10.436-10.994-4.224 0-7.885 1.777-9.44 3.887-1.444 1.888-1.668 3.443-1.668 6.663v16.99c0 7.996.225 8.996 4.22 9.66l2 .335c.78.555.555 2.443-.22 2.775-3-.223-6.22-.333-10.105-.333-4 0-7.328.11-10.438.333-.78-.333-1-2.22-.225-2.775l2.334-.334c4.11-.555 4.22-1.665 4.22-9.66V45.18zM174.693 37.962c-1.885 0-1.995.334-1.995 2.667v20.765c0 6.44.775 12.324 8.104 12.324 1.11 0 2.11-.22 3-.556 1-.333 2.44-1.555 2.774-1.555.89 0 1.33 1.22 1.11 1.89-2 2.33-5.995 5.106-11.66 5.106-9.55 0-11.55-5.33-11.55-11.994V41.184c0-3-.108-3.222-2.33-3.222h-3.108c-.67-.443-.78-1.665-.335-2.33 3.22-1 5.995-2.445 7.105-3.443 1.444-1.333 3.554-4.333 4.664-6.553.556-.223 1.89-.223 2.335.555v4.997c0 1.997.11 2.11 2 2.11h12.324c1.33 1 1.11 3.996.11 4.662h-12.547zM200.68 45.18c0-4.33 0-4.886-3-6.884l-1-.667c-.443-.444-.443-1.666.11-2 2.556-.89 8.44-3.776 11.216-5.44.56.11.89.332.89.776v6.44c0 .555.11.89.335 1 3.886-3.22 8.105-6.662 12.215-6.662 2.775 0 4.995 1.777 4.995 4.442 0 3.665-2.995 5.107-4.774 5.107-1.11 0-1.665-.333-2.44-.777-1.665-1.11-3.334-1.777-4.89-1.777-1.774 0-3.105 1-3.995 2.22-1.108 1.556-1.443 4.775-1.443 8.55v15.104c0 7.995.225 9.327 4.444 9.66l3.996.334c.78.555.555 2.443-.22 2.775-5.22-.223-8.44-.333-12.33-.333-3.994 0-7.33.11-10.214.333-.78-.333-1-2.22-.22-2.775l2.11-.334c4.104-.665 4.22-1.665 4.22-9.66V45.18zM253.514 54.065c1.67-.555 1.89-1.555 1.89-3.222l.11-5.107c.11-4.11-1.22-9.662-8.105-9.662-3.11 0-6.886 1.555-7.11 4.997-.11 1.778-.22 3.11-1.11 3.778-1.664 1.333-4.664 2.11-6.33 2.11-1 0-1.554-.555-1.554-1.555 0-5.774 12.55-13.66 20.654-13.66 7.998 0 11.884 4.666 11.55 12.993l-.666 19.323c-.22 5.106.78 9.66 5.11 9.66 1.11 0 2.108-.334 2.774-.666.555-.333 1.11-.777 1.444-.777.444 0 .775.665.775 1.442 0 .554-3.885 4.886-9.325 4.886-2.67 0-5.334-1-7.22-3.442-.444-.667-1.11-1.555-1.78-1.555-.773 0-2.108 1-4.328 2.22-2.44 1.332-4.885 2.776-7.995 2.776-3.22 0-5.886-.888-7.775-2.555-2.11-1.887-3.44-4.664-3.44-7.77 0-4.333 2.11-6.885 9.215-9.44l13.214-4.775zM246.63 73.61c2.224 0 5.663-1.666 6.773-2.778 1.335-1.333 1.335-2.887 1.444-5.217l.22-6.552c0-1.222-.444-1.445-1.11-1.445s-2.554.445-4.55 1.11c-6.554 2.222-9.773 3.887-9.773 8.22 0 1.886 1.335 6.66 6.995 6.66zM291.738 64.615c0 7.995.224 9.104 4.22 9.66l2.664.334c.78.554.556 2.442-.22 2.774-3.665-.223-6.885-.333-10.774-.333-3.995 0-7.325.11-10.66.334-.774-.333-1-2.22-.22-2.775l2.555-.335c4.105-.555 4.22-1.665 4.22-9.66V25.928c0-6.552-.114-7.217-3.444-9.217l-1.11-.665c-.556-.334-.556-1.89 0-2.222 2.774-.888 7.994-2.555 11.994-4.665.444 0 .89.223 1.11.667-.11 3.332-.335 8.884-.335 13.77v41.02z"/></g><g fill="#636466"><path d="M126.768 158.863c0 2.992.125 3.023 1.995 3.304l.842.125c.218.188.218.81-.062.904-1.465-.063-2.93-.094-4.302-.094-1.59 0-3.023.03-4.52.094-.28-.094-.28-.717-.062-.904l.842-.125c1.87-.28 1.995-.312 1.995-3.304v-9.883c0-2.057-.094-2.806-1.497-2.96l-1.496-.157c-.187-.155-.187-.623-.03-.748 2.586-.5 4.77-1.247 6.047-1.964.186.032.31.126.342.28-.063.656-.094 2.526-.094 3.773v11.66zM152.893 147.858c0 2.432-2.058 3.522-3.46 4.49 1.933 1.06 4.083 2.836 4.083 5.797 0 3.616-3.18 5.394-6.577 5.394-3.056 0-6.33-1.436-6.33-5.02 0-2.4 1.902-3.835 4.115-5.082-1.652-.842-3.553-2.556-3.553-4.863 0-3.24 2.587-5.424 6.172-5.424 3.086 0 5.55 1.653 5.55 4.708zm-2.712 11.38c0-2.433-1.745-3.96-4.363-5.238-1.466 1.153-2.214 2.463-2.214 4.396 0 2.338 1.466 3.896 3.49 3.896 1.685 0 3.088-1.185 3.088-3.055zm-5.922-11.66c0 2.15 2.338 3.242 4.083 4.115 1.154-.936 1.778-2.15 1.778-3.835 0-1.745-1.06-3.46-2.993-3.46-1.87 0-2.867 1.496-2.867 3.18zM174.554 142.714c.187.03.28.156.28.28-.187.842-.592 1.84-1.216 2.557l-6.453.843c-.872.125-.935.187-1.122.873l-.312 1.122c-.093.343.032.5.624.592l2.183.374c2.463.437 6.982 1.746 6.982 6.64 0 5.58-6.672 9.04-11.69 9.23-.374-.19-.5-.75-.22-1.062 4.397-.53 8.855-2.743 8.855-7.045 0-4.396-4.52-5.362-7.98-5.455-.654-.03-.748-.156-.53-.967l1.684-6.08c.124-.497.31-.778.81-.84l8.104-1.06zM197.3 146.673c0 1.278-.5 2.557-3.336 3.96-.188.218-.063.436.374.467 2.37.22 4.52 1.81 4.52 4.895 0 5.02-5.393 8.854-10.068 8.854-1.466 0-3.087-.656-3.087-2.027 0-.81.624-1.466 1.466-1.466.872 0 1.464.842 1.713 1.153.562.687 1.03.998 1.715.998 1.465 0 4.646-2.183 4.646-5.985 0-2.618-1.31-4.738-3.96-4.738-1.185 0-2.307.623-3.023 1.278-.498-.063-.903-.748-.685-1.278 2.026-.904 6.172-2.09 6.172-5.27 0-1.745-1.09-2.648-2.432-2.648-1.527 0-2.774.966-3.834 2.587-.31.156-.622-.124-.685-.5 1.028-2.306 3.335-3.802 5.86-3.802 2.868 0 4.644 1.526 4.644 3.52zM67.964 156.02c-.162 0-.324-.125-.324-.403v-5.224c0-.278.163-.402.324-.402.103 0 .204.05.3.146l1.72 1.72c.1.1.318.19.46.19h39.014c.317 0 .576.26.576.576v.767c0 .316-.258.575-.576.575H70.444c-.142 0-.362.09-.46.19l-1.72 1.72c-.096.095-.197.144-.3.144zM251.853 156.02c-.103 0-.204-.05-.3-.146l-1.718-1.72c-.1-.1-.32-.19-.462-.19h-39.015c-.317 0-.575-.26-.575-.576v-.767c0-.316.258-.575.575-.575h39.014c.14 0 .363-.093.46-.19l1.722-1.72c.095-.096.196-.145.3-.145.16 0 .323.124.323.402v5.224c0 .28-.163.403-.324.403z"/></g></svg>