<?xml version="1.0" encoding="utf-8"?>
<!-- Generator: Adobe Illustrator 22.0.0, SVG Export Plug-In . SVG Version: 6.00 Build 0)  -->
<svg version="1.1" id="Layer_1" xmlns="http://www.w3.org/2000/svg" xmlns:xlink="http://www.w3.org/1999/xlink" x="0px" y="0px"
	 viewBox="0 0 1024 300" style="enable-background:new 0 0 1024 300;" xml:space="preserve">
<style type="text/css">
	.st0{fill:#929497;}
	.st1{fill:#CB2026;}
	.st2{fill:none;stroke:#929497;stroke-width:0.8149;}
	.st3{fill:none;stroke:#CB2026;stroke-width:0.8149;}
</style>
<g>
	<path class="st0" d="M130.7,198h1.6v-1c0-1-0.7-1.6-1.6-1.6h-2.4c-1,0-1.6,0.7-1.6,1.6v1.4c0,0.9,0.8,1.4,1.6,1.6l2.1,0.5
		c0.2,0.1,0.4,0.1,0.4,0.4v0.9c0,0.3-0.1,0.4-0.4,0.4h-1.8c-0.3,0-0.4-0.1-0.4-0.4V201h-1.6v1c0,1,0.7,1.6,1.6,1.6h2.6
		c1,0,1.6-0.7,1.6-1.6v-1.5c0-0.9-0.8-1.5-1.6-1.6l-2.1-0.5c-0.3-0.1-0.4-0.1-0.4-0.4v-0.8c0-0.3,0.1-0.4,0.4-0.4h1.6
		c0.3,0,0.4,0.1,0.4,0.4L130.7,198L130.7,198z M119.6,195.4v8.2h5.4v-1.6h-3.7v-1.9h3v-1.6h-3V197h3.7v-1.5H119.6z M117.8,197v-1.5
		h-5.9v1.5h2.1v6.7h1.6V197H117.8z M105.1,195.4v8.2h5.4v-1.6h-3.7v-1.9h3v-1.6h-3V197h3.7v-1.5H105.1z M98.2,195.4v8.2h5.1v-1.6
		h-3.4v-6.7H98.2z M89.7,203.6h1.6v-3.4h2.8v3.4h1.6v-8.2h-1.6v3.2h-2.8v-3.2h-1.6V203.6z M88,197v-1.5H82v1.5h2.1v6.7h1.6V197H88z
		 M78.1,197.2l0.9,3h-1.8L78.1,197.2z M76.8,201.8h2.7l0.5,1.9h1.8l-2.6-8.2h-1.9l-2.6,8.2h1.7L76.8,201.8z"/>
	<path class="st0" d="M125.2,178.7h19.1v-1h-18.1v-7.6c0-2,0.7-2.7,3.1-3.6l11.5-4.1c2.3-0.8,3.4-1.9,3.4-4.3v-5.1
		c0-3.1-1.8-4.9-5-4.9h-8.8c-3.1,0-5,1.8-5,4.9v0.4h1v-0.4c0-2.5,1.4-3.9,3.9-3.9h8.8c2.5,0,3.9,1.4,3.9,3.9v5.1
		c0,2-0.9,2.7-3.1,3.5l-11.5,4.1c-2.3,0.8-3.4,1.9-3.4,4.4L125.2,178.7L125.2,178.7z M129.6,156.3h-7.1v-3.9c0-4,3.2-7.3,7.3-7.3
		h10.3c4,0,7.3,3.2,7.3,7.3v6.4c0,4-3.4,6-7.3,7.3l-8.7,3c-1.3,0.5-2,0.7-2,2v3.7h18.1v6.9h-25.4v-12.2c0-4,3.4-6,7.3-7.3l8.7-3
		c1.3-0.5,2-0.7,2-2V154c0-1.3-0.7-2-2-2h-6.5c-1.3,0-2,0.7-2,2L129.6,156.3L129.6,156.3z M98.1,153.7c0-1.1,0.6-1.7,1.7-1.7h7.7
		c1.1,0,1.7,0.6,1.7,1.7v19.6c0,1.1-0.6,1.7-1.7,1.7h-7.7c-1.1,0-1.7-0.6-1.7-1.7C98.1,173.3,98.1,153.7,98.1,153.7z M98.9,149
		c-2.5,0-3.9,1.4-3.9,3.9v21c0,2.5,1.4,3.9,3.9,3.9h9.5c2.5,0,3.9-1.4,3.9-3.9v-21c0-2.5-1.4-3.9-3.9-3.9H98.9z M113.4,174
		c0,3.1-1.8,5-5,5h-9.5c-3.1,0-5-1.8-5-5v-21c0-3.1,1.8-4.9,5-4.9h9.5c3.1,0,5,1.8,5,4.9V174z M109.4,181.8c4.2,0,7.2-2.9,7.2-7.2
		v-22.4c0-4.2-2.9-7.2-7.2-7.2H98c-4.2,0-7.2,2.9-7.2,7.2v22.4c0,4.2,2.9,7.2,7.2,7.2H109.4z M63.7,178.7h19.1v-1H64.7v-7.6
		c0-2,0.7-2.7,3.1-3.6l11.5-4.1c2.3-0.8,3.4-1.9,3.4-4.3v-5.1c0-3.1-1.8-4.9-5-4.9h-8.8c-3.1,0-5,1.8-5,4.9v0.4h1v-0.4
		c0-2.5,1.4-3.9,3.9-3.9h8.8c2.5,0,3.9,1.4,3.9,3.9v5.1c0,2-0.9,2.7-3.1,3.5l-11.5,4.1c-2.3,0.8-3.4,1.9-3.4,4.4L63.7,178.7
		L63.7,178.7z M68,156.3H61v-3.9c0-4,3.2-7.3,7.3-7.3h10.3c4,0,7.3,3.2,7.3,7.3v6.4c0,4-3.4,6-7.3,7.3l-8.7,3c-1.3,0.5-2,0.7-2,2
		v3.7h18.1v6.9H60.5v-12.2c0-4,3.4-6,7.3-7.3l8.7-3c1.3-0.5,2-0.7,2-2V154c0-1.3-0.7-2-2-2H70c-1.3,0-2,0.7-2,2V156.3z"/>
	<path class="st1" d="M254.3,125.4c0.4-1,1-2.3,1-3.3c0-1-0.6-2.3-1-3.3h-0.5c0.4,1.2,0.7,2.3,0.7,3.3c0,1-0.3,2.2-0.7,3.3H254.3z
		 M249.3,120.5h-0.8v4.1h0.8v-2.2c0-0.8,0.2-1,0.3-1.1c0.3-0.3,0.8-0.3,0.8-0.3c0.6,0,0.9,0.4,0.9,1v2.6h0.8v-2.8
		c0-1.3-1.3-1.4-1.5-1.4c-0.4,0-1,0.2-1.2,0.7h0L249.3,120.5L249.3,120.5z M244.1,122.2c0-0.7,0.4-1.2,1-1.2c0.7,0,1.1,0.5,1,1.2
		H244.1z M246.9,122.7v-0.4c0-1.1-0.6-1.9-1.8-1.9c-1.3,0-1.9,1-1.9,2.2c0,1.2,0.5,2.1,1.8,2.1c1,0,1.7-0.5,1.8-1.4h-0.8
		c-0.1,0.6-0.4,0.8-1,0.8c-0.8,0-1.1-0.7-1-1.5L246.9,122.7L246.9,122.7z M236.2,120.5h-0.8v4.1h0.8v-2.1c0-0.1,0-0.6,0.1-0.8
		c0.2-0.5,0.7-0.7,1-0.7c0.7,0,0.9,0.5,0.9,1.2v2.4h0.8v-2.1c0-0.1,0-0.5,0.1-0.9c0.1-0.5,0.7-0.6,0.9-0.6c0.9,0,1,0.6,1,1.2v2.4
		h0.8v-2.9c0-0.7-0.6-1.3-1.5-1.3c-0.6,0-1.1,0.3-1.4,0.8c-0.2-0.5-0.7-0.8-1.4-0.8c-0.4,0-0.9,0.2-1.2,0.7h0L236.2,120.5
		L236.2,120.5z M230.6,122.6c0-0.9,0.3-1.6,1.2-1.6c0.9,0,1.2,0.7,1.2,1.6c0,0.9-0.3,1.6-1.2,1.6
		C230.9,124.2,230.6,123.4,230.6,122.6 M231.8,120.4c-1.3,0-2,0.9-2,2.2c0,1.3,0.7,2.2,2,2.2c1.3,0,2-0.9,2-2.2
		C233.9,121.3,233.2,120.4,231.8,120.4 M228,120.5l-1,3.2h0l-0.9-3.2h-1l-1,3.3h0l-1-3.3h-0.8l1.4,4.1h0.9l1.1-3.4h0l1,3.4h0.9
		l1.4-4.1H228z M214.8,119.7h2.9l-2.1,4.9h0.8l2.1-4.9V119h-3.7V119.7z M210.3,119l-0.1,3.4h0.7c0.2-0.6,0.5-0.7,1.1-0.7
		c0.7,0,0.9,0.6,0.9,1.2c0,0.6-0.3,1.3-1,1.3c-0.5,0-1-0.2-1-0.8h-0.9c0.1,1,0.8,1.5,1.7,1.5c1.1,0,2-0.8,2-1.9c0-1-0.6-1.9-1.7-1.9
		c-0.5,0-0.8,0.1-1.2,0.5l0.1-1.7h2.5V119L210.3,119L210.3,119z M208.7,123.9h-2.6v0c0.5-0.5,1.5-1.4,2-2c0.4-0.5,0.6-0.8,0.6-1.5
		c0-0.9-0.7-1.5-1.8-1.5c-1,0-1.7,0.6-1.7,1.7h0.9c0-0.5,0.3-1,0.9-1c0.6,0,0.9,0.3,0.9,0.9c0,0.4-0.1,0.7-0.4,1
		c-0.7,0.9-1.5,1.6-2.3,2.4v0.7h3.6L208.7,123.9L208.7,123.9z M203.7,118.7l-2.1,6.7h0.5l2.1-6.7H203.7z M197.8,120.5H197v4.1h0.8
		v-2.2c0-0.8,0.2-1,0.3-1.1c0.3-0.3,0.8-0.3,0.8-0.3c0.7,0,0.9,0.4,0.9,1v2.6h0.8v-2.8c0-1.3-1.3-1.4-1.5-1.4c-0.4,0-1,0.2-1.2,0.7
		h0L197.8,120.5L197.8,120.5z M192.6,122.2c0-0.7,0.4-1.2,1-1.2c0.8,0,1.1,0.5,1,1.2H192.6z M195.5,122.7v-0.4
		c0-1.1-0.6-1.9-1.8-1.9c-1.3,0-1.9,1-1.9,2.2c0,1.2,0.5,2.1,1.8,2.1c1,0,1.7-0.5,1.8-1.4h-0.8c-0.1,0.6-0.4,0.8-1,0.8
		c-0.8,0-1.1-0.7-1-1.5L195.5,122.7L195.5,122.7z M184.7,120.5H184v4.1h0.8v-2.1c0-0.1,0-0.6,0.1-0.8c0.2-0.5,0.7-0.7,1-0.7
		c0.7,0,0.9,0.5,0.9,1.2v2.4h0.8v-2.1c0-0.1,0-0.5,0.1-0.9c0.1-0.5,0.7-0.6,0.9-0.6c0.9,0,1,0.6,1,1.2v2.4h0.8v-2.9
		c0-0.7-0.6-1.3-1.5-1.3c-0.6,0-1.1,0.3-1.4,0.8c-0.2-0.5-0.7-0.8-1.4-0.8c-0.4,0-0.9,0.2-1.2,0.7h0L184.7,120.5L184.7,120.5z
		 M175.9,119.7h2.9l-2.1,4.9h0.8l2.1-4.9V119h-3.7V119.7z M172.5,122.1c0.8,0,1.6,0.1,1.6,1.1c0,0.6-0.6,0.9-1.1,0.9
		c-0.6,0-1-0.3-1-0.9H171c0,1,0.8,1.6,1.8,1.6c1.2,0,2.1-0.6,2.1-1.6c0-0.7-0.5-1.3-1.2-1.4v0c0.6-0.1,1.1-0.6,1.1-1.3
		c0-1.1-0.9-1.6-1.9-1.6c-0.9,0-1.8,0.6-1.8,1.6h0.9c0-0.5,0.5-0.9,1-0.9c0.6,0,1,0.2,1,0.8c0,0.8-0.8,1-1.5,1L172.5,122.1
		L172.5,122.1z M168.6,124.6h0.7v-1.2h0.8v-0.7h-0.8V119h-0.9l-2.4,3.6v0.9h2.6V124.6z M168.6,122.7h-1.9l1.9-2.9h0L168.6,122.7
		L168.6,122.7z M164.2,118.7c-0.4,1-1,2.3-1,3.3c0,1,0.6,2.3,1,3.3h0.5c-0.4-1.2-0.7-2.3-0.7-3.3c0-1,0.3-2.2,0.7-3.3H164.2z"/>
	<path class="st1" d="M236.2,104.3h1.6v-1c0-1-0.7-1.6-1.6-1.6h-2.4c-1,0-1.6,0.7-1.6,1.6v1.4c0,0.9,0.8,1.4,1.6,1.6l2.1,0.5
		c0.3,0.1,0.4,0.1,0.4,0.4v0.9c0,0.3-0.1,0.4-0.4,0.4h-1.8c-0.3,0-0.4-0.1-0.4-0.4v-0.7h-1.6v1c0,1,0.7,1.6,1.6,1.6h2.6
		c1,0,1.6-0.7,1.6-1.6v-1.5c0-0.9-0.8-1.4-1.6-1.6l-2.1-0.5c-0.3-0.1-0.4-0.1-0.4-0.4v-0.8c0-0.3,0.1-0.4,0.4-0.4h1.6
		c0.3,0,0.4,0.1,0.4,0.4L236.2,104.3L236.2,104.3z M225.1,101.7v8.2h5.4v-1.6h-3.7v-1.9h3V105h-3v-1.7h3.7v-1.6L225.1,101.7
		L225.1,101.7z M223.4,103.3v-1.5h-5.9v1.5h2.1v6.7h1.6v-6.7H223.4z M210.6,101.7v8.2h5.4v-1.6h-3.7v-1.9h3V105h-3v-1.7h3.7v-1.6
		L210.6,101.7L210.6,101.7z M203.7,101.7v8.2h5.1v-1.6h-3.4v-6.7C205.4,101.7,203.7,101.7,203.7,101.7z M195.3,109.9h1.6v-3.4h2.8
		v3.4h1.6v-8.2h-1.6v3.2h-2.8v-3.2h-1.6V109.9z M193.5,103.3v-1.5h-5.9v1.5h2.1v6.7h1.6v-6.7H193.5z M183.7,103.5l0.9,3h-1.8
		L183.7,103.5z M182.3,108.1h2.7l0.5,1.8h1.8l-2.6-8.2h-1.9l-2.6,8.2h1.7L182.3,108.1z"/>
	<path class="st1" d="M243.6,69.4c2.9,0.7,4.2,2.7,4.2,5.2v5.8c0,3.1-1.8,4.9-5,4.9h-9.2c-3.1,0-5-1.8-5-4.9V80h1v0.4
		c0,2.5,1.4,3.9,3.9,3.9h9.2c2.5,0,3.9-1.4,3.9-3.9v-5.8c0-2.9-2.1-4.7-5.6-4.7h-3.8v-1h3.8c2.8,0,5.2-1.3,5.2-4.5v-5.2
		c0-2.5-1.4-3.9-3.9-3.9h-8.4c-2.5,0-3.9,1.4-3.9,3.9v0.4h-1v-0.4c0-3.1,1.8-5,5-5h8.4c3.1,0,5,1.8,5,5v5.2
		C247.4,66.6,246.4,68.4,243.6,69.4 M232.9,77h-7.3v3.8c0,4,3.2,7.3,7.3,7.3h10.8c4,0,7.3-3.2,7.3-7.3v-6.1c0-2.2-1.1-4.2-3.6-5.5
		c2.3-1.4,3.2-3.3,3.2-5.5v-5.3c0-4-3.2-7.3-7.3-7.3h-10c-4,0-7.3,3.2-7.3,7.3v3.8h7.3v-2.3c0-1.3,0.7-2,2-2h6c1.3,0,2,0.7,2,2v3.9
		c0,1.6-0.6,2-2,2h-6.9v6.5h6.9c1.4,0,2.4,0.5,2.4,2v4.7c0,1.3-0.7,2-2,2h-6.8c-1.3,0-2-0.7-2-2V77z M199,85h19.1v-1H200v-7.6
		c0-2,0.7-2.7,3.1-3.6l11.5-4.1c2.3-0.8,3.4-1.9,3.4-4.3v-5.1c0-3.1-1.8-5-4.9-5h-8.8c-3.1,0-5,1.8-5,5v0.4h1v-0.4
		c0-2.5,1.4-3.9,3.9-3.9h8.8c2.5,0,3.9,1.4,3.9,3.9v5.1c0,2-0.9,2.7-3.1,3.5L202.4,72c-2.3,0.8-3.4,1.9-3.4,4.4V85z M203.4,62.6
		h-7.1v-3.9c0-4,3.2-7.3,7.3-7.3h10.3c4,0,7.3,3.2,7.3,7.3V65c0,4-3.4,6-7.3,7.3l-8.7,3c-1.3,0.5-2,0.7-2,2v3.7h18.1v6.9h-25.4V75.7
		c0-4,3.4-6,7.3-7.3l8.7-3c1.3-0.5,2-0.7,2-2v-3.1c0-1.3-0.7-2-2-2h-6.5c-1.3,0-2,0.7-2,2L203.4,62.6L203.4,62.6z M169.9,54.5h19.7
		v2.1L173.8,85h-1.1l15.9-28.6v-0.9h-18.7L169.9,54.5L169.9,54.5z M192.7,57.1v-5.6h-26v6.9h17.3l-16.4,29.5h8L192.7,57.1z"/>
	<path class="st0" d="M303.9,218.7h1.6v-1c0-1-0.7-1.6-1.6-1.6h-2.4c-1,0-1.6,0.7-1.6,1.6v1.4c0,0.9,0.8,1.4,1.6,1.6l2.1,0.5
		c0.3,0.1,0.4,0.1,0.4,0.4v0.9c0,0.3-0.1,0.4-0.4,0.4h-1.8c-0.3,0-0.4-0.1-0.4-0.4v-0.7h-1.6v1c0,1,0.7,1.6,1.6,1.6h2.6
		c1,0,1.6-0.7,1.6-1.6v-1.5c0-0.9-0.8-1.4-1.6-1.6l-2.1-0.5c-0.3-0.1-0.4-0.1-0.4-0.4v-0.8c0-0.3,0.1-0.4,0.4-0.4h1.6
		c0.3,0,0.4,0.1,0.4,0.4L303.9,218.7L303.9,218.7z M298.4,217.7v-1.5h-5.9v1.5h2.1v6.7h1.6v-6.7H298.4z M289.4,219.4
		c0,0.3-0.1,0.4-0.4,0.4h-2.1v-2.1h2.1c0.3,0,0.4,0.1,0.4,0.4V219.4z M291.3,224.4l-1.4-3.1c0.7-0.2,1.1-0.8,1.1-1.5v-1.9
		c0-1-0.7-1.6-1.6-1.6h-4.2v8.2h1.6v-3h1.3l1.3,3L291.3,224.4L291.3,224.4z M281.4,222.5c0,0.3-0.1,0.4-0.4,0.4h-1.9
		c-0.3,0-0.4-0.1-0.4-0.4v-4.4c0-0.3,0.1-0.4,0.4-0.4h1.9c0.3,0,0.4,0.1,0.4,0.4V222.5z M278.7,216.1c-1,0-1.6,0.7-1.6,1.6v5.1
		c0,1,0.7,1.6,1.6,1.6h2.8c1,0,1.6-0.7,1.6-1.6v-5.1c0-1-0.7-1.6-1.6-1.6H278.7z M271.2,219.9v-2.2h2.1c0.2,0,0.4,0.1,0.4,0.4v1.4
		c0,0.3-0.1,0.4-0.4,0.4L271.2,219.9L271.2,219.9z M269.5,216.2v8.2h1.6v-2.9h2.6c1,0,1.6-0.7,1.6-1.6v-2.1c0-1-0.7-1.6-1.6-1.6
		L269.5,216.2L269.5,216.2z M265.7,218.7h1.6v-1c0-1-0.7-1.6-1.6-1.6h-2.4c-1,0-1.6,0.7-1.6,1.6v1.4c0,0.9,0.8,1.4,1.6,1.6l2.1,0.5
		c0.3,0.1,0.4,0.1,0.4,0.4v0.9c0,0.3-0.1,0.4-0.4,0.4h-1.8c-0.3,0-0.4-0.1-0.4-0.4v-0.7h-1.6v1c0,1,0.7,1.6,1.6,1.6h2.6
		c1,0,1.6-0.7,1.6-1.6v-1.5c0-0.9-0.8-1.4-1.6-1.6l-2.1-0.5c-0.3-0.1-0.4-0.1-0.4-0.4v-0.8c0-0.3,0.1-0.4,0.4-0.4h1.6
		c0.3,0,0.4,0.1,0.4,0.4L265.7,218.7L265.7,218.7z"/>
	<path class="st0" d="M282.8,202.6v-6.8h-2.8c-1.3,0-2-0.7-2-2V189c0-1.5,1-2,2.4-2h6.3c1.4,0,2.4,0.5,2.4,2v4.7c0,1.3-0.7,2-2,2
		h-2.8v6.8h4.8c4,0,7.3-3.2,7.3-7.3v-6.1c0-2.2-1.1-4.2-3.6-5.5c2.3-1.4,3.2-3.3,3.2-5.5v-5.3c0-4-3.2-7.3-7.3-7.3h-4.4v6.8h2.4
		c1.3,0,2,0.7,2,2v3.9c0,1.6-0.6,2-2,2h-6.3c-1.4,0-2-0.4-2-2v-3.9c0-1.3,0.7-2,2-2h2.4v-6.8h-4.4c-4,0-7.3,3.2-7.3,7.3v5.3
		c0,2.2,0.9,4.1,3.2,5.5c-2.5,1.2-3.6,3.3-3.6,5.5v6.1c0,4,3.2,7.3,7.3,7.3L282.8,202.6L282.8,202.6z"/>
	<path class="st0" d="M693.7,75.3h-1.8l-2.1,4.8l-2.1-4.8h-1.8v8.2h1.6V78l1.8,4.2h1.2l1.8-4.2v5.5h1.6V75.3z M682,81.6
		c0,0.3-0.1,0.4-0.4,0.4h-1.9c-0.3,0-0.4-0.1-0.4-0.4v-4.4c0-0.3,0.1-0.4,0.4-0.4h1.9c0.3,0,0.4,0.1,0.4,0.4V81.6z M679.3,75.2
		c-1,0-1.6,0.7-1.6,1.6v5.1c0,1,0.7,1.6,1.6,1.6h2.8c1,0,1.6-0.7,1.6-1.6v-5.1c0-1-0.7-1.6-1.6-1.6H679.3z M674,81.6
		c0,0.3-0.1,0.4-0.4,0.4h-1.9c-0.3,0-0.4-0.1-0.4-0.4v-4.4c0-0.3,0.1-0.4,0.4-0.4h1.9c0.3,0,0.4,0.1,0.4,0.4V81.6z M671.3,75.2
		c-1,0-1.6,0.7-1.6,1.6v5.1c0,1,0.7,1.6,1.6,1.6h2.8c1,0,1.6-0.7,1.6-1.6v-5.1c0-1-0.7-1.6-1.6-1.6H671.3z M666.1,78.5
		c0,0.3-0.1,0.4-0.4,0.4h-2.1v-2.1h2.1c0.3,0,0.4,0.1,0.4,0.4V78.5z M668,83.5l-1.4-3.1c0.7-0.2,1.1-0.8,1.1-1.6v-1.9
		c0-1-0.7-1.6-1.6-1.6h-4.2v8.2h1.6v-3h1.3l1.3,3C666.2,83.5,668,83.5,668,83.5z M654.5,78.5c0,0.3-0.1,0.4-0.4,0.4H652v-2.1h2.1
		c0.3,0,0.4,0.1,0.4,0.4V78.5z M656.4,83.5l-1.4-3.1c0.7-0.2,1.1-0.8,1.1-1.6v-1.9c0-1-0.7-1.6-1.6-1.6h-4.2v8.2h1.6v-3h1.3l1.3,3
		C654.6,83.5,656.4,83.5,656.4,83.5z M643,75.3v8.2h5.4v-1.6h-3.7v-1.9h3v-1.6h-3v-1.7h3.7v-1.6L643,75.3L643,75.3z M637.6,79.9
		l1.9,3.6h1.8l-2.6-5l2.5-3.2h-1.9l-2.8,3.9v-3.9h-1.6v8.2h1.6v-2.1L637.6,79.9z M631.1,78.2h1.6v-1.3c0-1-0.7-1.6-1.6-1.6h-2.6
		c-1,0-1.6,0.7-1.6,1.6v5.1c0,1,0.7,1.6,1.6,1.6h2.6c1,0,1.6-0.7,1.6-1.6v-1.3h-1.6v1c0,0.3-0.1,0.4-0.4,0.4H629
		c-0.3,0-0.4-0.1-0.4-0.4v-4.4c0-0.3,0.1-0.4,0.4-0.4h1.8c0.3,0,0.4,0.1,0.4,0.4V78.2z M623.3,81.6c0,0.3-0.1,0.4-0.4,0.4H621
		c-0.3,0-0.4-0.1-0.4-0.4v-4.4c0-0.3,0.1-0.4,0.4-0.4h1.9c0.3,0,0.4,0.1,0.4,0.4V81.6z M620.6,75.2c-1,0-1.6,0.7-1.6,1.6v5.1
		c0,1,0.7,1.6,1.6,1.6h2.8c1,0,1.6-0.7,1.6-1.6v-5.1c0-1-0.7-1.6-1.6-1.6H620.6z M612.4,75.3v8.2h5.1v-1.6h-3.4v-6.7
		C614.1,75.3,612.4,75.3,612.4,75.3z"/>
	<path class="st0" d="M675,68.8V66l2.5-5.4h-1.8l-1.6,3.5l-1.6-3.5h-1.8l2.5,5.4v2.8H675z M669.9,62.1v-1.5H664v1.5h2.1v6.7h1.6
		v-6.7C667.7,62.1,669.9,62.1,669.9,62.1z M660.6,68.8h1.6v-8.2h-1.6V68.8z M656.7,63.1h1.6v-1c0-1-0.7-1.6-1.6-1.6h-2.4
		c-1,0-1.6,0.7-1.6,1.6v1.4c0,0.9,0.8,1.5,1.6,1.6l2.1,0.5c0.2,0.1,0.4,0.1,0.4,0.4v0.9c0,0.3-0.1,0.4-0.4,0.4h-1.8
		c-0.3,0-0.4-0.1-0.4-0.4v-0.7h-1.6v1.1c0,1,0.7,1.6,1.6,1.6h2.6c1,0,1.6-0.7,1.6-1.6v-1.5c0-0.9-0.8-1.4-1.6-1.6l-2.1-0.5
		c-0.3-0.1-0.4-0.1-0.4-0.4v-0.8c0-0.3,0.1-0.4,0.4-0.4h1.6c0.3,0,0.4,0.1,0.4,0.4L656.7,63.1L656.7,63.1z M649,63.9
		c0,0.3-0.1,0.4-0.4,0.4h-2.1v-2.1h2.1c0.3,0,0.4,0.1,0.4,0.4V63.9z M650.9,68.8l-1.4-3.1c0.7-0.2,1.1-0.8,1.1-1.6v-1.9
		c0-1-0.7-1.6-1.6-1.6h-4.2v8.2h1.6v-3h1.3l1.3,3H650.9z M639.6,62.4l0.9,3h-1.8L639.6,62.4z M638.3,67h2.7l0.5,1.8h1.8l-2.6-8.2
		h-1.9l-2.6,8.2h1.7L638.3,67z M635.8,60.6H634l-1.6,6.2l-1.6-6.2h-1.9l2.5,8.2h1.9L635.8,60.6z"/>
</g>
<path class="st0" d="M647.9,15.5l5.3-2.2h2.4v30.5h-1V14.3h-1.4l-5.3,2.2V15.5z M651.4,46.8h7.3V10.4h-5.8l-8.1,3.8v6.1l6.6-2.3
	L651.4,46.8L651.4,46.8z"/>
<g>
	<path class="st1" d="M752.5,208.1h-1.8l-2.1,4.8l-2.1-4.8h-1.8v8.2h1.6v-5.5l1.8,4.2h1.2l1.8-4.2v5.5h1.5V208.1z M740.8,214.4
		c0,0.3-0.1,0.4-0.4,0.4h-1.9c-0.3,0-0.4-0.1-0.4-0.4V210c0-0.3,0.1-0.4,0.4-0.4h1.9c0.3,0,0.4,0.1,0.4,0.4V214.4z M738.1,208
		c-1,0-1.6,0.7-1.6,1.6v5.1c0,1,0.7,1.6,1.6,1.6h2.8c1,0,1.6-0.7,1.6-1.6v-5.1c0-1-0.7-1.6-1.6-1.6H738.1z M732.8,214.4
		c0,0.3-0.1,0.4-0.4,0.4h-1.9c-0.2,0-0.4-0.1-0.4-0.4V210c0-0.3,0.1-0.4,0.4-0.4h1.9c0.3,0,0.4,0.1,0.4,0.4V214.4z M730.1,208
		c-1,0-1.6,0.7-1.6,1.6v5.1c0,1,0.7,1.6,1.6,1.6h2.8c1,0,1.6-0.7,1.6-1.6v-5.1c0-1-0.7-1.6-1.6-1.6H730.1z M724.8,211.3
		c0,0.3-0.1,0.4-0.4,0.4h-2.1v-2.1h2.1c0.3,0,0.4,0.1,0.4,0.4V211.3z M726.7,216.3l-1.4-3.1c0.7-0.2,1.1-0.8,1.1-1.6v-1.9
		c0-1-0.7-1.6-1.6-1.6h-4.2v8.2h1.6v-3h1.3l1.3,3L726.7,216.3L726.7,216.3z"/>
	<path class="st1" d="M756.9,196.7c0,0.3-0.1,0.4-0.4,0.4h-2.1V195h2.1c0.3,0,0.4,0.1,0.4,0.4V196.7z M758.8,201.6l-1.4-3.1
		c0.7-0.2,1.1-0.8,1.1-1.6V195c0-1-0.7-1.6-1.6-1.6h-4.2v8.2h1.6v-3h1.3l1.3,3H758.8z M745.3,193.4v8.2h5.4v-1.6H747v-1.9h3v-1.6h-3
		V195h3.7v-1.6H745.3z M739.9,198l1.9,3.6h1.8l-2.6-5l2.5-3.2h-1.9l-2.8,3.9v-3.9h-1.6v8.2h1.6v-2.1L739.9,198z M733.5,196.3h1.6
		V195c0-1-0.7-1.6-1.6-1.6h-2.6c-1,0-1.6,0.7-1.6,1.6v5.1c0,1,0.7,1.6,1.6,1.6h2.6c1,0,1.6-0.7,1.6-1.6v-1.3h-1.6v1
		c0,0.3-0.1,0.4-0.4,0.4h-1.8c-0.3,0-0.4-0.1-0.4-0.4v-4.4c0-0.3,0.1-0.4,0.4-0.4h1.8c0.3,0,0.4,0.1,0.4,0.4V196.3z M725.7,199.7
		c0,0.3-0.1,0.4-0.4,0.4h-1.9c-0.3,0-0.4-0.1-0.4-0.4v-4.4c0-0.3,0.1-0.4,0.4-0.4h1.9c0.3,0,0.4,0.1,0.4,0.4V199.7z M722.9,193.4
		c-1,0-1.6,0.7-1.6,1.6v5.1c0,1,0.7,1.6,1.6,1.6h2.8c1,0,1.6-0.7,1.6-1.6V195c0-1-0.7-1.6-1.6-1.6H722.9z M714.8,193.4v8.2h5.1v-1.6
		h-3.4v-6.7H714.8z"/>
	<path class="st1" d="M758.5,186.9v-2.8l2.5-5.4h-1.8l-1.6,3.5l-1.6-3.5h-1.8l2.5,5.4v2.8H758.5z M753.4,180.3v-1.5h-5.9v1.5h2.1
		v6.7h1.6v-6.7H753.4z M744.1,186.9h1.6v-8.2h-1.6V186.9z M740.2,181.3h1.6v-1c0-1-0.7-1.6-1.6-1.6h-2.4c-1,0-1.6,0.7-1.6,1.6v1.4
		c0,0.9,0.8,1.5,1.6,1.6l2.1,0.5c0.3,0.1,0.4,0.1,0.4,0.4v0.9c0,0.3-0.1,0.4-0.4,0.4h-1.8c-0.3,0-0.4-0.1-0.4-0.4v-0.7h-1.6v1.1
		c0,1,0.7,1.6,1.6,1.6h2.6c1,0,1.6-0.7,1.6-1.6v-1.5c0-0.9-0.8-1.5-1.6-1.6l-2.1-0.5c-0.3-0.1-0.4-0.1-0.4-0.4v-0.8
		c0-0.3,0.1-0.4,0.4-0.4h1.6c0.3,0,0.4,0.1,0.4,0.4L740.2,181.3L740.2,181.3z M732.5,182c0,0.3-0.1,0.4-0.4,0.4H730v-2.1h2.1
		c0.2,0,0.4,0.1,0.4,0.4V182z M734.4,186.9l-1.4-3.1c0.7-0.2,1.1-0.8,1.1-1.6v-1.9c0-1-0.7-1.6-1.6-1.6h-4.2v8.2h1.6v-3h1.3l1.3,3
		L734.4,186.9L734.4,186.9z M723.1,180.5l0.9,3h-1.8L723.1,180.5z M721.8,185.1h2.7l0.5,1.9h1.8l-2.6-8.2h-1.9l-2.6,8.2h1.7
		L721.8,185.1z M719.3,178.7h-1.8l-1.6,6.2l-1.6-6.2h-1.9l2.5,8.2h1.9L719.3,178.7z"/>
	<path class="st1" d="M766.3,166.6h1.6v-1c0-1-0.7-1.6-1.6-1.6h-2.4c-1,0-1.6,0.7-1.6,1.6v1.4c0,0.9,0.8,1.4,1.6,1.6l2.1,0.5
		c0.3,0.1,0.4,0.1,0.4,0.4v0.9c0,0.3-0.1,0.4-0.4,0.4h-1.8c-0.3,0-0.4-0.1-0.4-0.4v-0.7h-1.6v1.1c0,1,0.7,1.6,1.6,1.6h2.6
		c1,0,1.6-0.7,1.6-1.6v-1.5c0-0.9-0.8-1.5-1.6-1.6l-2.1-0.5c-0.3-0.1-0.4-0.1-0.4-0.4V166c0-0.3,0.1-0.4,0.4-0.4h1.6
		c0.3,0,0.4,0.1,0.4,0.4L766.3,166.6L766.3,166.6z M760.5,164.1h-1.6v1.7h0.6l-0.9,1.5h0.6l0.7-0.9c0.3-0.4,0.5-0.7,0.5-1.1V164.1z
		 M755.2,164.1v5.6l-3-5.6h-1.8v8.2h1.5v-5.6l3,5.6h1.8v-8.2H755.2z M743,164.1v8.2h5.4v-1.6h-3.7v-1.9h3v-1.5h-3v-1.7h3.7v-1.6
		L743,164.1L743,164.1z M740.7,164.1h-1.8l-2.1,4.8l-2.1-4.8h-1.8v8.2h1.5v-5.5l1.8,4.2h1.2l1.8-4.2v5.5h1.6L740.7,164.1
		L740.7,164.1z M729,170.4c0,0.3-0.1,0.4-0.4,0.4h-1.9c-0.3,0-0.4-0.1-0.4-0.4V166c0-0.3,0.1-0.4,0.4-0.4h1.9c0.3,0,0.4,0.1,0.4,0.4
		V170.4z M726.3,164c-1,0-1.6,0.7-1.6,1.6v5.1c0,1,0.7,1.6,1.6,1.6h2.7c1,0,1.6-0.7,1.6-1.6v-5.1c0-1-0.7-1.6-1.6-1.6H726.3z
		 M721.3,172.3l2-8.2h-1.7l-1.1,6l-1.5-6h-1.3l-1.5,6l-1.1-6h-1.8l2,8.2h1.6l1.3-5.4l1.3,5.4H721.3z M706.4,172.3h1.6v-8.2h-1.3
		l-1.8,0.9v1.4l1.5-0.5L706.4,172.3L706.4,172.3z"/>
	<path class="st1" d="M756,155.9h-1.6v1.7h0.6l-0.9,1.5h0.6l0.7-0.9c0.3-0.4,0.5-0.7,0.5-1.1V155.9z M750.9,151.9h1.6v-1
		c0-1-0.7-1.6-1.6-1.6h-2.4c-1,0-1.6,0.7-1.6,1.6v1.4c0,0.9,0.8,1.5,1.6,1.6l2.1,0.5c0.3,0.1,0.4,0.1,0.4,0.4v0.9
		c0,0.3-0.1,0.4-0.4,0.4h-1.8c-0.3,0-0.4-0.1-0.4-0.4V155h-1.6v1c0,1,0.7,1.6,1.6,1.6h2.6c1,0,1.6-0.7,1.6-1.6v-1.5
		c0-0.9-0.8-1.5-1.6-1.6l-2.1-0.5c-0.3-0.1-0.4-0.1-0.4-0.4v-0.8c0-0.3,0.1-0.4,0.4-0.4h1.6c0.3,0,0.4,0.1,0.4,0.4L750.9,151.9
		L750.9,151.9z M745.1,149.4h-1.6v1.7h0.6l-0.9,1.5h0.6l0.7-0.9c0.3-0.4,0.5-0.7,0.5-1.1V149.4z M739.8,149.4v5.6l-3-5.6H735v8.2
		h1.5V152l3,5.6h1.8v-8.2H739.8z M727.6,149.4v8.2h5.4v-1.6h-3.7v-1.9h3v-1.6h-3v-1.7h3.7v-1.5H727.6z M725.3,149.4h-1.8l-2.1,4.8
		l-2.1-4.8h-1.8v8.2h1.5v-5.5l1.8,4.2h1.2l1.8-4.2v5.5h1.5L725.3,149.4L725.3,149.4z"/>
</g>
<path class="st1" d="M731.4,104.3l5.3-2.2h2.4v30.5h-1v-29.6h-1.4l-5.3,2.2L731.4,104.3L731.4,104.3z M734.9,135.6h7.3V99.2h-5.8
	l-8.1,3.8v6.1l6.6-2.3L734.9,135.6L734.9,135.6z"/>
<path class="st0" d="M489,199.8h1.6v-1c0-1-0.7-1.6-1.6-1.6h-2.4c-1,0-1.6,0.7-1.6,1.6v1.4c0,0.9,0.8,1.4,1.6,1.6l2.1,0.5
	c0.3,0.1,0.4,0.1,0.4,0.4v0.9c0,0.3-0.1,0.4-0.4,0.4h-1.8c-0.3,0-0.4-0.1-0.4-0.4v-0.7H485v1c0,1,0.7,1.6,1.6,1.6h2.6
	c1,0,1.6-0.7,1.6-1.6v-1.5c0-0.9-0.8-1.4-1.6-1.6l-2.1-0.5c-0.2-0.1-0.4-0.1-0.4-0.4v-0.8c0-0.3,0.1-0.4,0.4-0.4h1.6
	c0.3,0,0.4,0.1,0.4,0.4L489,199.8L489,199.8z M482.8,197.3H481l-2.1,4.8l-2.1-4.8H475v8.2h1.5V200l1.8,4.2h1.2l1.8-4.2v5.5h1.6
	L482.8,197.3L482.8,197.3z M469.7,199.1l0.9,3h-1.8L469.7,199.1z M468.4,203.6h2.7l0.5,1.8h1.8l-2.6-8.2h-1.9l-2.6,8.2h1.7
	L468.4,203.6z M459.4,197.3v8.2h5.4v-1.5h-3.7V202h3v-1.5h-3v-1.7h3.7v-1.5L459.4,197.3L459.4,197.3z M457.7,198.8v-1.5h-5.9v1.5
	h2.1v6.7h1.6v-6.7H457.7z M442.4,197.3v8.2h5.1v-1.5H444v-6.7L442.4,197.3L442.4,197.3z M435.5,197.3v8.2h5.1v-1.5h-3.4v-6.7
	L435.5,197.3L435.5,197.3z M430.2,199.1l0.9,3h-1.8L430.2,199.1z M428.9,203.6h2.7l0.5,1.8h1.8l-2.6-8.2h-1.9l-2.6,8.2h1.7
	L428.9,203.6z M420.2,200.5c0,0.3-0.1,0.4-0.4,0.4h-2.1v-2.1h2.1c0.3,0,0.4,0.1,0.4,0.4V200.5z M422,205.5l-1.4-3.1
	c0.7-0.2,1.1-0.8,1.1-1.6v-1.9c0-1-0.7-1.6-1.6-1.6H416v8.2h1.6v-3h1.3l1.3,3H422z M412.2,203.6c0,0.3-0.1,0.4-0.4,0.4h-1.9
	c-0.3,0-0.4-0.1-0.4-0.4v-4.4c0-0.3,0.1-0.4,0.4-0.4h1.9c0.3,0,0.4,0.1,0.4,0.4V203.6z M409.4,197.2c-1,0-1.6,0.7-1.6,1.6v5.1
	c0,1,0.7,1.6,1.6,1.6h2.8c1,0,1.6-0.7,1.6-1.6v-5.1c0-1-0.7-1.6-1.6-1.6H409.4z M400.9,205.5h1.6v-3.4h3v-1.5h-3v-1.8h3.7v-1.5h-5.4
	V205.5z"/>
<path class="st0" d="M491.6,185.1h1.6v-1c0-1-0.7-1.6-1.6-1.6h-2.4c-1,0-1.6,0.7-1.6,1.6v1.4c0,0.9,0.8,1.4,1.6,1.6l2.1,0.5
	c0.3,0.1,0.4,0.1,0.4,0.4v0.9c0,0.3-0.1,0.4-0.4,0.4h-1.8c-0.3,0-0.4-0.1-0.4-0.4v-0.7h-1.6v1c0,1,0.7,1.6,1.6,1.6h2.6
	c1,0,1.6-0.7,1.6-1.6v-1.5c0-0.9-0.8-1.4-1.6-1.6l-2.1-0.5c-0.3-0.1-0.4-0.1-0.4-0.4v-0.8c0-0.3,0.1-0.4,0.4-0.4h1.6
	c0.3,0,0.4,0.1,0.4,0.4V185.1z M480.4,182.6v8.2h5.4v-1.6h-3.7v-1.9h3v-1.6h-3v-1.7h3.7v-1.5L480.4,182.6L480.4,182.6z M478.1,182.6
	h-1.8l-2.1,4.8l-2.1-4.8h-1.8v8.2h1.5v-5.5l1.8,4.2h1.2l1.8-4.2v5.5h1.6V182.6z M466.2,190.8h1.6v-8.2h-1.6V190.8z M464.4,184.1
	v-1.5h-5.9v1.5h2.1v6.7h1.6v-6.7H464.4z M448.4,182.6v8.2h5.4v-1.6h-3.7v-1.9h3v-1.6h-3v-1.7h3.7v-1.5L448.4,182.6L448.4,182.6z
	 M444.7,185.5h1.6v-1.3c0-1-0.7-1.6-1.6-1.6h-2.6c-1,0-1.6,0.7-1.6,1.6v5.1c0,1,0.7,1.6,1.6,1.6h2.6c1,0,1.6-0.7,1.6-1.6v-1.3h-1.6
	v1c0,0.3-0.1,0.4-0.4,0.4h-1.8c-0.3,0-0.4-0.1-0.4-0.4v-4.4c0-0.3,0.1-0.4,0.4-0.4h1.8c0.3,0,0.4,0.1,0.4,0.4V185.5z M436.7,190.8
	h1.6v-8.2h-1.6V190.8z M435,184.1v-1.5H429v1.5h2.1v6.7h1.6v-6.7H435z M426.1,185.5h1.6v-1.3c0-1-0.7-1.6-1.6-1.6h-2.6
	c-1,0-1.6,0.7-1.6,1.6v5.1c0,1,0.7,1.6,1.6,1.6h2.6c1,0,1.6-0.7,1.6-1.6v-1.3h-1.6v1c0,0.3-0.1,0.4-0.4,0.4h-1.8
	c-0.3,0-0.4-0.1-0.4-0.4v-4.4c0-0.3,0.1-0.4,0.4-0.4h1.8c0.3,0,0.4,0.1,0.4,0.4V185.5z M416.9,184.4l0.9,3h-1.8L416.9,184.4z
	 M415.6,189h2.7l0.5,1.8h1.8l-2.6-8.2H416l-2.6,8.2h1.7L415.6,189z M410.3,185.8c0,0.3-0.1,0.4-0.4,0.4h-2.1v-2.1h2.1
	c0.3,0,0.4,0.1,0.4,0.4V185.8z M412.1,190.8l-1.4-3.1c0.7-0.2,1.1-0.8,1.1-1.6v-1.9c0-1-0.7-1.6-1.6-1.6h-4.2v8.2h1.6v-3h1.3l1.3,3
	H412.1z M400,186.4v-2.2h2.1c0.3,0,0.4,0.1,0.4,0.4v1.4c0,0.3-0.1,0.4-0.4,0.4H400z M398.4,182.6v8.2h1.6v-2.9h2.6
	c1,0,1.6-0.7,1.6-1.6v-2.1c0-1-0.7-1.6-1.6-1.6L398.4,182.6L398.4,182.6z"/>
<path class="st0" d="M475,174.6v-5.1h2.2c0.3,0,0.4,0.1,0.4,0.4v4.3c0,0.2-0.1,0.4-0.4,0.4L475,174.6L475,174.6z M473.4,167.9v8.2
	h4.3c1,0,1.6-0.7,1.6-1.6v-5c0-1-0.7-1.6-1.6-1.6H473.4z M466,167.9v8.2h5.4v-1.6h-3.7v-1.9h3v-1.6h-3v-1.7h3.7v-1.6H466z
	 M462.2,171.2c0,0.3-0.1,0.4-0.4,0.4h-2.1v-2.1h2.1c0.3,0,0.4,0.1,0.4,0.4V171.2z M464.1,176.1l-1.4-3.1c0.7-0.2,1.1-0.8,1.1-1.6
	v-1.9c0-1-0.7-1.6-1.6-1.6H458v8.2h1.6v-3h1.3l1.3,3L464.1,176.1L464.1,176.1z M454.2,171.2c0,0.3-0.1,0.4-0.4,0.4h-2.1v-2.1h2.1
	c0.3,0,0.4,0.1,0.4,0.4V171.2z M456.1,176.1l-1.4-3.1c0.7-0.2,1.1-0.8,1.1-1.6v-1.9c0-1-0.7-1.6-1.6-1.6H450v8.2h1.6v-3h1.3l1.3,3
	L456.1,176.1L456.1,176.1z M442.6,167.9v8.2h5.4v-1.6h-3.7v-1.9h3v-1.6h-3v-1.7h3.7v-1.6H442.6z M435.4,176.1h1.6v-3.4h3v-1.6h-3
	v-1.8h3.7v-1.6h-5.4L435.4,176.1L435.4,176.1z M428,167.9v8.2h5.4v-1.6h-3.7v-1.9h3v-1.6h-3v-1.7h3.7v-1.6H428z M424.2,171.2
	c0,0.3-0.1,0.4-0.4,0.4h-2.1v-2.1h2.1c0.3,0,0.4,0.1,0.4,0.4V171.2z M426.1,176.1l-1.4-3.1c0.7-0.2,1.1-0.8,1.1-1.6v-1.9
	c0-1-0.7-1.6-1.6-1.6h-4.2v8.2h1.6v-3h1.3l1.3,3L426.1,176.1L426.1,176.1z M414,171.7v-2.2h2.1c0.3,0,0.4,0.1,0.4,0.4v1.4
	c0,0.2-0.1,0.4-0.4,0.4L414,171.7L414,171.7z M412.3,167.9v8.2h1.6v-2.9h2.6c1,0,1.6-0.7,1.6-1.6v-2.1c0-1-0.7-1.6-1.6-1.6
	L412.3,167.9L412.3,167.9z"/>
<path class="st1" d="M588.7,129.7h-1.8l-2.1,4.8l-2.1-4.8h-1.8v8.2h1.5v-5.5l1.8,4.2h1.2l1.8-4.2v5.5h1.5V129.7z M574.8,133.4v-2.2
	h2.1c0.2,0,0.4,0.1,0.4,0.4v1.4c0,0.3-0.1,0.4-0.4,0.4L574.8,133.4L574.8,133.4z M573.2,129.7v8.2h1.6V135h2.6c1,0,1.6-0.7,1.6-1.6
	v-2.1c0-1-0.7-1.6-1.6-1.6H573.2z M569,137.9h1.6v-8.2h-1.3l-1.8,0.9v1.4l1.5-0.5V137.9z M563.7,137.9h1.6v-8.2h-1.3l-1.8,0.9v1.4
	l1.5-0.5V137.9z M557,133.4h-5.2v1.5h5.2V133.4z M546.1,129.7h-1.8l-2.1,4.8l-2.1-4.8h-1.8v8.2h1.5v-5.5l1.8,4.2h1.2l1.8-4.2v5.5
	h1.5V129.7z M533,131.5l0.9,3h-1.8L533,131.5z M531.7,136h2.7l0.5,1.8h1.8l-2.6-8.2h-1.9l-2.6,8.2h1.7L531.7,136z M527.8,131.2v-1.5
	h-5.4v4.3l1.6,0.5l0.2-0.1c0.4-0.2,0.8-0.3,1.1-0.3h0.6c0.3,0,0.5,0.2,0.5,0.5v1.5c0,0.3-0.2,0.5-0.5,0.5h-1.6
	c-0.3,0-0.5-0.2-0.5-0.5v-0.5h-1.6v0.9c0,0.9,0.7,1.6,1.6,1.6h2.5c0.9,0,1.6-0.7,1.6-1.6v-2.1c0-0.9-0.7-1.6-1.6-1.6h-0.9
	c-0.6,0-1.1,0.4-1.3,0.6l-0.2,0.2v-2.1L527.8,131.2L527.8,131.2z"/>
<path class="st1" d="M605.4,115h-1.8l-2.1,4.8l-2.1-4.8h-1.8v8.2h1.5v-5.5l1.8,4.2h1.2l1.8-4.2v5.5h1.5L605.4,115L605.4,115z
	 M593.7,121.3c0,0.3-0.1,0.4-0.4,0.4h-1.9c-0.3,0-0.4-0.1-0.4-0.4v-4.4c0-0.3,0.1-0.4,0.4-0.4h1.9c0.3,0,0.4,0.1,0.4,0.4V121.3z
	 M591,114.9c-1,0-1.6,0.7-1.6,1.6v5.1c0,1,0.7,1.6,1.6,1.6h2.8c1,0,1.6-0.7,1.6-1.6v-5.1c0-1-0.7-1.6-1.6-1.6H591z M585.8,118.2
	c0,0.3-0.1,0.4-0.4,0.4h-2.1v-2.1h2.1c0.3,0,0.4,0.1,0.4,0.4V118.2z M587.7,123.2l-1.4-3.1c0.7-0.2,1.1-0.8,1.1-1.5v-1.9
	c0-1-0.7-1.6-1.6-1.6h-4.2v8.2h1.6v-3h1.3l1.3,3C585.9,123.2,587.7,123.2,587.7,123.2z M574.4,123.2h1.6v-3.4h3v-1.5h-3v-1.8h3.7
	V115h-5.4V123.2z M567,117.5h1.6v-1c0-1-0.7-1.6-1.6-1.6h-2.4c-1,0-1.6,0.7-1.6,1.6v1.4c0,0.9,0.8,1.4,1.6,1.6l2.1,0.5
	c0.2,0.1,0.4,0.1,0.4,0.4v0.9c0,0.3-0.1,0.4-0.4,0.4h-1.8c-0.2,0-0.4-0.1-0.4-0.4v-0.7h-1.6v1.1c0,1,0.7,1.6,1.6,1.6h2.6
	c1,0,1.6-0.7,1.6-1.6v-1.5c0-0.9-0.8-1.5-1.6-1.6l-2.1-0.5c-0.3-0.1-0.4-0.1-0.4-0.4v-0.8c0-0.3,0.1-0.4,0.4-0.4h1.6
	c0.3,0,0.4,0.1,0.4,0.4L567,117.5L567,117.5z M555.8,115v8.2h5.4v-1.6h-3.7v-1.9h3v-1.6h-3v-1.7h3.7V115L555.8,115L555.8,115z
	 M552.2,117.9h1.6v-1.3c0-1-0.7-1.6-1.6-1.6h-2.6c-1,0-1.6,0.7-1.6,1.6v5.1c0,1,0.7,1.6,1.6,1.6h2.6c1,0,1.6-0.7,1.6-1.6v-1.3h-1.6
	v1c0,0.3-0.1,0.4-0.4,0.4H550c-0.3,0-0.4-0.1-0.4-0.4v-4.4c0-0.3,0.1-0.4,0.4-0.4h1.8c0.3,0,0.4,0.1,0.4,0.4V117.9z M544.1,123.2
	h1.6V115h-1.6V123.2z M542.4,116.5V115h-5.9v1.5h2.1v6.7h1.6v-6.7H542.4z M533.5,117.9h1.6v-1.3c0-1-0.7-1.6-1.6-1.6h-2.6
	c-1,0-1.6,0.7-1.6,1.6v5.1c0,1,0.7,1.6,1.6,1.6h2.6c1,0,1.6-0.7,1.6-1.6v-1.3h-1.6v1c0,0.3-0.1,0.4-0.4,0.4h-1.8
	c-0.3,0-0.4-0.1-0.4-0.4v-4.4c0-0.3,0.1-0.4,0.4-0.4h1.8c0.3,0,0.4,0.1,0.4,0.4V117.9z M524.4,116.8l0.9,3h-1.8L524.4,116.8z
	 M523,121.3h2.7l0.5,1.8h1.8l-2.6-8.2h-1.9l-2.6,8.2h1.7L523,121.3z M517.7,118.2c0,0.3-0.1,0.4-0.4,0.4h-2.1v-2.1h2.1
	c0.3,0,0.4,0.1,0.4,0.4V118.2z M519.6,123.2l-1.4-3.1c0.7-0.2,1.1-0.8,1.1-1.5v-1.9c0-1-0.7-1.6-1.6-1.6h-4.2v8.2h1.6v-3h1.3l1.3,3
	C517.8,123.2,519.6,123.2,519.6,123.2z M507.4,118.8v-2.2h2.1c0.3,0,0.4,0.1,0.4,0.4v1.4c0,0.3-0.1,0.4-0.4,0.4H507.4z M505.8,115
	v8.2h1.6v-2.9h2.6c1,0,1.6-0.7,1.6-1.6v-2.1c0-1-0.7-1.6-1.6-1.6L505.8,115L505.8,115z"/>
<path class="st1" d="M950.7,109.9h1.6v-1c0-1-0.7-1.6-1.6-1.6h-2.4c-1,0-1.6,0.7-1.6,1.6v1.4c0,0.9,0.8,1.5,1.6,1.6l2.1,0.5
	c0.3,0.1,0.4,0.1,0.4,0.4v0.9c0,0.3-0.1,0.4-0.4,0.4h-1.8c-0.3,0-0.4-0.1-0.4-0.4v-0.7h-1.6v1.1c0,1,0.7,1.6,1.6,1.6h2.6
	c1,0,1.6-0.7,1.6-1.6v-1.5c0-0.9-0.8-1.4-1.6-1.6l-2.1-0.5c-0.3-0.1-0.4-0.1-0.4-0.4v-0.8c0-0.3,0.1-0.4,0.4-0.4h1.6
	c0.3,0,0.4,0.1,0.4,0.4L950.7,109.9L950.7,109.9z M942.9,107.3v5.6l-3-5.6h-1.8v8.2h1.5v-5.6l3,5.6h1.8v-8.2H942.9z M934.3,113.7
	c0,0.3-0.1,0.4-0.4,0.4H932c-0.3,0-0.4-0.1-0.4-0.4v-4.4c0-0.3,0.1-0.4,0.4-0.4h1.9c0.3,0,0.4,0.1,0.4,0.4V113.7z M931.6,107.3
	c-1,0-1.6,0.7-1.6,1.6v5.1c0,1,0.7,1.6,1.6,1.6h2.8c1,0,1.6-0.7,1.6-1.6v-5.1c0-1-0.7-1.6-1.6-1.6H931.6z M926.1,115.6h1.6v-8.2
	h-1.6V115.6z M924.4,108.9v-1.5h-5.9v1.5h2.1v6.7h1.6v-6.7H924.4z M914.5,109.1l0.9,3h-1.8L914.5,109.1z M913.2,113.7h2.7l0.5,1.8
	h1.8l-2.6-8.2h-1.9l-2.6,8.2h1.7L913.2,113.7z M904.8,107.3v8.2h5.1V114h-3.4v-6.7C906.4,107.3,904.8,107.3,904.8,107.3z
	 M900.9,113.7c0,0.3-0.1,0.4-0.4,0.4h-1.9c-0.3,0-0.4-0.1-0.4-0.4v-4.4c0-0.3,0.1-0.4,0.4-0.4h1.9c0.3,0,0.4,0.1,0.4,0.4V113.7z
	 M898.2,107.3c-1,0-1.6,0.7-1.6,1.6v5.1c0,1,0.7,1.6,1.6,1.6h2.8c1,0,1.6-0.7,1.6-1.6v-5.1c0-1-0.7-1.6-1.6-1.6H898.2z M892.8,115.6
	h1.6v-8.2h-1.6V115.6z M891.1,107.3h-1.8l-1.6,6.2l-1.6-6.2h-1.9l2.5,8.2h1.9L891.1,107.3z"/>
<path class="st1" d="M962.6,92.7v8.2h5.4v-1.6h-3.7v-1.9h3v-1.6h-3v-1.7h3.7v-1.5C968,92.7,962.6,92.7,962.6,92.7z M956.2,99.3v-5.1
	h2.2c0.3,0,0.4,0.1,0.4,0.4v4.3c0,0.3-0.1,0.4-0.4,0.4L956.2,99.3L956.2,99.3z M954.6,92.7v8.2h4.3c1,0,1.6-0.7,1.6-1.6v-5
	c0-1-0.7-1.6-1.6-1.6H954.6z M950.7,99c0,0.3-0.1,0.4-0.4,0.4h-1.9c-0.3,0-0.4-0.1-0.4-0.4v-4.4c0-0.3,0.1-0.4,0.4-0.4h1.9
	c0.3,0,0.4,0.1,0.4,0.4V99z M948,92.6c-1,0-1.6,0.7-1.6,1.6v5.1c0,1,0.7,1.6,1.6,1.6h2.8c1,0,1.6-0.7,1.6-1.6v-5.1
	c0-1-0.7-1.6-1.6-1.6H948z M942.9,95.6h1.6v-1.3c0-1-0.7-1.6-1.6-1.6h-2.6c-1,0-1.6,0.7-1.6,1.6v5.1c0,1,0.7,1.6,1.6,1.6h2.6
	c1,0,1.6-0.7,1.6-1.6V98h-1.6v1c0,0.3-0.1,0.4-0.4,0.4h-1.8c-0.3,0-0.4-0.1-0.4-0.4v-4.4c0-0.3,0.1-0.4,0.4-0.4h1.8
	c0.3,0,0.4,0.1,0.4,0.4V95.6z M931.5,95.2h1.6v-1c0-1-0.7-1.6-1.6-1.6H929c-1,0-1.6,0.7-1.6,1.6v1.4c0,0.9,0.8,1.5,1.6,1.6l2.1,0.5
	c0.3,0.1,0.4,0.1,0.4,0.4V99c0,0.3-0.1,0.4-0.4,0.4h-1.8c-0.2,0-0.4-0.1-0.4-0.4v-0.7h-1.6v1.1c0,1,0.7,1.6,1.6,1.6h2.6
	c1,0,1.6-0.7,1.6-1.6v-1.5c0-0.9-0.8-1.5-1.6-1.6l-2.1-0.5c-0.3-0.1-0.4-0.1-0.4-0.4v-0.8c0-0.3,0.1-0.4,0.4-0.4h1.6
	c0.3,0,0.4,0.1,0.4,0.4L931.5,95.2L931.5,95.2z M925.4,92.7h-1.6V99c0,0.3-0.1,0.4-0.4,0.4h-1.8c-0.3,0-0.4-0.1-0.4-0.4v-6.3h-1.6
	v6.6c0,1,0.7,1.6,1.6,1.6h2.6c1,0,1.6-0.7,1.6-1.6L925.4,92.7L925.4,92.7z M915.8,99c0,0.3-0.1,0.4-0.4,0.4h-1.9
	c-0.3,0-0.4-0.1-0.4-0.4v-4.4c0-0.3,0.1-0.4,0.4-0.4h1.9c0.3,0,0.4,0.1,0.4,0.4L915.8,99L915.8,99z M913.1,92.6
	c-1,0-1.6,0.7-1.6,1.6v5.1c0,1,0.7,1.6,1.6,1.6h2.8c1,0,1.6-0.7,1.6-1.6v-5.1c0-1-0.7-1.6-1.6-1.6H913.1z M907.8,95.9
	c0,0.3-0.1,0.4-0.4,0.4h-2.1v-2.1h2.1c0.3,0,0.4,0.1,0.4,0.4V95.9z M909.7,100.9l-1.4-3.1c0.7-0.2,1.1-0.8,1.1-1.5v-1.9
	c0-1-0.7-1.6-1.6-1.6h-4.2v8.2h1.6v-3h1.3l1.3,3C908,100.9,909.7,100.9,909.7,100.9z M896.3,92.7v8.2h5.4v-1.6h-3.7v-1.9h3v-1.6h-3
	v-1.7h3.7v-1.5C901.7,92.7,896.3,92.7,896.3,92.7z M893.9,92.7h-1.8l-2.1,4.8l-2.1-4.8h-1.8v8.2h1.5v-5.5l1.8,4.2h1.2l1.8-4.2v5.5
	h1.5L893.9,92.7L893.9,92.7z M883.8,92.7h-1.6V99c0,0.3-0.1,0.4-0.4,0.4H880c-0.3,0-0.4-0.1-0.4-0.4v-6.3H878v6.6
	c0,1,0.7,1.6,1.6,1.6h2.6c1,0,1.6-0.7,1.6-1.6L883.8,92.7L883.8,92.7z M874.2,92.7v5.6l-3-5.6h-1.8v8.2h1.5v-5.6l3,5.6h1.8v-8.2
	H874.2z"/>
<path class="st0" d="M843,202.3v8.2h5.4v-1.6h-3.7v-1.9h3v-1.6h-3v-1.7h3.7v-1.6H843z M836.5,208.9v-5.1h2.2c0.3,0,0.4,0.1,0.4,0.4
	v4.3c0,0.3-0.1,0.4-0.4,0.4L836.5,208.9L836.5,208.9z M834.9,202.3v8.2h4.3c1,0,1.6-0.7,1.6-1.6v-5c0-1-0.7-1.6-1.6-1.6H834.9z
	 M831.1,208.6c0,0.2-0.1,0.4-0.4,0.4h-1.9c-0.3,0-0.4-0.1-0.4-0.4v-4.4c0-0.3,0.1-0.4,0.4-0.4h1.9c0.2,0,0.4,0.1,0.4,0.4V208.6z
	 M828.3,202.2c-1,0-1.6,0.7-1.6,1.6v5.1c0,1,0.7,1.6,1.6,1.6h2.8c1,0,1.6-0.7,1.6-1.6v-5.1c0-1-0.7-1.6-1.6-1.6H828.3z M823.2,205.2
	h1.6v-1.3c0-1-0.7-1.6-1.6-1.6h-2.6c-1,0-1.6,0.7-1.6,1.6v5.1c0,1,0.7,1.6,1.6,1.6h2.6c1,0,1.6-0.7,1.6-1.6v-1.3h-1.6v1
	c0,0.2-0.1,0.4-0.4,0.4h-1.8c-0.3,0-0.4-0.1-0.4-0.4v-4.4c0-0.3,0.1-0.4,0.4-0.4h1.8c0.3,0,0.4,0.1,0.4,0.4V205.2z"/>
<path class="st0" d="M858.8,190.2h1.6v-1.1c0-1-0.7-1.6-1.6-1.6h-2.7c-1,0-1.6,0.7-1.6,1.6v5.1c0,1,0.7,1.6,1.6,1.6h2.7
	c1,0,1.6-0.7,1.6-1.6v-3h-3.1v1.5h1.5v1.2c0,0.3-0.1,0.4-0.4,0.4h-1.9c-0.3,0-0.4-0.1-0.4-0.4v-4.4c0-0.3,0.1-0.4,0.4-0.4h1.9
	c0.3,0,0.4,0.1,0.4,0.4L858.8,190.2L858.8,190.2z M850.8,187.6v5.6l-3-5.6H846v8.2h1.5v-5.6l3,5.6h1.8v-8.2H850.8z M842,195.8h1.6
	v-8.2H842V195.8z M835.5,194.3v-5.1h2.2c0.3,0,0.4,0.1,0.4,0.4v4.3c0,0.3-0.1,0.4-0.4,0.4L835.5,194.3L835.5,194.3z M833.9,187.6
	v8.2h4.3c1,0,1.6-0.7,1.6-1.6v-5c0-1-0.7-1.6-1.6-1.6L833.9,187.6L833.9,187.6z M827,187.6v8.2h5.1v-1.6h-3.4v-6.7H827z M823,195.8
	h1.6v-8.2H823V195.8z M820.7,187.6h-1.6v6.3c0,0.3-0.1,0.4-0.4,0.4h-1.8c-0.3,0-0.4-0.1-0.4-0.4v-6.3h-1.6v6.6c0,1,0.7,1.6,1.6,1.6
	h2.6c1,0,1.6-0.7,1.6-1.6L820.7,187.6L820.7,187.6z M808.6,194.3v-1.9h2.1c0.3,0,0.5,0,0.5,0.4v1.2c0,0.3-0.1,0.4-0.4,0.4H808.6z
	 M808.6,190.9v-1.8h2.1c0.3,0,0.4,0.1,0.4,0.4v1c0,0.3-0.1,0.4-0.4,0.4L808.6,190.9L808.6,190.9z M807,187.6v8.2h4.2
	c1,0,1.6-0.7,1.6-1.6v-1.3c0-0.5-0.2-1-0.8-1.2c0.5-0.3,0.7-0.7,0.7-1.2v-1.2c0-1-0.7-1.6-1.6-1.6L807,187.6L807,187.6z"/>
<path class="st0" d="M847.9,179.3c0,0.3-0.1,0.4-0.4,0.4h-1.9c-0.3,0-0.4-0.1-0.4-0.4v-4.4c0-0.3,0.1-0.4,0.4-0.4h1.9
	c0.2,0,0.4,0.1,0.4,0.4V179.3z M845.2,172.9c-1,0-1.6,0.7-1.6,1.6v5.1c0,1,0.7,1.6,1.6,1.6h2.8c1,0,1.6-0.7,1.6-1.6v-5.1
	c0-1-0.7-1.6-1.6-1.6H845.2z M842.2,174.5v-1.5h-5.9v1.5h2.1v6.7h1.6v-6.7H842.2z M827.5,176.7v-2.2h2.1c0.3,0,0.4,0.1,0.4,0.4v1.4
	c0,0.3-0.1,0.4-0.4,0.4H827.5z M825.8,172.9v8.2h1.6v-2.9h2.6c1,0,1.6-0.7,1.6-1.6v-2.1c0-1-0.7-1.6-1.6-1.6L825.8,172.9
	L825.8,172.9z M823.6,172.9h-1.6v6.3c0,0.3-0.1,0.4-0.4,0.4h-1.8c-0.3,0-0.4-0.1-0.4-0.4v-6.3h-1.6v6.6c0,1,0.7,1.6,1.6,1.6h2.6
	c1,0,1.6-0.7,1.6-1.6L823.6,172.9L823.6,172.9z"/>
<line class="st2" x1="103.7" y1="217.9" x2="103.7" y2="307.3"/>
<line class="st2" x1="283.6" y1="238.7" x2="283.6" y2="268.6"/>
<line class="st2" x1="445.7" y1="219.8" x2="445.7" y2="259.4"/>
<line class="st2" x1="653.1" y1="97.1" x2="653.1" y2="284.2"/>
<line class="st2" x1="833.6" y1="224" x2="833.6" y2="291.1"/>
<line class="st3" x1="209.3" y1="138.2" x2="209.3" y2="274.8"/>
<g>
	<path class="st1" d="M375.8,129.2h1.6v-1c0-1-0.7-1.6-1.6-1.6h-2.4c-1,0-1.6,0.7-1.6,1.6v1.4c0,0.9,0.8,1.4,1.6,1.6l2.1,0.5
		c0.3,0.1,0.4,0.1,0.4,0.4v0.9c0,0.3-0.1,0.4-0.4,0.4h-1.8c-0.3,0-0.4-0.1-0.4-0.4v-0.7h-1.6v1c0,1,0.7,1.6,1.6,1.6h2.6
		c1,0,1.6-0.7,1.6-1.6v-1.5c0-0.9-0.8-1.4-1.6-1.6l-2.1-0.5c-0.3-0.1-0.4-0.1-0.4-0.4v-0.8c0-0.3,0.1-0.4,0.4-0.4h1.6
		c0.3,0,0.4,0.1,0.4,0.4L375.8,129.2L375.8,129.2z M370.3,128.2v-1.5h-5.9v1.5h2.1v6.7h1.6v-6.7H370.3z M361.3,129.9
		c0,0.3-0.1,0.4-0.4,0.4h-2.1v-2.1h2.1c0.2,0,0.4,0.1,0.4,0.4V129.9z M363.2,134.9l-1.4-3.1c0.7-0.2,1.1-0.8,1.1-1.6v-1.9
		c0-1-0.7-1.6-1.6-1.6h-4.2v8.2h1.6v-3h1.3l1.3,3L363.2,134.9L363.2,134.9z M353.3,133c0,0.3-0.1,0.4-0.4,0.4H351
		c-0.3,0-0.4-0.1-0.4-0.4v-4.4c0-0.3,0.1-0.4,0.4-0.4h1.9c0.3,0,0.4,0.1,0.4,0.4V133z M350.5,126.6c-1,0-1.6,0.7-1.6,1.6v5.1
		c0,1,0.7,1.6,1.6,1.6h2.8c1,0,1.6-0.7,1.6-1.6v-5.1c0-1-0.7-1.6-1.6-1.6C353.3,126.6,350.5,126.6,350.5,126.6z M343.1,130.4v-2.2
		h2.1c0.3,0,0.4,0.1,0.4,0.4v1.4c0,0.2-0.1,0.4-0.4,0.4H343.1z M341.4,126.7v8.2h1.6V132h2.6c1,0,1.6-0.7,1.6-1.6v-2.1
		c0-1-0.7-1.6-1.6-1.6L341.4,126.7L341.4,126.7z M337.5,129.2h1.6v-1c0-1-0.7-1.6-1.6-1.6h-2.4c-1,0-1.6,0.7-1.6,1.6v1.4
		c0,0.9,0.8,1.4,1.6,1.6l2.1,0.5c0.3,0.1,0.4,0.1,0.4,0.4v0.9c0,0.3-0.1,0.4-0.4,0.4h-1.8c-0.3,0-0.4-0.1-0.4-0.4v-0.7h-1.6v1
		c0,1,0.7,1.6,1.6,1.6h2.6c1,0,1.6-0.7,1.6-1.6v-1.5c0-0.9-0.8-1.4-1.6-1.6l-2.1-0.5c-0.3-0.1-0.4-0.1-0.4-0.4v-0.8
		c0-0.3,0.1-0.4,0.4-0.4h1.6c0.3,0,0.4,0.1,0.4,0.4L337.5,129.2L337.5,129.2z"/>
	<path class="st1" d="M365,113.1v-6.9h-2.5c-1.3,0-2-0.7-2-2v-1.7h-7.3v3.3c0,4,3.2,7.3,7.3,7.3L365,113.1L365,113.1z M366.5,106.2
		v6.9h4.6c4,0,7.3-3.2,7.3-7.3V83.6c0-4-3.2-7.3-7.3-7.3h-4.8v6.9h2.8c1.3,0,2,0.7,2,2v5.5l-1,0.6c-1.8,1.1-3.6,1.4-5.1,1.4h-3
		c-1.3,0-2-0.7-2-2v-5.5c0-1.3,0.7-2,2-2h2.7v-6.9H360c-4,0-7.3,3.2-7.3,7.3v8.3c0,4,3.2,7.3,7.3,7.3h4.3c2.7,0,4.6-1.7,5.8-2.8l1-1
		v8.8c0,1.3-0.7,2-2,2L366.5,106.2L366.5,106.2z M338.2,112.9h7.3V76.5h-5.8l-8.1,3.8v6.1l6.6-2.3L338.2,112.9L338.2,112.9z"/>
</g>
<line class="st3" x1="355.5" y1="148.6" x2="355.5" y2="271.8"/>
<line class="st3" x1="555.6" y1="151.7" x2="555.6" y2="276.4"/>
<line class="st3" x1="736.6" y1="229.4" x2="736.6" y2="291.1"/>
<g>
	<line class="st3" x1="918.5" y1="129.4" x2="918.5" y2="340.5"/>
</g>
<rect x="146.4" y="2.6" class="st1" width="14.5" height="14.5"/>
<rect x="39.1" y="2.6" class="st0" width="14.5" height="14.5"/>
<g>
	<path d="M178.8,5.1h1.3v10.4h-1.3V5.1z"/>
	<path d="M182.6,7.9h1.1l0.1,0.9h0.1c0.4-0.2,0.8-0.3,1.1-0.5c0.3-0.1,0.6-0.2,0.9-0.3s0.5-0.1,0.8-0.2c0.2,0,0.5-0.1,0.7-0.1
		c0.7,0,1.2,0.2,1.6,0.5c0.4,0.3,0.6,0.9,0.6,1.6v5.6h-1.3v-5.1c0-0.5-0.1-0.9-0.3-1.2c-0.2-0.2-0.5-0.4-1-0.4
		c-0.4,0-0.8,0.1-1.3,0.2c-0.5,0.2-1.1,0.4-1.6,0.6v5.8h-1.3V7.9z"/>
	<path d="M194.6,14.1c0-0.5,0.1-0.9,0.2-1.2c0.1-0.4,0.3-0.7,0.6-1c0.3-0.3,0.6-0.6,1-0.8c0.4-0.3,0.8-0.5,1.4-0.8
		c0.8-0.4,1.3-0.8,1.7-1.1s0.5-0.8,0.5-1.2c0-0.6-0.2-1.1-0.5-1.3c-0.4-0.3-0.9-0.4-1.7-0.4c-0.4,0-0.9,0-1.3,0.1
		c-0.5,0.1-0.9,0.2-1.4,0.3L195,5.3c0.6-0.1,1.2-0.2,1.7-0.3c0.5-0.1,1-0.1,1.4-0.1c1.1,0,2,0.2,2.5,0.7c0.5,0.5,0.8,1.2,0.8,2.1
		c0,0.4-0.1,0.7-0.2,1c-0.1,0.3-0.3,0.6-0.5,0.8c-0.2,0.3-0.5,0.5-0.8,0.7c-0.3,0.2-0.7,0.5-1.2,0.7c-0.9,0.5-1.5,0.9-2,1.3
		c-0.5,0.4-0.7,0.9-0.7,1.4v0.6h5.4v1.1h-6.7V14.1z"/>
	<path d="M207.1,15.6c-1.3,0-2.4-0.4-3.1-1.3c-0.7-0.9-1.1-2.2-1.1-4c0-1.8,0.4-3.1,1.1-4c0.7-0.9,1.7-1.3,3.1-1.3
		c1.3,0,2.4,0.4,3.1,1.3c0.7,0.9,1,2.2,1,4c0,1.8-0.3,3.1-1,4C209.5,15.2,208.5,15.6,207.1,15.6z M207.1,14.5c0.9,0,1.6-0.3,2.1-1
		c0.5-0.7,0.7-1.8,0.7-3.2c0-1.5-0.2-2.5-0.7-3.2s-1.2-1-2.1-1c-1,0-1.7,0.3-2.1,1s-0.7,1.8-0.7,3.2c0,1.4,0.2,2.5,0.7,3.2
		C205.5,14.2,206.2,14.5,207.1,14.5z"/>
	<path d="M215.3,6.6L215.3,6.6l-2.7,1.2h-0.1L212.4,7V6.9l3.2-1.8h1v10.4h-1.3V6.6z"/>
	<path d="M221.2,15.6c-0.4,0-0.8,0-1.2-0.1c-0.4,0-0.8-0.1-1.2-0.2v-1h0.3c0.4,0.1,0.7,0.1,1,0.1s0.6,0,1,0c1,0,1.7-0.2,2.2-0.5
		c0.5-0.3,0.7-0.9,0.7-1.7c0-0.4-0.1-0.6-0.2-0.9c-0.1-0.2-0.4-0.4-0.7-0.6c-0.3-0.1-0.7-0.2-1.1-0.3c-0.5-0.1-1-0.1-1.6-0.1l-1.1,0
		l-0.1-0.1l0.4-5.2h5.4v1.1h-4.4l-0.2,3.2c0.9,0,1.6,0.1,2.3,0.2c0.6,0.1,1.2,0.3,1.6,0.5s0.7,0.5,0.9,0.9c0.2,0.4,0.3,0.9,0.3,1.4
		c0,0.6-0.1,1.1-0.3,1.5c-0.2,0.4-0.5,0.7-0.9,1c-0.4,0.3-0.8,0.4-1.3,0.5C222.4,15.5,221.8,15.6,221.2,15.6z"/>
	<path d="M226.6,17.5l0.6-3.5h1.3l-1,3.7L226.6,17.5z"/>
	<path d="M237.3,15.6c-0.5,0-1,0-1.5-0.1c-0.5,0-1.1-0.1-1.8-0.2V4.1h1.3v4.6c0.6-0.7,1.5-1,2.5-1s1.9,0.3,2.5,0.9
		c0.6,0.6,0.9,1.6,0.9,2.9c0,0.7-0.1,1.3-0.3,1.8c-0.2,0.5-0.5,0.9-0.8,1.2c-0.3,0.3-0.8,0.6-1.2,0.7
		C238.5,15.5,237.9,15.6,237.3,15.6z M237.3,14.6c0.9,0,1.5-0.2,2-0.7c0.4-0.4,0.7-1.2,0.7-2.3c0-1-0.2-1.8-0.6-2.2
		c-0.4-0.4-1-0.7-1.8-0.7c-0.3,0-0.6,0-0.9,0.1c-0.3,0.1-0.5,0.2-0.7,0.3c-0.2,0.1-0.4,0.3-0.5,0.5c-0.1,0.2-0.2,0.4-0.2,0.7v4.1
		c0.2,0,0.5,0.1,0.9,0.1C236.6,14.6,236.9,14.6,237.3,14.6z"/>
	<path d="M246.4,15.6c-2.5,0-3.7-1.3-3.7-3.8c0-1.3,0.3-2.3,0.9-3c0.6-0.7,1.5-1,2.7-1c2.1,0,3.1,1.1,3.1,3.4c0,0.2,0,0.4,0,0.6
		c0,0.2,0,0.3-0.1,0.4H244c0.1,0.9,0.3,1.5,0.7,1.8c0.4,0.4,1,0.6,1.9,0.6c0.4,0,0.8,0,1.2-0.1c0.4-0.1,0.8-0.2,1.2-0.3l0.1,1
		c-0.4,0.1-0.8,0.2-1.3,0.3C247.3,15.5,246.8,15.6,246.4,15.6z M246.2,8.7c-1.4,0-2.2,0.8-2.3,2.5h4.2c0-0.9-0.2-1.5-0.5-1.9
		S246.9,8.7,246.2,8.7z"/>
	<path d="M252,9h-1.8V7.9h1.8V7.6c0-0.7,0.1-1.3,0.2-1.7c0.1-0.4,0.3-0.8,0.6-1.1c0.3-0.3,0.7-0.4,1.2-0.6c0.5-0.1,1.1-0.2,1.9-0.2
		l0.1,0.9c-0.5,0-1,0.1-1.3,0.2c-0.3,0.1-0.6,0.2-0.8,0.3c-0.2,0.2-0.3,0.4-0.4,0.6c-0.1,0.3-0.1,0.6-0.1,1.1v0.7h2.2V9h-2.2v6.4
		H252V9z"/>
	<path d="M260,15.6c-1.2,0-2.1-0.3-2.8-1c-0.6-0.7-1-1.6-1-2.9c0-1.3,0.3-2.2,1-2.9c0.6-0.7,1.6-1,2.8-1c1.2,0,2.1,0.3,2.7,1
		s1,1.6,1,2.9c0,1.3-0.3,2.2-1,2.9C262.1,15.3,261.1,15.6,260,15.6z M260,14.6c0.8,0,1.4-0.2,1.8-0.7c0.4-0.5,0.6-1.2,0.6-2.2
		s-0.2-1.7-0.6-2.2s-1-0.7-1.8-0.7c-0.8,0-1.4,0.2-1.8,0.7s-0.6,1.2-0.6,2.2s0.2,1.7,0.6,2.2C258.5,14.3,259.1,14.6,260,14.6z"/>
	<path d="M265.5,7.9h1.1l0.1,1.1h0.1c0.6-0.3,1.2-0.6,1.6-0.8c0.4-0.2,0.9-0.3,1.3-0.4h0.4v1.2h-0.4c-0.4,0-0.9,0.2-1.4,0.3
		c-0.5,0.2-1,0.4-1.5,0.6v5.6h-1.3V7.9z"/>
	<path d="M274.2,15.6c-2.5,0-3.7-1.3-3.7-3.8c0-1.3,0.3-2.3,0.9-3c0.6-0.7,1.5-1,2.7-1c2.1,0,3.1,1.1,3.1,3.4c0,0.2,0,0.4,0,0.6
		c0,0.2,0,0.3-0.1,0.4h-5.3c0.1,0.9,0.3,1.5,0.7,1.8c0.4,0.4,1,0.6,1.9,0.6c0.4,0,0.8,0,1.2-0.1c0.4-0.1,0.8-0.2,1.2-0.3l0.1,1
		c-0.4,0.1-0.8,0.2-1.3,0.3C275.1,15.5,274.7,15.6,274.2,15.6z M274.1,8.7c-1.4,0-2.2,0.8-2.3,2.5h4.2c0-0.9-0.2-1.5-0.5-1.9
		S274.8,8.7,274.1,8.7z"/>
	<path d="M285.8,15.6c-2.5,0-3.7-1.3-3.7-3.8c0-1.3,0.3-2.3,0.9-3c0.6-0.7,1.5-1,2.7-1c2.1,0,3.1,1.1,3.1,3.4c0,0.2,0,0.4,0,0.6
		c0,0.2,0,0.3-0.1,0.4h-5.3c0.1,0.9,0.3,1.5,0.7,1.8c0.4,0.4,1,0.6,1.9,0.6c0.4,0,0.8,0,1.2-0.1c0.4-0.1,0.8-0.2,1.2-0.3l0.1,1
		c-0.4,0.1-0.8,0.2-1.3,0.3C286.7,15.5,286.2,15.6,285.8,15.6z M285.6,8.7c-1.4,0-2.2,0.8-2.3,2.5h4.2c0-0.9-0.2-1.5-0.5-1.9
		S286.3,8.7,285.6,8.7z"/>
	<path d="M289.6,15.3l3-3.7L289.8,8V7.9h1.4l1.8,2.2l0.5,0.7h0.1l0.5-0.7l1.7-2.2h1.4V8l-2.9,3.6l3,3.7v0.2H296l-1.9-2.4l-0.6-0.9
		h-0.1l-0.6,0.9l-1.9,2.4h-1.3V15.3z"/>
	<path d="M298.7,7.9h1.1l0.1,0.9h0.1c0.6-0.7,1.4-1.1,2.5-1.1c1.1,0,1.9,0.3,2.5,0.9c0.6,0.6,0.9,1.6,0.9,2.9c0,0.7-0.1,1.3-0.3,1.8
		c-0.2,0.5-0.5,0.9-0.8,1.2c-0.3,0.3-0.8,0.6-1.2,0.7c-0.5,0.2-1,0.2-1.6,0.2c-0.4,0-0.7,0-1.1,0c-0.3,0-0.6-0.1-0.9-0.1v3.1h-1.3
		V7.9z M302,14.6c0.8,0,1.5-0.2,1.9-0.7c0.4-0.4,0.7-1.2,0.7-2.3c0-1-0.2-1.8-0.6-2.2c-0.4-0.4-1-0.7-1.8-0.7c-0.3,0-0.6,0-0.9,0.1
		c-0.3,0.1-0.5,0.2-0.7,0.3c-0.2,0.1-0.4,0.3-0.5,0.5c-0.1,0.2-0.2,0.4-0.2,0.7v4c0.2,0,0.5,0.1,0.9,0.1
		C301.2,14.6,301.6,14.6,302,14.6z"/>
	<path d="M309.3,15.5c-1.4,0-2.1-0.7-2.1-2c0-0.7,0.2-1.3,0.7-1.7c0.5-0.4,1.2-0.6,2.3-0.7l2-0.2v-0.5c0-0.3,0-0.6-0.1-0.8
		s-0.2-0.4-0.3-0.5s-0.4-0.2-0.6-0.3c-0.3-0.1-0.6-0.1-1-0.1c-0.3,0-0.7,0-1.1,0.1c-0.4,0-0.8,0.1-1.3,0.2l-0.1-1
		c0.5-0.1,1-0.2,1.4-0.2c0.4,0,0.9-0.1,1.3-0.1c1,0,1.8,0.2,2.3,0.6c0.5,0.4,0.7,1,0.7,1.9v5.1h-1.1l-0.1-1h-0.1
		C311.1,15.2,310.2,15.5,309.3,15.5z M309.8,14.5c0.4,0,0.7-0.1,1.1-0.2c0.4-0.1,0.8-0.4,1.2-0.6v-1.9l-1.6,0.1
		c-0.4,0-0.7,0.1-1,0.2s-0.5,0.2-0.6,0.3s-0.3,0.3-0.3,0.4c-0.1,0.2-0.1,0.4-0.1,0.6c0,0.4,0.1,0.7,0.3,0.9S309.3,14.5,309.8,14.5z"
		/>
	<path d="M315.6,7.9h1.1l0.1,0.9h0.1c0.4-0.2,0.8-0.3,1.1-0.5c0.3-0.1,0.6-0.2,0.9-0.3s0.5-0.1,0.8-0.2c0.2,0,0.5-0.1,0.7-0.1
		c0.7,0,1.2,0.2,1.6,0.5c0.4,0.3,0.6,0.9,0.6,1.6v5.6h-1.3v-5.1c0-0.5-0.1-0.9-0.3-1.2c-0.2-0.2-0.5-0.4-1-0.4
		c-0.4,0-0.8,0.1-1.3,0.2c-0.5,0.2-1.1,0.4-1.6,0.6v5.8h-1.3V7.9z"/>
	<path d="M327,15.6c-0.4,0-0.7,0-1.2-0.1c-0.4-0.1-1-0.1-1.6-0.3v-1c0.5,0.1,1,0.2,1.4,0.3c0.4,0.1,0.9,0.1,1.3,0.1
		c1.2,0,1.8-0.4,1.8-1.2c0-0.2,0-0.4-0.1-0.6s-0.2-0.3-0.4-0.4c-0.2-0.1-0.3-0.2-0.5-0.2c-0.2-0.1-0.4-0.1-0.7-0.2
		c-0.3-0.1-0.6-0.1-0.9-0.2s-0.6-0.2-0.9-0.3c-0.3-0.2-0.5-0.4-0.6-0.6c-0.2-0.3-0.3-0.6-0.3-1.1c0-0.7,0.3-1.2,0.8-1.6
		s1.3-0.6,2.2-0.6c0.2,0,0.3,0,0.5,0c0.2,0,0.3,0,0.5,0c0.2,0,0.4,0.1,0.6,0.1c0.2,0,0.5,0.1,0.8,0.1l-0.1,1.1
		c-0.5-0.1-0.9-0.2-1.3-0.2c-0.4-0.1-0.7-0.1-1-0.1c-0.6,0-1,0.1-1.3,0.3c-0.3,0.2-0.4,0.5-0.4,0.8c0,0.2,0,0.4,0.1,0.5
		c0.1,0.1,0.2,0.3,0.4,0.3c0.2,0.1,0.4,0.2,0.6,0.2s0.5,0.1,0.8,0.2c0.3,0.1,0.7,0.1,1,0.2c0.3,0.1,0.6,0.2,0.8,0.4s0.4,0.4,0.5,0.6
		c0.1,0.3,0.2,0.6,0.2,1c0,0.7-0.3,1.3-0.8,1.7S327.9,15.6,327,15.6z"/>
	<path d="M332.3,6.4c-0.5,0-0.8-0.3-0.8-0.8c0-0.5,0.3-0.8,0.8-0.8c0.5,0,0.8,0.3,0.8,0.8C333.1,6.1,332.9,6.4,332.3,6.4z
		 M331.7,7.9h1.3v7.6h-1.3V7.9z"/>
	<path d="M338.5,15.6c-1.2,0-2.1-0.3-2.8-1c-0.6-0.7-1-1.6-1-2.9c0-1.3,0.3-2.2,1-2.9c0.6-0.7,1.6-1,2.8-1c1.2,0,2.1,0.3,2.7,1
		s1,1.6,1,2.9c0,1.3-0.3,2.2-1,2.9C340.6,15.3,339.7,15.6,338.5,15.6z M338.5,14.6c0.8,0,1.4-0.2,1.8-0.7c0.4-0.5,0.6-1.2,0.6-2.2
		s-0.2-1.7-0.6-2.2s-1-0.7-1.8-0.7c-0.8,0-1.4,0.2-1.8,0.7s-0.6,1.2-0.6,2.2s0.2,1.7,0.6,2.2C337.1,14.3,337.7,14.6,338.5,14.6z"/>
	<path d="M344.1,7.9h1.1l0.1,0.9h0.1c0.4-0.2,0.8-0.3,1.1-0.5c0.3-0.1,0.6-0.2,0.9-0.3s0.5-0.1,0.8-0.2c0.2,0,0.5-0.1,0.7-0.1
		c0.7,0,1.2,0.2,1.6,0.5c0.4,0.3,0.6,0.9,0.6,1.6v5.6h-1.3v-5.1c0-0.5-0.1-0.9-0.3-1.2c-0.2-0.2-0.5-0.4-1-0.4
		c-0.4,0-0.8,0.1-1.3,0.2c-0.5,0.2-1.1,0.4-1.6,0.6v5.8h-1.3V7.9z"/>
</g>
<g>
	<path d="M70.8,5.1h1.3v10.4h-1.3V5.1z"/>
	<path d="M74.6,7.9h1.1l0.1,0.9h0.1c0.4-0.2,0.8-0.3,1.1-0.5c0.3-0.1,0.6-0.2,0.9-0.3s0.5-0.1,0.8-0.2c0.2,0,0.5-0.1,0.7-0.1
		c0.7,0,1.2,0.2,1.6,0.5c0.4,0.3,0.6,0.9,0.6,1.6v5.6h-1.3v-5.1c0-0.5-0.1-0.9-0.3-1.2c-0.2-0.2-0.5-0.4-1-0.4
		c-0.4,0-0.8,0.1-1.3,0.2c-0.5,0.2-1.1,0.4-1.6,0.6v5.8h-1.3V7.9z"/>
	<path d="M89.2,6.6L89.2,6.6l-2.7,1.2h-0.1L86.3,7V6.9l3.2-1.8h1v10.4h-1.3V6.6z"/>
	<path d="M96.3,4.9c1.3,0,2.3,0.4,3,1.2c0.7,0.8,1,2,1,3.6c0,0.9-0.1,1.8-0.3,2.5s-0.6,1.4-1,1.9c-0.4,0.5-1,0.9-1.6,1.1
		c-0.6,0.3-1.4,0.4-2.2,0.4c-0.3,0-0.6,0-0.9-0.1c-0.3,0-0.7-0.1-1-0.2l0.1-1c0.4,0.1,0.7,0.1,1,0.2c0.3,0,0.6,0.1,0.9,0.1
		c1.2,0,2.1-0.4,2.7-1.1c0.6-0.7,1-1.7,1.1-3.1c-0.4,0.3-0.9,0.6-1.4,0.8c-0.5,0.2-1,0.3-1.5,0.3c-0.5,0-1-0.1-1.5-0.2
		c-0.4-0.1-0.8-0.3-1.1-0.6c-0.3-0.3-0.5-0.6-0.7-1c-0.2-0.4-0.2-0.8-0.2-1.3c0-0.5,0.1-1,0.3-1.4c0.2-0.4,0.4-0.8,0.8-1.1
		c0.3-0.3,0.7-0.5,1.2-0.7C95.2,5,95.8,4.9,96.3,4.9z M96.3,10.5c0.5,0,0.9-0.1,1.4-0.3c0.5-0.2,0.9-0.5,1.3-0.8
		c0-1.2-0.2-2.1-0.7-2.7c-0.4-0.6-1.1-0.9-2-0.9c-0.8,0-1.4,0.2-1.8,0.7c-0.4,0.4-0.7,1.1-0.7,1.8c0,0.7,0.2,1.2,0.6,1.6
		C95,10.4,95.6,10.5,96.3,10.5z"/>
	<path d="M106,15.6c-1.3,0-2.3-0.4-3-1.2s-1-2-1-3.6c0-0.9,0.1-1.8,0.3-2.5c0.2-0.7,0.6-1.4,1-1.9s1-0.9,1.6-1.1
		c0.6-0.3,1.4-0.4,2.2-0.4c0.3,0,0.6,0,0.9,0.1c0.3,0,0.7,0.1,1,0.2l-0.1,1c-0.4-0.1-0.7-0.1-1-0.2c-0.3,0-0.6-0.1-0.9-0.1
		c-1.2,0-2.1,0.4-2.7,1.1s-1,1.7-1.1,3.1c0.4-0.3,0.9-0.6,1.4-0.8c0.5-0.2,1-0.3,1.5-0.3c0.5,0,1,0.1,1.5,0.2
		c0.4,0.1,0.8,0.3,1.1,0.6c0.3,0.3,0.5,0.6,0.7,1c0.2,0.4,0.2,0.8,0.2,1.3c0,0.5-0.1,1-0.3,1.4c-0.2,0.4-0.4,0.8-0.8,1.1
		s-0.7,0.5-1.2,0.7C107,15.5,106.5,15.6,106,15.6z M106,10c-0.5,0-0.9,0.1-1.4,0.3s-0.9,0.5-1.3,0.8c0,1.2,0.2,2.1,0.7,2.7
		c0.4,0.6,1.1,0.9,2,0.9c0.8,0,1.4-0.2,1.8-0.7c0.4-0.4,0.7-1.1,0.7-1.8c0-0.7-0.2-1.2-0.6-1.6C107.3,10.2,106.7,10,106,10z"/>
	<path d="M114.7,4.9c1.3,0,2.3,0.4,3,1.2c0.7,0.8,1,2,1,3.6c0,0.9-0.1,1.8-0.3,2.5s-0.6,1.4-1,1.9c-0.4,0.5-1,0.9-1.6,1.1
		c-0.6,0.3-1.4,0.4-2.2,0.4c-0.3,0-0.6,0-0.9-0.1c-0.3,0-0.7-0.1-1-0.2l0.1-1c0.4,0.1,0.7,0.1,1,0.2c0.3,0,0.6,0.1,0.9,0.1
		c1.2,0,2.1-0.4,2.7-1.1c0.6-0.7,1-1.7,1.1-3.1c-0.4,0.3-0.9,0.6-1.4,0.8c-0.5,0.2-1,0.3-1.5,0.3c-0.5,0-1-0.1-1.5-0.2
		c-0.4-0.1-0.8-0.3-1.1-0.6c-0.3-0.3-0.5-0.6-0.7-1c-0.2-0.4-0.2-0.8-0.2-1.3c0-0.5,0.1-1,0.3-1.4c0.2-0.4,0.4-0.8,0.8-1.1
		c0.3-0.3,0.7-0.5,1.2-0.7C113.6,5,114.2,4.9,114.7,4.9z M114.7,10.5c0.5,0,0.9-0.1,1.4-0.3c0.5-0.2,0.9-0.5,1.3-0.8
		c0-1.2-0.2-2.1-0.7-2.7c-0.4-0.6-1.1-0.9-2-0.9c-0.8,0-1.4,0.2-1.8,0.7c-0.4,0.4-0.7,1.1-0.7,1.8c0,0.7,0.2,1.2,0.6,1.6
		C113.3,10.4,113.9,10.5,114.7,10.5z"/>
</g>
</svg>
