<?xml version="1.0" encoding="iso-8859-1"?>
<!-- Generator: Adobe Illustrator 16.0.3, SVG Export Plug-In . SVG Version: 6.00 Build 0)  -->
<svg version="1.2" baseProfile="tiny" id="Layer_1" xmlns="http://www.w3.org/2000/svg" xmlns:xlink="http://www.w3.org/1999/xlink"
	 x="0px" y="0px" width="1024px" height="300px" viewBox="0 0 1024 300" xml:space="preserve">
<g>
	<path fill="#929497" d="M130.703,197.967h1.594v-0.958c0-0.958-0.662-1.62-1.617-1.62h-2.421c-0.955,0-1.618,0.662-1.618,1.62
		v1.391c0,0.914,0.752,1.448,1.642,1.646l2.124,0.455c0.249,0.059,0.387,0.137,0.387,0.389v0.866c0,0.251-0.138,0.388-0.387,0.388
		h-1.782c-0.252,0-0.389-0.137-0.389-0.388v-0.729h-1.595v1.049c0,0.957,0.663,1.618,1.618,1.618h2.558
		c0.956,0,1.618-0.661,1.618-1.618v-1.482c0-0.915-0.753-1.451-1.642-1.646l-2.124-0.455c-0.251-0.057-0.387-0.137-0.387-0.389
		v-0.776c0-0.251,0.136-0.389,0.387-0.389h1.646c0.251,0,0.389,0.138,0.389,0.389V197.967z M119.566,195.437v8.212h5.373v-1.55
		h-3.73v-1.873h3.021v-1.551h-3.021v-1.69h3.73v-1.548H119.566z M117.81,196.962v-1.525h-5.933v1.525h2.146v6.687h1.642v-6.687
		H117.81z M105.103,195.437v8.212h5.371v-1.55h-3.731v-1.873h3.025v-1.551h-3.025v-1.69h3.731v-1.548H105.103z M98.199,195.437
		v8.212h5.086v-1.55h-3.443v-6.662H98.199z M89.712,203.648h1.64v-3.423h2.832v3.423h1.642v-8.212h-1.642v3.238h-2.832v-3.238h-1.64
		V203.648z M87.953,196.962v-1.525h-5.931v1.525h2.146v6.687h1.641v-6.687H87.953z M78.121,197.238l0.867,3.011h-1.757
		L78.121,197.238z M76.773,201.799h2.659l0.537,1.85h1.767l-2.645-8.212h-1.918l-2.646,8.212h1.698L76.773,201.799z"/>
	<path fill="#929497" d="M125.219,178.715h19.099v-1.009h-18.089v-7.629c0-2.023,0.708-2.729,3.083-3.589l11.519-4.09
		c2.274-0.809,3.385-1.871,3.385-4.346v-5.104c0-3.133-1.818-4.95-4.951-4.95h-8.79c-3.133,0-4.952,1.817-4.952,4.95v0.404h1.011
		v-0.404c0-2.525,1.413-3.941,3.941-3.941h8.79c2.525,0,3.941,1.416,3.941,3.941v5.104c0,2.02-0.858,2.729-3.082,3.537l-11.52,4.09
		c-2.275,0.809-3.385,1.922-3.385,4.397V178.715z M129.563,156.283h-7.073v-3.941c0-4.042,3.234-7.275,7.276-7.275h10.306
		c4.04,0,7.274,3.233,7.274,7.275v6.366c0,4.044-3.434,5.963-7.274,7.275l-8.69,3.032c-1.313,0.455-2.02,0.707-2.02,2.021v3.738
		h18.087v6.871h-25.363V169.42c0-4.042,3.436-5.962,7.276-7.276l8.69-3.03c1.312-0.455,2.02-0.706,2.02-2.022v-3.131
		c0-1.314-0.708-2.022-2.02-2.022h-6.469c-1.314,0-2.021,0.708-2.021,2.022V156.283z M98.14,153.657c0-1.112,0.604-1.72,1.717-1.72
		h7.729c1.112,0,1.719,0.607,1.719,1.72v19.602c0,1.112-0.606,1.719-1.719,1.719h-7.729c-1.113,0-1.717-0.606-1.717-1.719V153.657z
		 M98.948,149.008c-2.528,0-3.941,1.416-3.941,3.941v21.018c0,2.525,1.413,3.939,3.941,3.939h9.547c2.526,0,3.941-1.414,3.941-3.939
		v-21.018c0-2.525-1.415-3.941-3.941-3.941H98.948z M113.446,173.967c0,3.133-1.818,4.952-4.951,4.952h-9.547
		c-3.133,0-4.954-1.819-4.954-4.952v-21.018c0-3.133,1.821-4.95,4.954-4.95h9.547c3.133,0,4.951,1.817,4.951,4.95V173.967z
		 M109.403,181.848c4.245,0,7.175-2.929,7.175-7.173v-22.433c0-4.243-2.93-7.176-7.175-7.176H98.037
		c-4.243,0-7.175,2.933-7.175,7.176v22.433c0,4.244,2.932,7.173,7.175,7.173H109.403z M63.682,178.715H82.78v-1.009H64.691v-7.629
		c0-2.023,0.709-2.729,3.084-3.589l11.518-4.09c2.274-0.809,3.386-1.871,3.386-4.346v-5.104c0-3.133-1.82-4.95-4.952-4.95h-8.789
		c-3.133,0-4.953,1.817-4.953,4.95v0.404h1.012v-0.404c0-2.525,1.413-3.941,3.941-3.941h8.789c2.526,0,3.941,1.416,3.941,3.941
		v5.104c0,2.02-0.859,2.729-3.083,3.537l-11.518,4.09c-2.274,0.809-3.386,1.922-3.386,4.397V178.715z M68.026,156.283h-7.073v-3.941
		c0-4.042,3.234-7.275,7.275-7.275h10.307c4.041,0,7.275,3.233,7.275,7.275v6.366c0,4.044-3.435,5.963-7.275,7.275l-8.69,3.032
		c-1.312,0.455-2.021,0.707-2.021,2.021v3.738h18.088v6.871H60.549V169.42c0-4.042,3.436-5.962,7.275-7.276l8.69-3.03
		c1.312-0.455,2.021-0.706,2.021-2.022v-3.131c0-1.314-0.709-2.022-2.021-2.022h-6.467c-1.315,0-2.021,0.708-2.021,2.022V156.283z"
		/>
	<path fill="#CB2026" d="M254.298,125.403c0.384-1.043,0.953-2.316,0.953-3.334c0-1.019-0.569-2.291-0.953-3.333h-0.547
		c0.385,1.157,0.726,2.349,0.726,3.333c0,0.987-0.341,2.176-0.726,3.334H254.298z M249.254,120.53h-0.759v4.088h0.774v-2.222
		c0-0.799,0.211-0.98,0.326-1.095c0.324-0.325,0.751-0.3,0.751-0.3c0.65,0,0.937,0.365,0.937,1.041v2.575h0.773v-2.827
		c0-1.311-1.265-1.384-1.547-1.384c-0.406,0-0.979,0.212-1.24,0.725h-0.016V120.53z M244.054,122.185
		c0-0.669,0.384-1.217,1.028-1.217c0.748,0,1.06,0.532,1.043,1.217H244.054z M246.94,122.721v-0.383
		c0-1.133-0.579-1.907-1.801-1.931c-1.298,0-1.9,1.002-1.9,2.198c0,1.208,0.521,2.137,1.833,2.137c0.979,0,1.697-0.465,1.818-1.393
		h-0.814c-0.09,0.595-0.393,0.832-0.994,0.832c-0.79,0-1.085-0.742-1.028-1.461H246.94z M236.198,120.53h-0.757v4.088h0.775v-2.102
		c0-0.099-0.035-0.637,0.055-0.847c0.236-0.548,0.694-0.668,1.013-0.668c0.741,0,0.903,0.486,0.903,1.196v2.42h0.773v-2.102
		c0-0.099-0.023-0.506,0.084-0.881c0.146-0.504,0.668-0.634,0.904-0.634c0.902,0,0.985,0.634,0.985,1.196v2.42h0.774v-2.885
		c0-0.731-0.581-1.326-1.525-1.326c-0.602,0-1.066,0.26-1.358,0.765c-0.214-0.505-0.669-0.765-1.444-0.765
		c-0.415,0-0.921,0.197-1.164,0.708h-0.019V120.53z M230.609,122.574c0-0.87,0.302-1.606,1.222-1.606
		c0.921,0,1.223,0.736,1.223,1.606c0,0.873-0.302,1.607-1.223,1.607C230.911,124.182,230.609,123.447,230.609,122.574
		 M231.831,120.407c-1.344,0-2.037,0.895-2.037,2.167c0,1.273,0.693,2.168,2.037,2.168c1.345,0,2.037-0.895,2.037-2.168
		C233.868,121.302,233.176,120.407,231.831,120.407 M228.049,120.53l-1.018,3.225h-0.017l-0.919-3.225h-1.004l-1.019,3.29h-0.016
		l-0.987-3.29h-0.838l1.353,4.088h0.904l1.06-3.363h0.016l0.953,3.363h0.881l1.443-4.088H228.049z M214.817,119.68h2.933
		l-2.069,4.938h0.789l2.071-4.938v-0.698h-3.724V119.68z M210.27,118.981l-0.148,3.356h0.743c0.179-0.578,0.538-0.726,1.117-0.726
		c0.659,0,0.937,0.587,0.937,1.158c0,0.643-0.283,1.271-1.019,1.271c-0.505,0-0.978-0.229-0.995-0.759h-0.855
		c0.05,0.994,0.767,1.459,1.703,1.459c1.148,0,2.021-0.774,2.021-1.938c0-1.004-0.618-1.892-1.688-1.892
		c-0.544,0-0.831,0.139-1.222,0.507l0.106-1.739h2.469v-0.698H210.27z M208.674,123.921h-2.575v-0.019
		c0.521-0.463,1.481-1.426,1.964-2.045c0.408-0.513,0.593-0.814,0.593-1.492c0-0.914-0.69-1.506-1.769-1.506
		c-0.985,0-1.728,0.649-1.718,1.662h0.856c-0.034-0.538,0.31-0.963,0.871-0.963c0.571,0,0.905,0.283,0.905,0.872
		c0,0.425-0.141,0.711-0.392,1.035c-0.7,0.883-1.525,1.63-2.324,2.413v0.739h3.588V123.921z M203.701,118.736l-2.119,6.667h0.539
		l2.118-6.667H203.701z M197.802,120.53h-0.758v4.088h0.775v-2.222c0-0.799,0.21-0.98,0.324-1.095c0.326-0.325,0.751-0.3,0.751-0.3
		c0.651,0,0.938,0.365,0.938,1.041v2.575h0.771v-2.827c0-1.311-1.262-1.384-1.547-1.384c-0.408,0-0.978,0.212-1.238,0.725h-0.018
		V120.53z M192.603,122.185c0-0.669,0.385-1.217,1.027-1.217c0.75,0,1.06,0.532,1.045,1.217H192.603z M195.487,122.721v-0.383
		c0-1.133-0.577-1.907-1.8-1.931c-1.295,0-1.896,1.002-1.896,2.198c0,1.208,0.519,2.137,1.83,2.137c0.979,0,1.696-0.465,1.816-1.393
		h-0.814c-0.089,0.595-0.392,0.832-0.993,0.832c-0.79,0-1.084-0.742-1.027-1.461H195.487z M184.747,120.53h-0.756v4.088h0.772
		v-2.102c0-0.099-0.033-0.637,0.057-0.847c0.237-0.548,0.692-0.668,1.012-0.668c0.742,0,0.904,0.486,0.904,1.196v2.42h0.772v-2.102
		c0-0.099-0.021-0.506,0.083-0.881c0.146-0.504,0.668-0.634,0.903-0.634c0.907,0,0.987,0.634,0.987,1.196v2.42h0.773v-2.885
		c0-0.731-0.579-1.326-1.524-1.326c-0.602,0-1.066,0.26-1.359,0.765c-0.213-0.505-0.667-0.765-1.442-0.765
		c-0.417,0-0.921,0.197-1.166,0.708h-0.017V120.53z M175.947,119.68h2.933l-2.069,4.938h0.789l2.071-4.938v-0.698h-3.724V119.68z
		 M172.459,122.067c0.799-0.048,1.582,0.106,1.582,1.069c0,0.586-0.563,0.905-1.126,0.905c-0.569,0-1.042-0.311-1.026-0.873h-0.854
		c-0.016,1.028,0.797,1.573,1.759,1.573c1.191,0,2.102-0.578,2.102-1.637c0-0.728-0.488-1.306-1.229-1.368v-0.019
		c0.61-0.112,1.147-0.626,1.147-1.271c0-1.108-0.935-1.589-1.931-1.589c-0.904,0-1.776,0.569-1.758,1.557h0.854
		c0.015-0.531,0.455-0.857,0.962-0.857c0.569,0,1.021,0.211,1.021,0.841c0,0.848-0.817,1.02-1.502,0.97V122.067z M168.605,124.618
		h0.732v-1.229h0.822v-0.65h-0.822v-3.757h-0.902l-2.396,3.553v0.854h2.566V124.618z M168.605,122.738h-1.94l1.925-2.902h0.016
		V122.738z M164.229,118.736c-0.384,1.042-0.951,2.314-0.951,3.333c0,1.018,0.567,2.291,0.951,3.334h0.547
		c-0.385-1.158-0.726-2.347-0.726-3.334c0-0.984,0.341-2.176,0.726-3.333H164.229z"/>
	<path fill="#CB2026" d="M236.245,104.271h1.596v-0.96c0-0.959-0.663-1.618-1.618-1.618h-2.422c-0.956,0-1.617,0.659-1.617,1.618
		v1.393c0,0.912,0.752,1.448,1.64,1.644l2.124,0.457c0.251,0.057,0.388,0.137,0.388,0.388v0.867c0,0.251-0.137,0.388-0.388,0.388
		h-1.78c-0.251,0-0.388-0.137-0.388-0.388v-0.729h-1.596v1.049c0,0.956,0.661,1.619,1.617,1.619h2.558
		c0.956,0,1.619-0.663,1.619-1.619v-1.484c0-0.914-0.754-1.45-1.643-1.644l-2.123-0.457c-0.251-0.058-0.389-0.137-0.389-0.386
		v-0.777c0-0.25,0.138-0.389,0.389-0.389h1.646c0.25,0,0.388,0.139,0.388,0.389V104.271z M225.11,101.738v8.212h5.371v-1.55h-3.73
		v-1.872h3.024v-1.549h-3.024v-1.69h3.73v-1.551H225.11z M223.352,103.265v-1.526h-5.931v1.526h2.146v6.686h1.64v-6.686H223.352z
		 M210.644,101.738v8.212h5.374v-1.55h-3.732v-1.872h3.023v-1.549h-3.023v-1.69h3.732v-1.551H210.644z M203.742,101.738v8.212h5.088
		v-1.55h-3.447v-6.662H203.742z M195.253,109.95h1.644v-3.422h2.829v3.422h1.643v-8.212h-1.643v3.241h-2.829v-3.241h-1.644V109.95z
		 M193.496,103.265v-1.526h-5.93v1.526h2.144v6.686h1.641v-6.686H193.496z M183.663,103.543l0.866,3.011h-1.755L183.663,103.543z
		 M182.316,108.103h2.658l0.537,1.848h1.766l-2.645-8.212h-1.916l-2.647,8.212h1.7L182.316,108.103z"/>
	<path fill="#CB2026" d="M243.569,69.357c2.878,0.707,4.244,2.678,4.244,5.206v5.758c0,3.132-1.821,4.95-4.952,4.95h-9.194
		c-3.133,0-4.953-1.818-4.953-4.95v-0.354h1.012v0.354c0,2.527,1.415,3.94,3.941,3.94h9.194c2.526,0,3.94-1.413,3.94-3.94v-5.758
		c0-2.933-2.119-4.7-5.558-4.7h-3.788v-1.012h3.788c2.778,0,5.152-1.313,5.152-4.496v-5.153c0-2.525-1.413-3.94-3.939-3.94h-8.387
		c-2.525,0-3.94,1.415-3.94,3.94v0.355h-1.012v-0.355c0-3.132,1.82-4.951,4.952-4.951h8.387c3.133,0,4.952,1.819,4.952,4.951v5.153
		C247.409,66.63,246.396,68.448,243.569,69.357 M232.857,77.038h-7.275v3.84c0,4.04,3.235,7.274,7.275,7.274h10.812
		c4.042,0,7.276-3.234,7.276-7.274v-6.064c0-2.172-1.062-4.243-3.587-5.456c2.324-1.365,3.184-3.283,3.184-5.455v-5.256
		c0-4.043-3.235-7.275-7.277-7.275h-10.003c-4.04,0-7.274,3.232-7.274,7.275v3.839h7.274v-2.324c0-1.312,0.709-2.021,2.021-2.021
		h5.961c1.314,0,2.021,0.709,2.021,2.021v3.941c0,1.617-0.605,2.021-2.021,2.021h-6.921v6.47h6.921c1.415,0,2.425,0.504,2.425,2.02
		v4.748c0,1.313-0.706,2.022-2.021,2.022h-6.77c-1.313,0-2.021-0.709-2.021-2.022V77.038z M199.007,85.02h19.099v-1.01h-18.087
		v-7.631c0-2.021,0.707-2.727,3.081-3.586l11.52-4.093c2.273-0.809,3.384-1.869,3.384-4.345v-5.102c0-3.133-1.816-4.953-4.949-4.953
		h-8.792c-3.133,0-4.951,1.82-4.951,4.953v0.403h1.011v-0.403c0-2.525,1.415-3.941,3.94-3.941h8.792c2.525,0,3.94,1.416,3.94,3.941
		v5.102c0,2.021-0.859,2.728-3.082,3.536l-11.519,4.093c-2.274,0.809-3.387,1.92-3.387,4.395V85.02z M203.352,62.588h-7.072v-3.941
		c0-4.043,3.233-7.275,7.275-7.275h10.307c4.042,0,7.274,3.232,7.274,7.275v6.366c0,4.042-3.435,5.963-7.274,7.276l-8.688,3.031
		c-1.315,0.454-2.022,0.706-2.022,2.021v3.736h18.088v6.872h-25.363V75.725c0-4.044,3.436-5.963,7.275-7.276l8.69-3.03
		c1.313-0.456,2.021-0.707,2.021-2.022v-3.132c0-1.315-0.708-2.021-2.021-2.021h-6.468c-1.313,0-2.021,0.706-2.021,2.021V62.588z
		 M169.906,54.504h19.703v2.121L173.848,85.02h-1.111l15.864-28.596v-0.909h-18.694V54.504z M192.742,57.133v-5.559h-25.969v6.871
		h17.278L167.685,87.95h7.981L192.742,57.133z"/>
	<path fill="#929497" d="M303.878,218.697h1.597v-0.959c0-0.957-0.662-1.618-1.618-1.618h-2.419c-0.959,0-1.621,0.661-1.621,1.618
		v1.394c0,0.912,0.751,1.447,1.643,1.643l2.124,0.455c0.251,0.057,0.388,0.136,0.388,0.389v0.868c0,0.251-0.137,0.388-0.388,0.388
		h-1.781c-0.252,0-0.389-0.137-0.389-0.388v-0.73h-1.597v1.049c0,0.959,0.662,1.62,1.621,1.62h2.556c0.956,0,1.618-0.661,1.618-1.62
		v-1.482c0-0.914-0.753-1.448-1.641-1.645l-2.123-0.455c-0.251-0.058-0.389-0.138-0.389-0.389v-0.775
		c0-0.251,0.138-0.388,0.389-0.388h1.643c0.252,0,0.388,0.137,0.388,0.388V218.697z M298.4,217.693v-1.526h-5.931v1.526h2.146v6.686
		h1.642v-6.686H298.4z M289.379,219.418c0,0.251-0.136,0.389-0.389,0.389h-2.135v-2.092h2.135c0.253,0,0.389,0.137,0.389,0.389
		V219.418z M291.27,224.379l-1.365-3.115c0.681-0.194,1.116-0.777,1.116-1.549v-1.93c0-0.958-0.662-1.618-1.618-1.618h-4.187v8.212
		h1.64v-3.046h1.324l1.324,3.046H291.27z M281.393,222.486c0,0.251-0.137,0.388-0.389,0.388h-1.929
		c-0.252,0-0.388-0.137-0.388-0.388v-4.428c0-0.251,0.136-0.388,0.388-0.388h1.929c0.252,0,0.389,0.137,0.389,0.388V222.486z
		 M278.664,216.12c-0.957,0-1.618,0.661-1.618,1.618v5.066c0,0.959,0.661,1.62,1.618,1.62h2.75c0.958,0,1.622-0.661,1.622-1.62
		v-5.066c0-0.957-0.664-1.618-1.622-1.618H278.664z M271.168,219.931v-2.216h2.149c0.249,0,0.387,0.137,0.387,0.389v1.438
		c0,0.252-0.138,0.389-0.387,0.389H271.168z M269.529,216.167v8.212h1.639v-2.898h2.56c0.955,0,1.616-0.662,1.616-1.617v-2.078
		c0-0.958-0.661-1.618-1.616-1.618H269.529z M265.662,218.697h1.595v-0.959c0-0.957-0.663-1.618-1.619-1.618h-2.42
		c-0.956,0-1.617,0.661-1.617,1.618v1.394c0,0.912,0.753,1.447,1.641,1.643l2.123,0.455c0.251,0.057,0.388,0.136,0.388,0.389v0.868
		c0,0.251-0.137,0.388-0.388,0.388h-1.782c-0.251,0-0.388-0.137-0.388-0.388v-0.73h-1.594v1.049c0,0.959,0.661,1.62,1.617,1.62
		h2.558c0.956,0,1.617-0.661,1.617-1.62v-1.482c0-0.914-0.751-1.448-1.641-1.645l-2.124-0.455c-0.25-0.058-0.387-0.138-0.387-0.389
		v-0.775c0-0.251,0.137-0.388,0.387-0.388h1.645c0.252,0,0.39,0.137,0.39,0.388V218.697z"/>
	<path fill="#929497" d="M282.84,202.579v-6.771h-2.776c-1.313,0-2.021-0.707-2.021-2.021v-4.749c0-1.516,1.01-2.02,2.424-2.02
		h6.266c1.415,0,2.424,0.504,2.424,2.02v4.749c0,1.314-0.706,2.021-2.021,2.021h-2.778v6.771h4.799c4.043,0,7.276-3.234,7.276-7.274
		v-6.063c0-2.175-1.061-4.245-3.588-5.458c2.324-1.364,3.184-3.283,3.184-5.456v-5.254c0-4.042-3.233-7.276-7.276-7.276h-4.395v6.77
		h2.375c1.313,0,2.02,0.708,2.02,2.023v3.939c0,1.618-0.604,2.022-2.02,2.022h-6.266c-1.414,0-2.02-0.404-2.02-2.022v-3.939
		c0-1.315,0.707-2.023,2.02-2.023h2.373v-6.77h-4.393c-4.042,0-7.276,3.234-7.276,7.276v5.254c0,2.173,0.86,4.092,3.185,5.456
		c-2.528,1.213-3.589,3.283-3.589,5.458v6.063c0,4.04,3.235,7.274,7.276,7.274H282.84z"/>
	<path fill="#929497" d="M693.692,75.275h-1.801l-2.124,4.813l-2.121-4.813h-1.803v8.213h1.551v-5.475l1.782,4.162h1.186
		l1.778-4.162v5.475h1.552V75.275z M682.022,81.595c0,0.251-0.138,0.388-0.39,0.388h-1.928c-0.25,0-0.388-0.137-0.388-0.388v-4.427
		c0-0.252,0.138-0.388,0.388-0.388h1.928c0.252,0,0.39,0.136,0.39,0.388V81.595z M679.295,75.23c-0.958,0-1.619,0.66-1.619,1.617
		v5.067c0,0.957,0.661,1.618,1.619,1.618h2.75c0.959,0,1.619-0.661,1.619-1.618v-5.067c0-0.957-0.66-1.617-1.619-1.617H679.295z
		 M674.049,81.595c0,0.251-0.136,0.388-0.39,0.388h-1.928c-0.251,0-0.387-0.137-0.387-0.388v-4.427c0-0.252,0.136-0.388,0.387-0.388
		h1.928c0.254,0,0.39,0.136,0.39,0.388V81.595z M671.321,75.23c-0.96,0-1.618,0.66-1.618,1.617v5.067
		c0,0.957,0.658,1.618,1.618,1.618h2.75c0.957,0,1.62-0.661,1.62-1.618v-5.067c0-0.957-0.663-1.617-1.62-1.617H671.321z
		 M666.074,78.526c0,0.251-0.137,0.388-0.389,0.388h-2.134v-2.088h2.134c0.252,0,0.389,0.137,0.389,0.388V78.526z M667.967,83.488
		l-1.369-3.115c0.684-0.193,1.118-0.775,1.118-1.55v-1.93c0-0.956-0.661-1.618-1.618-1.618h-4.188v8.213h1.642v-3.047h1.323
		l1.325,3.047H667.967z M654.507,78.526c0,0.251-0.137,0.388-0.389,0.388h-2.135v-2.088h2.135c0.252,0,0.389,0.137,0.389,0.388
		V78.526z M656.398,83.488l-1.368-3.115c0.685-0.193,1.117-0.775,1.117-1.55v-1.93c0-0.956-0.662-1.618-1.618-1.618h-4.187v8.213
		h1.641v-3.047h1.323l1.326,3.047H656.398z M642.95,75.275v8.213h5.372v-1.55h-3.73v-1.872h3.021v-1.55h-3.021v-1.69h3.73v-1.551
		H642.95z M637.563,79.916l1.895,3.572h1.849l-2.646-4.972l2.521-3.241h-1.93l-2.839,3.855v-3.855h-1.618v8.213h1.618V81.39
		L637.563,79.916z M631.119,78.172h1.642v-1.324c0-0.957-0.662-1.617-1.618-1.617h-2.603c-0.959,0-1.618,0.66-1.618,1.617v5.067
		c0,0.957,0.659,1.618,1.618,1.618h2.603c0.956,0,1.618-0.661,1.618-1.618v-1.323h-1.642v1.003c0,0.251-0.136,0.388-0.387,0.388
		h-1.782c-0.251,0-0.389-0.137-0.389-0.388v-4.427c0-0.252,0.138-0.388,0.389-0.388h1.782c0.251,0,0.387,0.136,0.387,0.388V78.172z
		 M623.293,81.595c0,0.251-0.138,0.388-0.388,0.388h-1.931c-0.25,0-0.386-0.137-0.386-0.388v-4.427c0-0.252,0.136-0.388,0.386-0.388
		h1.931c0.25,0,0.388,0.136,0.388,0.388V81.595z M620.564,75.23c-0.956,0-1.618,0.66-1.618,1.617v5.067
		c0,0.957,0.662,1.618,1.618,1.618h2.752c0.956,0,1.617-0.661,1.617-1.618v-5.067c0-0.957-0.661-1.617-1.617-1.617H620.564z
		 M612.42,75.275v8.213h5.087v-1.55h-3.445v-6.663H612.42z"/>
	<path fill="#929497" d="M675.018,68.82v-2.841l2.532-5.372h-1.802l-1.552,3.514l-1.551-3.514h-1.802l2.532,5.372v2.841H675.018z
		 M669.882,62.136v-1.528h-5.929v1.528h2.145v6.685h1.641v-6.685H669.882z M660.554,68.82h1.641v-8.213h-1.641V68.82z
		 M656.686,63.138h1.598V62.18c0-0.957-0.664-1.617-1.621-1.617h-2.42c-0.959,0-1.618,0.66-1.618,1.617v1.392
		c0,0.915,0.752,1.451,1.642,1.646l2.124,0.455c0.249,0.057,0.387,0.136,0.387,0.388v0.866c0,0.251-0.138,0.388-0.387,0.388h-1.782
		c-0.25,0-0.388-0.137-0.388-0.388v-0.729h-1.596v1.05c0,0.957,0.659,1.617,1.618,1.617h2.558c0.957,0,1.618-0.66,1.618-1.617
		v-1.482c0-0.914-0.752-1.448-1.642-1.646l-2.124-0.455c-0.251-0.058-0.387-0.138-0.387-0.389V62.5c0-0.252,0.136-0.388,0.387-0.388
		h1.645c0.252,0,0.389,0.136,0.389,0.388V63.138z M649.03,63.858c0,0.25-0.137,0.388-0.387,0.388h-2.137v-2.088h2.137
		c0.25,0,0.387,0.137,0.387,0.388V63.858z M650.922,68.82l-1.367-3.114c0.684-0.194,1.118-0.776,1.118-1.551v-1.929
		c0-0.956-0.663-1.619-1.619-1.619h-4.188v8.213h1.641v-3.047h1.325l1.324,3.047H650.922z M639.594,62.409l0.867,3.013h-1.755
		L639.594,62.409z M638.251,66.971h2.655l0.537,1.85h1.768l-2.646-8.213h-1.914l-2.648,8.213h1.7L638.251,66.971z M635.818,60.607
		h-1.825l-1.632,6.239l-1.584-6.239h-1.871l2.499,8.213h1.915L635.818,60.607z"/>
</g>
<path fill="#929497" d="M647.877,15.545l5.256-2.172h2.375V43.89h-1.012V14.332h-1.363l-5.256,2.173V15.545z M651.365,46.818h7.275
	V10.442h-5.762l-8.135,3.841v6.061l6.621-2.324V46.818z"/>
<g>
	<path fill="#CB2026" d="M752.463,208.069h-1.802l-2.122,4.813l-2.123-4.813h-1.801v8.213h1.551v-5.475l1.778,4.162h1.188
		l1.781-4.162v5.475h1.55V208.069z M740.795,214.389c0,0.252-0.139,0.388-0.39,0.388h-1.929c-0.251,0-0.388-0.136-0.388-0.388
		v-4.427c0-0.253,0.137-0.39,0.388-0.39h1.929c0.251,0,0.39,0.137,0.39,0.39V214.389z M738.066,208.023
		c-0.959,0-1.619,0.661-1.619,1.62v5.066c0,0.956,0.66,1.618,1.619,1.618h2.75c0.957,0,1.617-0.662,1.617-1.618v-5.066
		c0-0.959-0.66-1.62-1.617-1.62H738.066z M732.818,214.389c0,0.252-0.137,0.388-0.387,0.388h-1.931
		c-0.249,0-0.387-0.136-0.387-0.388v-4.427c0-0.253,0.138-0.39,0.387-0.39h1.931c0.25,0,0.387,0.137,0.387,0.39V214.389z
		 M730.091,208.023c-0.959,0-1.618,0.661-1.618,1.62v5.066c0,0.956,0.659,1.618,1.618,1.618h2.751c0.957,0,1.619-0.662,1.619-1.618
		v-5.066c0-0.959-0.662-1.62-1.619-1.62H730.091z M724.846,211.32c0,0.252-0.139,0.388-0.39,0.388h-2.134v-2.088h2.134
		c0.251,0,0.39,0.137,0.39,0.386V211.32z M726.737,216.282l-1.368-3.115c0.684-0.193,1.116-0.775,1.116-1.55v-1.931
		c0-0.955-0.662-1.617-1.618-1.617h-4.186v8.213h1.641v-3.046h1.322l1.325,3.046H726.737z"/>
	<path fill="#CB2026" d="M756.892,196.652c0,0.252-0.137,0.387-0.389,0.387h-2.135v-2.087h2.135c0.252,0,0.389,0.137,0.389,0.387
		V196.652z M758.783,201.615l-1.37-3.117c0.687-0.193,1.119-0.772,1.119-1.55v-1.93c0-0.956-0.662-1.616-1.618-1.616h-4.188v8.213
		h1.642v-3.048h1.323l1.324,3.048H758.783z M745.334,193.402v8.213h5.373v-1.551h-3.732v-1.874h3.023v-1.55h-3.023v-1.688h3.732
		v-1.55H745.334z M739.947,198.044l1.895,3.571h1.847l-2.646-4.975l2.521-3.238h-1.929l-2.841,3.855v-3.855h-1.617v8.213h1.617
		v-2.102L739.947,198.044z M733.503,196.297h1.643v-1.321c0-0.959-0.663-1.621-1.619-1.621h-2.604c-0.957,0-1.617,0.662-1.617,1.621
		v5.065c0,0.956,0.66,1.619,1.617,1.619h2.604c0.956,0,1.619-0.663,1.619-1.619v-1.323h-1.643v1.003
		c0,0.252-0.137,0.388-0.387,0.388h-1.783c-0.25,0-0.387-0.136-0.387-0.388v-4.428c0-0.252,0.137-0.388,0.387-0.388h1.783
		c0.25,0,0.387,0.136,0.387,0.388V196.297z M725.677,199.721c0,0.252-0.138,0.388-0.389,0.388h-1.929
		c-0.251,0-0.389-0.136-0.389-0.388v-4.428c0-0.252,0.138-0.388,0.389-0.388h1.929c0.251,0,0.389,0.136,0.389,0.388V199.721z
		 M722.948,193.354c-0.957,0-1.617,0.662-1.617,1.621v5.065c0,0.956,0.66,1.619,1.617,1.619h2.75c0.959,0,1.62-0.663,1.62-1.619
		v-5.065c0-0.959-0.661-1.621-1.62-1.621H722.948z M714.806,193.402v8.213h5.086v-1.551h-3.446v-6.662H714.806z"/>
	<path fill="#CB2026" d="M758.532,186.947v-2.843l2.531-5.37h-1.801l-1.552,3.513l-1.551-3.513h-1.801l2.532,5.37v2.843H758.532z
		 M753.397,180.261v-1.526h-5.931v1.526h2.146v6.687h1.641v-6.687H753.397z M744.067,186.947h1.642v-8.213h-1.642V186.947z
		 M740.199,181.265h1.598v-0.958c0-0.958-0.662-1.618-1.619-1.618h-2.42c-0.959,0-1.619,0.66-1.619,1.618v1.391
		c0,0.914,0.751,1.452,1.64,1.646l2.126,0.455c0.25,0.058,0.387,0.138,0.387,0.389v0.865c0,0.252-0.137,0.389-0.387,0.389h-1.781
		c-0.252,0-0.389-0.137-0.389-0.389v-0.729h-1.596v1.05c0,0.956,0.66,1.617,1.619,1.617h2.557c0.957,0,1.619-0.661,1.619-1.617
		v-1.482c0-0.913-0.754-1.451-1.643-1.645l-2.123-0.456c-0.252-0.058-0.39-0.137-0.39-0.389v-0.777c0-0.251,0.138-0.387,0.39-0.387
		h1.644c0.252,0,0.388,0.136,0.388,0.387V181.265z M732.544,181.983c0,0.252-0.137,0.39-0.386,0.39h-2.137v-2.089h2.137
		c0.249,0,0.386,0.138,0.386,0.387V181.983z M734.438,186.947l-1.367-3.117c0.682-0.193,1.117-0.772,1.117-1.55v-1.93
		c0-0.956-0.662-1.616-1.618-1.616h-4.188v8.213h1.641V183.9h1.324l1.325,3.047H734.438z M723.108,180.535l0.867,3.012h-1.756
		L723.108,180.535z M721.765,185.098h2.656l0.537,1.85h1.768l-2.646-8.213h-1.915l-2.647,8.213h1.702L721.765,185.098z
		 M719.332,178.734h-1.824l-1.632,6.239l-1.583-6.239h-1.872l2.499,8.213h1.913L719.332,178.734z"/>
	<path fill="#CB2026" d="M766.302,166.597h1.597v-0.959c0-0.957-0.662-1.618-1.619-1.618h-2.421c-0.958,0-1.616,0.661-1.616,1.618
		v1.393c0,0.913,0.751,1.448,1.64,1.646l2.124,0.454c0.252,0.058,0.389,0.138,0.389,0.39v0.864c0,0.253-0.137,0.39-0.389,0.39
		h-1.781c-0.252,0-0.388-0.137-0.388-0.39v-0.729h-1.595v1.051c0,0.955,0.658,1.616,1.616,1.616h2.56
		c0.956,0,1.617-0.661,1.617-1.616v-1.483c0-0.914-0.752-1.451-1.641-1.645l-2.125-0.455c-0.25-0.059-0.388-0.139-0.388-0.39v-0.777
		c0-0.251,0.138-0.387,0.388-0.387h1.646c0.25,0,0.387,0.136,0.387,0.387V166.597z M760.459,164.066h-1.595v1.663h0.615l-0.878,1.53
		h0.639l0.672-0.892c0.273-0.354,0.547-0.742,0.547-1.073V164.066z M755.225,164.066v5.599l-3.024-5.599h-1.767v8.213h1.537v-5.602
		l3.026,5.602h1.767v-8.213H755.225z M743.042,164.066v8.213h5.37v-1.55h-3.73v-1.875h3.024v-1.548h-3.024v-1.69h3.73v-1.55H743.042
		z M740.667,164.066h-1.802l-2.123,4.813l-2.123-4.813h-1.801v8.213h1.55v-5.476l1.78,4.162h1.189l1.778-4.162v5.476h1.551V164.066z
		 M728.997,170.384c0,0.253-0.137,0.39-0.389,0.39h-1.929c-0.252,0-0.389-0.137-0.389-0.39v-4.428c0-0.251,0.137-0.387,0.389-0.387
		h1.929c0.252,0,0.389,0.136,0.389,0.387V170.384z M726.27,164.02c-0.956,0-1.62,0.661-1.62,1.618v5.068
		c0,0.955,0.664,1.616,1.62,1.616h2.749c0.959,0,1.619-0.661,1.619-1.616v-5.068c0-0.957-0.66-1.618-1.619-1.618H726.27z
		 M721.26,172.279l2.043-8.213h-1.688l-1.117,5.998l-1.483-5.998h-1.3l-1.482,5.998l-1.118-5.998h-1.757l2.042,8.213h1.619
		l1.347-5.407l1.344,5.407H721.26z M706.408,172.279h1.642v-8.213h-1.3l-1.836,0.866v1.368l1.494-0.523V172.279z"/>
	<path fill="#CB2026" d="M756,155.945h-1.597v1.666h0.614l-0.878,1.527h0.641l0.672-0.89c0.274-0.355,0.548-0.742,0.548-1.073
		V155.945z M750.901,151.929h1.595v-0.959c0-0.956-0.662-1.618-1.618-1.618h-2.419c-0.959,0-1.619,0.662-1.619,1.618v1.393
		c0,0.913,0.752,1.451,1.642,1.645l2.122,0.456c0.252,0.056,0.389,0.137,0.389,0.389v0.865c0,0.251-0.137,0.389-0.389,0.389h-1.781
		c-0.251,0-0.387-0.138-0.387-0.389v-0.729h-1.596v1.049c0,0.956,0.66,1.619,1.619,1.619h2.557c0.955,0,1.618-0.663,1.618-1.619
		v-1.481c0-0.913-0.754-1.451-1.642-1.645l-2.123-0.455c-0.251-0.059-0.388-0.139-0.388-0.39v-0.777c0-0.25,0.137-0.387,0.388-0.387
		h1.644c0.252,0,0.389,0.137,0.389,0.387V151.929z M745.06,149.398h-1.597v1.663h0.614l-0.877,1.53h0.641l0.671-0.893
		c0.273-0.354,0.548-0.741,0.548-1.072V149.398z M739.823,149.398v5.599l-3.024-5.599h-1.767v8.213h1.539v-5.602l3.024,5.602h1.766
		v-8.213H739.823z M727.64,149.398v8.213h5.371v-1.55h-3.729v-1.875h3.022v-1.55h-3.022v-1.689h3.729v-1.549H727.64z
		 M725.265,149.398h-1.8l-2.125,4.813l-2.121-4.813h-1.8v8.213h1.548v-5.475l1.781,4.162h1.187l1.78-4.162v5.475h1.55V149.398z"/>
</g>
<path fill="#CB2026" d="M731.393,104.335l5.255-2.171h2.376v30.515h-1.012v-29.558h-1.364l-5.255,2.175V104.335z M734.879,135.608
	h7.275V99.231h-5.759l-8.135,3.841v6.063l6.618-2.324V135.608z"/>
<path fill="#929497" d="M489.023,199.787h1.597v-0.958c0-0.958-0.661-1.62-1.619-1.62h-2.42c-0.958,0-1.62,0.662-1.62,1.62v1.392
	c0,0.912,0.752,1.448,1.645,1.644l2.122,0.457c0.251,0.057,0.388,0.136,0.388,0.389v0.865c0,0.252-0.137,0.388-0.388,0.388h-1.78
	c-0.251,0-0.389-0.136-0.389-0.388v-0.729h-1.598v1.049c0,0.956,0.662,1.618,1.62,1.618h2.557c0.958,0,1.62-0.662,1.62-1.618v-1.483
	c0-0.914-0.753-1.449-1.643-1.646l-2.124-0.455c-0.249-0.057-0.386-0.138-0.386-0.388v-0.776c0-0.251,0.137-0.387,0.386-0.387h1.644
	c0.252,0,0.389,0.136,0.389,0.387V199.787z M482.817,197.256h-1.803l-2.122,4.813l-2.121-4.813h-1.803v8.212h1.55v-5.474l1.78,4.16
	h1.188l1.78-4.16v5.474h1.551V197.256z M469.698,199.059l0.866,3.012h-1.757L469.698,199.059z M468.352,203.621h2.658l0.536,1.847
	h1.768l-2.646-8.212h-1.916l-2.646,8.212h1.698L468.352,203.621z M459.431,197.256v8.212h5.373v-1.549h-3.73v-1.875h3.022v-1.549
	h-3.022v-1.69h3.73v-1.549H459.431z M457.674,198.781v-1.525h-5.932v1.525h2.145v6.687h1.643v-6.687H457.674z M442.399,197.256
	v8.212h5.087v-1.549h-3.446v-6.663H442.399z M435.497,197.256v8.212h5.086v-1.549h-3.446v-6.663H435.497z M430.225,199.059
	l0.866,3.012h-1.757L430.225,199.059z M428.881,203.621h2.656l0.537,1.847h1.767l-2.646-8.212h-1.919l-2.645,8.212h1.699
	L428.881,203.621z M420.153,200.507c0,0.251-0.138,0.388-0.39,0.388h-2.134v-2.09h2.134c0.252,0,0.39,0.138,0.39,0.388V200.507z
	 M422.044,205.468l-1.367-3.115c0.685-0.193,1.117-0.774,1.117-1.55v-1.929c0-0.957-0.663-1.618-1.62-1.618h-4.185v8.212h1.641
	v-3.046h1.323l1.324,3.046H422.044z M412.166,203.575c0,0.252-0.137,0.388-0.389,0.388h-1.929c-0.251,0-0.388-0.136-0.388-0.388
	v-4.428c0-0.251,0.137-0.387,0.388-0.387h1.929c0.252,0,0.389,0.136,0.389,0.387V203.575z M409.438,197.209
	c-0.957,0-1.618,0.662-1.618,1.62v5.066c0,0.956,0.661,1.618,1.618,1.618h2.75c0.958,0,1.619-0.662,1.619-1.618v-5.066
	c0-0.958-0.661-1.62-1.619-1.62H409.438z M400.918,205.468h1.641v-3.354h3.024v-1.549h-3.024v-1.76h3.732v-1.549h-5.373V205.468z"/>
<path fill="#929497" d="M491.561,185.12h1.598v-0.961c0-0.957-0.661-1.618-1.619-1.618h-2.421c-0.956,0-1.618,0.661-1.618,1.618
	v1.394c0,0.913,0.752,1.45,1.643,1.644l2.122,0.457c0.251,0.057,0.388,0.138,0.388,0.388v0.866c0,0.252-0.137,0.388-0.388,0.388
	h-1.779c-0.252,0-0.39-0.136-0.39-0.388v-0.729H487.5v1.049c0,0.956,0.662,1.618,1.618,1.618h2.558c0.958,0,1.62-0.662,1.62-1.618
	v-1.484c0-0.911-0.752-1.448-1.644-1.643l-2.121-0.457c-0.252-0.058-0.389-0.138-0.389-0.387v-0.777
	c0-0.251,0.137-0.388,0.389-0.388h1.642c0.251,0,0.388,0.137,0.388,0.388V185.12z M480.428,182.588v8.212h5.371v-1.55h-3.731v-1.874
	h3.024v-1.55h-3.024v-1.689h3.731v-1.549H480.428z M478.053,182.588h-1.801l-2.123,4.813l-2.122-4.813h-1.802v8.212h1.55v-5.474
	l1.781,4.161h1.187l1.779-4.161v5.474h1.551V182.588z M466.19,190.8h1.641v-8.212h-1.641V190.8z M464.433,184.113v-1.525h-5.932
	v1.525h2.146v6.687h1.642v-6.687H464.433z M448.418,182.588v8.212h5.37v-1.55h-3.729v-1.874h3.023v-1.55h-3.023v-1.689h3.729v-1.549
	H448.418z M444.744,185.482h1.64v-1.323c0-0.957-0.661-1.618-1.618-1.618h-2.602c-0.959,0-1.619,0.661-1.619,1.618v5.068
	c0,0.956,0.66,1.618,1.619,1.618h2.602c0.957,0,1.618-0.662,1.618-1.618v-1.323h-1.64v1.003c0,0.252-0.138,0.388-0.389,0.388h-1.781
	c-0.251,0-0.388-0.136-0.388-0.388v-4.428c0-0.251,0.137-0.388,0.388-0.388h1.781c0.251,0,0.389,0.137,0.389,0.388V185.482z
	 M436.724,190.8h1.642v-8.212h-1.642V190.8z M434.966,184.113v-1.525h-5.933v1.525h2.145v6.687h1.642v-6.687H434.966z
	 M426.068,185.482h1.641v-1.323c0-0.957-0.663-1.618-1.619-1.618h-2.602c-0.957,0-1.618,0.661-1.618,1.618v5.068
	c0,0.956,0.661,1.618,1.618,1.618h2.602c0.956,0,1.619-0.662,1.619-1.618v-1.323h-1.641v1.003c0,0.252-0.137,0.388-0.39,0.388h-1.78
	c-0.251,0-0.388-0.136-0.388-0.388v-4.428c0-0.251,0.137-0.388,0.388-0.388h1.78c0.253,0,0.39,0.137,0.39,0.388V185.482z
	 M416.949,184.391l0.869,3.012h-1.757L416.949,184.391z M415.606,188.952h2.656l0.536,1.848h1.77l-2.648-8.212h-1.914l-2.646,8.212
	h1.699L415.606,188.952z M410.256,185.838c0,0.252-0.137,0.39-0.388,0.39h-2.138v-2.091h2.138c0.251,0,0.388,0.138,0.388,0.389
	V185.838z M412.146,190.8l-1.365-3.115c0.682-0.193,1.115-0.773,1.115-1.55v-1.929c0-0.957-0.66-1.618-1.618-1.618h-4.187v8.212
	h1.639v-3.046h1.326l1.323,3.046H412.146z M400.021,186.353v-2.216h2.146c0.252,0,0.39,0.138,0.39,0.389v1.439
	c0,0.25-0.138,0.388-0.39,0.388H400.021z M398.379,182.588v8.212h1.642v-2.898h2.557c0.957,0,1.618-0.661,1.618-1.617v-2.078
	c0-0.957-0.661-1.618-1.618-1.618H398.379z"/>
<path fill="#929497" d="M475.025,174.582v-5.112h2.224c0.254,0,0.391,0.137,0.391,0.388v4.338c0,0.249-0.137,0.387-0.391,0.387
	H475.025z M473.385,167.919v8.213h4.278c0.955,0,1.617-0.661,1.617-1.618v-4.975c0-0.957-0.662-1.62-1.617-1.62H473.385z
	 M465.991,167.919v8.213h5.371v-1.55h-3.73v-1.874h3.024v-1.55h-3.024v-1.688h3.73v-1.551H465.991z M462.17,171.17
	c0,0.253-0.138,0.39-0.389,0.39h-2.134v-2.09h2.134c0.251,0,0.389,0.137,0.389,0.388V171.17z M464.062,176.132l-1.368-3.114
	c0.685-0.194,1.118-0.774,1.118-1.551v-1.928c0-0.957-0.664-1.62-1.62-1.62h-4.187v8.213h1.643v-3.046h1.322l1.326,3.046H464.062z
	 M454.184,171.17c0,0.253-0.137,0.39-0.389,0.39h-2.134v-2.09h2.134c0.252,0,0.389,0.137,0.389,0.388V171.17z M456.075,176.132
	l-1.368-3.114c0.685-0.194,1.117-0.774,1.117-1.551v-1.928c0-0.957-0.661-1.62-1.619-1.62h-4.186v8.213h1.642v-3.046h1.322
	l1.326,3.046H456.075z M442.627,167.919v8.213h5.371v-1.55h-3.73v-1.874h3.023v-1.55h-3.023v-1.688h3.73v-1.551H442.627z
	 M435.439,176.132h1.641v-3.354h3.023v-1.55h-3.023v-1.759h3.731v-1.551h-5.372V176.132z M428.047,167.919v8.213h5.371v-1.55h-3.73
	v-1.874h3.024v-1.55h-3.024v-1.688h3.73v-1.551H428.047z M424.225,171.17c0,0.253-0.137,0.39-0.388,0.39h-2.135v-2.09h2.135
	c0.251,0,0.388,0.137,0.388,0.388V171.17z M426.118,176.132l-1.367-3.114c0.682-0.194,1.114-0.774,1.114-1.551v-1.928
	c0-0.957-0.661-1.62-1.617-1.62h-4.188v8.213h1.642v-3.046h1.324l1.325,3.046H426.118z M413.989,171.684v-2.214h2.147
	c0.252,0,0.389,0.137,0.389,0.388v1.439c0,0.249-0.137,0.387-0.389,0.387H413.989z M412.349,167.919v8.213h1.641v-2.898h2.558
	c0.957,0,1.619-0.661,1.619-1.616v-2.078c0-0.957-0.662-1.62-1.619-1.62H412.349z"/>
<path fill="#CB2026" d="M588.739,129.654h-1.8l-2.123,4.812l-2.122-4.812h-1.801v8.211h1.55v-5.473l1.78,4.163h1.187l1.779-4.163
	v5.473h1.55V129.654z M574.822,133.418v-2.215h2.146c0.249,0,0.387,0.137,0.387,0.389v1.438c0,0.252-0.138,0.388-0.387,0.388
	H574.822z M573.181,129.654v8.211h1.642v-2.896h2.557c0.958,0,1.62-0.662,1.62-1.619v-2.077c0-0.96-0.662-1.619-1.62-1.619H573.181z
	 M568.982,137.865h1.642v-8.211h-1.301l-1.836,0.866v1.371l1.495-0.526V137.865z M563.724,137.865h1.642v-8.211h-1.299l-1.838,0.866
	v1.371l1.495-0.526V137.865z M557.026,133.373h-5.247v1.48h5.247V133.373z M546.143,129.654h-1.802l-2.123,4.812l-2.121-4.812
	h-1.802v8.211h1.55v-5.473l1.779,4.163h1.187l1.782-4.163v5.473h1.55V129.654z M533.024,131.456l0.864,3.014h-1.755L533.024,131.456
	z M531.678,136.019h2.657l0.537,1.847h1.767l-2.646-8.211h-1.916l-2.646,8.211h1.7L531.678,136.019z M527.832,131.203v-1.549h-5.44
	v4.266l1.641,0.479l0.229-0.138c0.4-0.24,0.821-0.308,1.14-0.308h0.562c0.297,0,0.456,0.159,0.456,0.455v1.495
	c0,0.299-0.159,0.457-0.456,0.457h-1.589c-0.295,0-0.454-0.158-0.454-0.457v-0.512h-1.643v0.879c0,0.909,0.729,1.64,1.643,1.64
	h2.499c0.911,0,1.642-0.73,1.642-1.64v-2.137c0-0.911-0.73-1.639-1.642-1.639h-0.856c-0.617,0-1.051,0.387-1.301,0.624l-0.229,0.217
	v-2.134H527.832z"/>
<path fill="#CB2026" d="M605.412,114.986h-1.799l-2.124,4.812l-2.123-4.812h-1.801v8.212h1.55v-5.476l1.782,4.164h1.186l1.779-4.164
	v5.476h1.55V114.986z M593.743,121.307c0,0.25-0.136,0.387-0.386,0.387h-1.93c-0.251,0-0.39-0.137-0.39-0.387v-4.429
	c0-0.25,0.139-0.386,0.39-0.386h1.93c0.25,0,0.386,0.136,0.386,0.386V121.307z M591.015,114.94c-0.956,0-1.618,0.661-1.618,1.617
	v5.068c0,0.956,0.662,1.617,1.618,1.617h2.753c0.958,0,1.617-0.661,1.617-1.617v-5.068c0-0.956-0.659-1.617-1.617-1.617H591.015z
	 M585.77,118.237c0,0.251-0.136,0.388-0.388,0.388h-2.133v-2.09h2.133c0.252,0,0.388,0.138,0.388,0.389V118.237z M587.662,123.198
	l-1.369-3.114c0.687-0.193,1.12-0.775,1.12-1.549v-1.931c0-0.957-0.663-1.618-1.62-1.618h-4.188v8.212h1.644v-3.046h1.322
	l1.324,3.046H587.662z M574.419,123.198h1.643v-3.354h3.021v-1.549h-3.021v-1.76h3.729v-1.549h-5.372V123.198z M566.971,117.516
	h1.595v-0.958c0-0.956-0.66-1.617-1.617-1.617h-2.421c-0.958,0-1.618,0.661-1.618,1.617v1.394c0,0.914,0.751,1.449,1.641,1.644
	l2.123,0.457c0.249,0.055,0.388,0.136,0.388,0.386v0.869c0,0.25-0.139,0.387-0.388,0.387h-1.782c-0.249,0-0.386-0.137-0.386-0.387
	v-0.731h-1.596v1.051c0,0.956,0.66,1.617,1.618,1.617h2.557c0.957,0,1.617-0.661,1.617-1.617v-1.483
	c0-0.914-0.753-1.451-1.641-1.646l-2.123-0.456c-0.251-0.058-0.388-0.137-0.388-0.388v-0.775c0-0.25,0.137-0.386,0.388-0.386h1.643
	c0.252,0,0.391,0.136,0.391,0.386V117.516z M555.835,114.986v8.212h5.371v-1.55h-3.73v-1.872h3.025v-1.551h-3.025v-1.69h3.73v-1.549
	H555.835z M552.162,117.882h1.642v-1.324c0-0.956-0.663-1.617-1.619-1.617h-2.603c-0.958,0-1.619,0.661-1.619,1.617v5.068
	c0,0.956,0.661,1.617,1.619,1.617h2.603c0.956,0,1.619-0.661,1.619-1.617v-1.325h-1.642v1.006c0,0.25-0.138,0.387-0.389,0.387h-1.78
	c-0.253,0-0.389-0.137-0.389-0.387v-4.429c0-0.25,0.136-0.386,0.389-0.386h1.78c0.251,0,0.389,0.136,0.389,0.386V117.882z
	 M544.143,123.198h1.641v-8.212h-1.641V123.198z M542.385,116.513v-1.526h-5.932v1.526h2.145v6.686h1.641v-6.686H542.385z
	 M533.486,117.882h1.642v-1.324c0-0.956-0.663-1.617-1.619-1.617h-2.603c-0.955,0-1.618,0.661-1.618,1.617v5.068
	c0,0.956,0.663,1.617,1.618,1.617h2.603c0.956,0,1.619-0.661,1.619-1.617v-1.325h-1.642v1.006c0,0.25-0.137,0.387-0.388,0.387
	h-1.782c-0.251,0-0.387-0.137-0.387-0.387v-4.429c0-0.25,0.136-0.386,0.387-0.386h1.782c0.251,0,0.388,0.136,0.388,0.386V117.882z
	 M524.37,116.789l0.866,3.011h-1.756L524.37,116.789z M523.025,121.35h2.657l0.534,1.849h1.769l-2.646-8.212h-1.915l-2.646,8.212
	h1.699L523.025,121.35z M517.674,118.237c0,0.251-0.138,0.388-0.388,0.388h-2.134v-2.09h2.134c0.25,0,0.388,0.138,0.388,0.389
	V118.237z M519.567,123.198l-1.367-3.114c0.683-0.193,1.116-0.775,1.116-1.549v-1.931c0-0.957-0.663-1.618-1.62-1.618h-4.185v8.212
	h1.641v-3.046h1.323l1.324,3.046H519.567z M507.438,118.752v-2.217h2.147c0.252,0,0.389,0.138,0.389,0.389v1.438
	c0,0.252-0.137,0.39-0.389,0.39H507.438z M505.798,114.986v8.212h1.641v-2.897h2.559c0.956,0,1.618-0.661,1.618-1.62v-2.076
	c0-0.957-0.662-1.618-1.618-1.618H505.798z"/>
<path fill="#CB2026" d="M950.657,109.87h1.595v-0.959c0-0.958-0.66-1.618-1.619-1.618h-2.418c-0.957,0-1.619,0.66-1.619,1.618v1.392
	c0,0.914,0.752,1.452,1.64,1.646l2.124,0.454c0.251,0.058,0.389,0.138,0.389,0.39v0.864c0,0.251-0.138,0.39-0.389,0.39h-1.779
	c-0.254,0-0.39-0.139-0.39-0.39v-0.729h-1.595v1.051c0,0.955,0.662,1.616,1.619,1.616h2.555c0.959,0,1.618-0.661,1.618-1.616v-1.483
	c0-0.913-0.751-1.449-1.64-1.646l-2.122-0.455c-0.253-0.058-0.391-0.138-0.391-0.389v-0.777c0-0.251,0.138-0.387,0.391-0.387h1.644
	c0.251,0,0.388,0.136,0.388,0.387V109.87z M942.91,107.34v5.598l-3.023-5.598h-1.769v8.213h1.539v-5.603l3.024,5.603h1.768v-8.213
	H942.91z M934.297,113.657c0,0.251-0.136,0.39-0.39,0.39h-1.925c-0.252,0-0.39-0.139-0.39-0.39v-4.428
	c0-0.251,0.138-0.387,0.39-0.387h1.925c0.254,0,0.39,0.136,0.39,0.387V113.657z M931.57,107.293c-0.959,0-1.619,0.66-1.619,1.618
	v5.068c0,0.955,0.66,1.616,1.619,1.616h2.75c0.957,0,1.62-0.661,1.62-1.616v-5.068c0-0.958-0.663-1.618-1.62-1.618H931.57z
	 M926.129,115.553h1.642v-8.213h-1.642V115.553z M924.371,108.866v-1.526h-5.93v1.526h2.144v6.687h1.642v-6.687H924.371z
	 M914.537,109.141l0.869,3.012h-1.758L914.537,109.141z M913.191,113.703h2.657l0.537,1.85h1.769l-2.646-8.213h-1.917l-2.646,8.213
	h1.699L913.191,113.703z M904.763,107.34v8.213h5.087v-1.552h-3.446v-6.661H904.763z M900.941,113.657
	c0,0.251-0.137,0.39-0.389,0.39h-1.93c-0.252,0-0.388-0.139-0.388-0.39v-4.428c0-0.251,0.136-0.387,0.388-0.387h1.93
	c0.252,0,0.389,0.136,0.389,0.387V113.657z M898.211,107.293c-0.959,0-1.617,0.66-1.617,1.618v5.068
	c0,0.955,0.658,1.616,1.617,1.616h2.753c0.956,0,1.618-0.661,1.618-1.616v-5.068c0-0.958-0.662-1.618-1.618-1.618H898.211z
	 M892.771,115.553h1.642v-8.213h-1.642V115.553z M891.095,107.34h-1.826l-1.632,6.238l-1.584-6.238h-1.871l2.499,8.213h1.915
	L891.095,107.34z"/>
<path fill="#CB2026" d="M962.636,92.672v8.213h5.371v-1.55h-3.731V97.46h3.025v-1.55h-3.025v-1.689h3.731v-1.549H962.636z
	 M956.2,99.335v-5.114h2.225c0.253,0,0.39,0.139,0.39,0.388v4.337c0,0.252-0.137,0.39-0.39,0.39H956.2z M954.558,92.672v8.213h4.277
	c0.959,0,1.622-0.662,1.622-1.621v-4.975c0-0.957-0.663-1.617-1.622-1.617H954.558z M950.736,98.989c0,0.252-0.135,0.39-0.389,0.39
	h-1.928c-0.25,0-0.388-0.138-0.388-0.39v-4.428c0-0.251,0.138-0.388,0.388-0.388h1.928c0.254,0,0.389,0.137,0.389,0.388V98.989z
	 M948.01,92.625c-0.957,0-1.619,0.66-1.619,1.618v5.068c0,0.954,0.662,1.616,1.619,1.616h2.751c0.956,0,1.618-0.662,1.618-1.616
	v-5.068c0-0.958-0.662-1.618-1.618-1.618H948.01z M942.912,95.567h1.641v-1.324c0-0.958-0.661-1.618-1.618-1.618h-2.603
	c-0.958,0-1.619,0.66-1.619,1.618v5.068c0,0.954,0.661,1.616,1.619,1.616h2.603c0.957,0,1.618-0.662,1.618-1.616v-1.323h-1.641
	v1.001c0,0.252-0.137,0.39-0.389,0.39h-1.779c-0.254,0-0.39-0.138-0.39-0.39v-4.428c0-0.251,0.136-0.388,0.39-0.388h1.779
	c0.252,0,0.389,0.137,0.389,0.388V95.567z M931.457,95.202h1.596v-0.959c0-0.958-0.66-1.618-1.617-1.618h-2.421
	c-0.958,0-1.618,0.66-1.618,1.618v1.393c0,0.913,0.751,1.451,1.641,1.645l2.124,0.455c0.251,0.058,0.388,0.137,0.388,0.39v0.864
	c0,0.252-0.137,0.39-0.388,0.39h-1.781c-0.249,0-0.388-0.138-0.388-0.39v-0.729h-1.596v1.051c0,0.954,0.66,1.616,1.618,1.616h2.558
	c0.957,0,1.617-0.662,1.617-1.616v-1.483c0-0.914-0.754-1.451-1.641-1.646l-2.124-0.453c-0.251-0.059-0.388-0.139-0.388-0.39v-0.777
	c0-0.251,0.137-0.388,0.388-0.388h1.646c0.251,0,0.387,0.137,0.387,0.388V95.202z M925.375,92.672h-1.643v6.317
	c0,0.252-0.135,0.39-0.385,0.39h-1.806c-0.251,0-0.388-0.138-0.388-0.39v-6.317h-1.642v6.64c0,0.954,0.661,1.616,1.618,1.616h2.626
	c0.957,0,1.618-0.662,1.618-1.616V92.672z M915.817,98.989c0,0.252-0.137,0.39-0.389,0.39H913.5c-0.252,0-0.388-0.138-0.388-0.39
	v-4.428c0-0.251,0.136-0.388,0.388-0.388h1.929c0.252,0,0.389,0.137,0.389,0.388V98.989z M913.088,92.625
	c-0.959,0-1.617,0.66-1.617,1.618v5.068c0,0.954,0.658,1.616,1.617,1.616h2.752c0.957,0,1.618-0.662,1.618-1.616v-5.068
	c0-0.958-0.661-1.618-1.618-1.618H913.088z M907.842,95.922c0,0.251-0.137,0.388-0.389,0.388h-2.134v-2.089h2.134
	c0.252,0,0.389,0.139,0.389,0.388V95.922z M909.733,100.885l-1.366-3.117c0.683-0.194,1.115-0.773,1.115-1.548v-1.931
	c0-0.957-0.659-1.617-1.615-1.617h-4.188v8.213h1.64v-3.047h1.323l1.326,3.047H909.733z M896.285,92.672v8.213h5.371v-1.55h-3.729
	V97.46h3.024v-1.55h-3.024v-1.689h3.729v-1.549H896.285z M893.91,92.672h-1.8l-2.122,4.813l-2.124-4.813h-1.8v8.213h1.549v-5.476
	l1.781,4.161h1.187l1.78-4.161v5.476h1.549V92.672z M883.813,92.672h-1.641v6.317c0,0.252-0.137,0.39-0.386,0.39h-1.805
	c-0.253,0-0.39-0.138-0.39-0.39v-6.317h-1.641v6.64c0,0.954,0.661,1.616,1.618,1.616h2.627c0.957,0,1.616-0.662,1.616-1.616V92.672z
	 M874.164,92.672v5.599l-3.023-5.599h-1.768v8.213h1.538v-5.602l3.024,5.602h1.768v-8.213H874.164z"/>
<path fill="#929497" d="M842.958,202.267v8.213h5.373v-1.55h-3.73v-1.871h3.023v-1.552h-3.023v-1.689h3.73v-1.551H842.958z
	 M836.523,208.93v-5.112h2.225c0.252,0,0.39,0.137,0.39,0.388v4.336c0,0.252-0.138,0.389-0.39,0.389H836.523z M834.881,202.267
	v8.213h4.279c0.956,0,1.617-0.662,1.617-1.616v-4.979c0-0.957-0.661-1.618-1.617-1.618H834.881z M831.06,208.59
	c0,0.249-0.137,0.386-0.386,0.386h-1.932c-0.252,0-0.387-0.137-0.387-0.386v-4.43c0-0.25,0.135-0.388,0.387-0.388h1.932
	c0.249,0,0.386,0.138,0.386,0.388V208.59z M828.332,202.223c-0.956,0-1.619,0.659-1.619,1.618v5.066
	c0,0.956,0.663,1.619,1.619,1.619h2.751c0.956,0,1.617-0.663,1.617-1.619v-5.066c0-0.959-0.661-1.618-1.617-1.618H828.332z
	 M823.234,205.164h1.641v-1.323c0-0.959-0.661-1.618-1.619-1.618h-2.602c-0.957,0-1.619,0.659-1.619,1.618v5.066
	c0,0.956,0.662,1.619,1.619,1.619h2.602c0.958,0,1.619-0.663,1.619-1.619v-1.324h-1.641v1.007c0,0.249-0.138,0.386-0.389,0.386
	h-1.781c-0.251,0-0.389-0.137-0.389-0.386v-4.43c0-0.25,0.138-0.388,0.389-0.388h1.781c0.251,0,0.389,0.138,0.389,0.388V205.164z"/>
<path fill="#929497" d="M858.787,190.246h1.643v-1.073c0-0.957-0.661-1.619-1.622-1.619h-2.701c-0.958,0-1.619,0.662-1.619,1.619
	v5.065c0,0.957,0.661,1.619,1.619,1.619h2.701c0.961,0,1.622-0.662,1.622-1.619v-3.022h-3.148v1.48h1.506v1.224
	c0,0.251-0.138,0.388-0.389,0.388h-1.881c-0.252,0-0.389-0.137-0.389-0.388v-4.428c0-0.252,0.137-0.389,0.389-0.389h1.881
	c0.251,0,0.389,0.137,0.389,0.389V190.246z M850.768,187.6v5.6l-3.023-5.6h-1.766v8.213h1.536v-5.6l3.024,5.6h1.769V187.6H850.768z
	 M841.961,195.813h1.642V187.6h-1.642V195.813z M835.525,194.262v-5.112h2.225c0.252,0,0.39,0.137,0.39,0.388v4.336
	c0,0.252-0.138,0.389-0.39,0.389H835.525z M833.883,187.6v8.213h4.277c0.957,0,1.62-0.663,1.62-1.619v-4.977
	c0-0.956-0.663-1.617-1.62-1.617H833.883z M826.982,187.6v8.213h5.086v-1.551h-3.445V187.6H826.982z M822.968,195.813h1.64V187.6
	h-1.64V195.813z M820.718,187.6h-1.642v6.32c0,0.251-0.138,0.388-0.387,0.388h-1.807c-0.25,0-0.387-0.137-0.387-0.388v-6.32h-1.642
	v6.639c0,0.957,0.661,1.619,1.618,1.619h2.626c0.956,0,1.619-0.662,1.619-1.619V187.6z M808.647,194.284v-1.94h2.054
	c0.32,0,0.526,0.021,0.526,0.364v1.188c0,0.25-0.137,0.388-0.389,0.388H808.647z M808.647,190.884v-1.757h2.101
	c0.25,0,0.387,0.138,0.387,0.387v0.982c0,0.321-0.091,0.388-0.387,0.388H808.647z M807.006,187.6v8.213h4.244
	c0.956,0,1.618-0.663,1.618-1.619v-1.349c0-0.49-0.239-0.958-0.809-1.229c0.522-0.308,0.718-0.741,0.718-1.231v-1.167
	c0-0.956-0.662-1.617-1.619-1.617H807.006z"/>
<path fill="#929497" d="M847.928,179.252c0,0.252-0.138,0.388-0.387,0.388h-1.932c-0.252,0-0.387-0.136-0.387-0.388v-4.429
	c0-0.252,0.135-0.388,0.387-0.388h1.932c0.249,0,0.387,0.136,0.387,0.388V179.252z M845.199,172.886
	c-0.958,0-1.619,0.662-1.619,1.618v5.068c0,0.956,0.661,1.615,1.619,1.615h2.752c0.955,0,1.617-0.659,1.617-1.615v-5.068
	c0-0.956-0.662-1.618-1.617-1.618H845.199z M842.153,174.459v-1.527h-5.931v1.527h2.144v6.686h1.643v-6.686H842.153z
	 M827.459,176.697v-2.216h2.146c0.251,0,0.389,0.138,0.389,0.388v1.439c0,0.252-0.138,0.389-0.389,0.389H827.459z M825.818,172.932
	v8.213h1.641v-2.897h2.557c0.958,0,1.619-0.662,1.619-1.62v-2.077c0-0.956-0.661-1.618-1.619-1.618H825.818z M823.569,172.932
	h-1.642v6.32c0,0.252-0.137,0.388-0.387,0.388h-1.807c-0.251,0-0.387-0.136-0.387-0.388v-6.32h-1.642v6.641
	c0,0.956,0.663,1.615,1.619,1.615h2.626c0.957,0,1.618-0.659,1.618-1.615V172.932z"/>
<line fill="none" stroke="#929497" stroke-width="0.8149" x1="103.722" y1="217.95" x2="103.722" y2="307.272"/>
<line fill="none" stroke="#929497" stroke-width="0.8149" x1="283.6" y1="238.683" x2="283.6" y2="268.569"/>
<line fill="none" stroke="#929497" stroke-width="0.8149" x1="445.716" y1="219.794" x2="445.716" y2="259.437"/>
<line fill="none" stroke="#929497" stroke-width="0.8149" x1="653.057" y1="97.058" x2="653.057" y2="284.166"/>
<line fill="none" stroke="#929497" stroke-width="0.8149" x1="833.603" y1="224.001" x2="833.603" y2="291.059"/>
<line fill="none" stroke="#CB2026" stroke-width="0.8149" x1="209.263" y1="138.191" x2="209.263" y2="274.777"/>
<g>
	<path fill="#CB2026" d="M375.762,129.186h1.596v-0.959c0-0.958-0.661-1.62-1.62-1.62h-2.419c-0.959,0-1.618,0.662-1.618,1.62v1.391
		c0,0.915,0.753,1.448,1.641,1.645l2.123,0.455c0.252,0.057,0.389,0.138,0.389,0.388v0.868c0,0.252-0.137,0.39-0.389,0.39h-1.778
		c-0.252,0-0.39-0.138-0.39-0.39v-0.729H371.7v1.049c0,0.957,0.659,1.618,1.618,1.618h2.556c0.959,0,1.62-0.661,1.62-1.618v-1.484
		c0-0.914-0.754-1.448-1.642-1.643l-2.124-0.457c-0.251-0.055-0.388-0.137-0.388-0.387v-0.777c0-0.251,0.137-0.388,0.388-0.388
		h1.646c0.25,0,0.387,0.137,0.387,0.388V129.186z M370.285,128.181v-1.527h-5.932v1.527h2.145v6.685h1.642v-6.685H370.285z
		 M361.262,129.904c0,0.252-0.138,0.389-0.387,0.389h-2.136v-2.089h2.136c0.249,0,0.387,0.137,0.387,0.388V129.904z
		 M363.154,134.865l-1.368-3.114c0.685-0.194,1.117-0.775,1.117-1.55v-1.93c0-0.957-0.661-1.618-1.618-1.618h-4.188v8.212h1.642
		v-3.044h1.323l1.326,3.044H363.154z M353.275,132.973c0,0.252-0.136,0.39-0.388,0.39h-1.929c-0.252,0-0.389-0.138-0.389-0.39
		v-4.428c0-0.251,0.137-0.388,0.389-0.388h1.929c0.252,0,0.388,0.137,0.388,0.388V132.973z M350.547,126.606
		c-0.955,0-1.617,0.662-1.617,1.62v5.066c0,0.957,0.662,1.618,1.617,1.618h2.752c0.956,0,1.618-0.661,1.618-1.618v-5.066
		c0-0.958-0.662-1.62-1.618-1.62H350.547z M343.054,130.417v-2.213h2.145c0.251,0,0.39,0.137,0.39,0.388v1.439
		c0,0.249-0.139,0.386-0.39,0.386H343.054z M341.41,126.653v8.212h1.644v-2.898h2.555c0.957,0,1.618-0.66,1.618-1.615v-2.08
		c0-0.957-0.661-1.618-1.618-1.618H341.41z M337.543,129.186h1.595v-0.959c0-0.958-0.66-1.62-1.617-1.62h-2.42
		c-0.956,0-1.619,0.662-1.619,1.62v1.391c0,0.915,0.755,1.448,1.643,1.645l2.123,0.455c0.252,0.057,0.388,0.138,0.388,0.388v0.868
		c0,0.252-0.136,0.39-0.388,0.39h-1.782c-0.251,0-0.387-0.138-0.387-0.39v-0.729h-1.597v1.049c0,0.957,0.663,1.618,1.619,1.618
		h2.558c0.957,0,1.617-0.661,1.617-1.618v-1.484c0-0.914-0.752-1.448-1.641-1.643l-2.123-0.457
		c-0.251-0.055-0.388-0.137-0.388-0.387v-0.777c0-0.251,0.137-0.388,0.388-0.388h1.643c0.253,0,0.389,0.137,0.389,0.388V129.186z"/>
	<path fill="#CB2026" d="M364.982,113.066v-6.87h-2.529c-1.312,0-2.021-0.708-2.021-2.021v-1.72h-7.275v3.336
		c0,4.042,3.235,7.274,7.275,7.274H364.982z M366.498,106.196v6.87h4.596c4.043,0,7.276-3.232,7.276-7.274V83.563
		c0-4.044-3.233-7.276-7.276-7.276h-4.801v6.872h2.78c1.314,0,2.021,0.706,2.021,2.021v5.507l-1.01,0.607
		c-1.77,1.061-3.638,1.362-5.054,1.362h-2.98c-1.313,0-2.021-0.706-2.021-2.021v-5.455c0-1.314,0.708-2.021,2.021-2.021h2.729
		v-6.872h-4.75c-4.04,0-7.273,3.232-7.273,7.276v8.285c0,4.043,3.233,7.274,7.273,7.274h4.295c2.73,0,4.648-1.717,5.761-2.778
		l1.01-0.961v8.793c0,1.313-0.706,2.021-2.021,2.021H366.498z M338.155,112.865h7.272V76.488h-5.758l-8.135,3.839v6.064l6.62-2.325
		V112.865z"/>
</g>
<line fill="none" stroke="#CB2026" stroke-width="0.8149" x1="355.482" y1="148.569" x2="355.482" y2="271.847"/>
<line fill="none" stroke="#CB2026" stroke-width="0.8149" x1="555.605" y1="151.671" x2="555.605" y2="276.406"/>
<line fill="none" stroke="#CB2026" stroke-width="0.8149" x1="736.571" y1="229.35" x2="736.571" y2="291.059"/>
<g>
	<line fill="none" stroke="#CB2026" stroke-width="0.8149" x1="918.514" y1="129.357" x2="918.514" y2="340.49"/>
</g>
</svg>
