<?xml version="1.0" encoding="utf-8"?>
<!-- Generator: Adobe Illustrator 22.0.0, SVG Export Plug-In . SVG Version: 6.00 Build 0)  -->
<svg version="1.1" id="Layer_1" xmlns="http://www.w3.org/2000/svg" xmlns:xlink="http://www.w3.org/1999/xlink" x="0px" y="0px"
	 viewBox="0 0 300 300" style="enable-background:new 0 0 300 300;" xml:space="preserve">
<style type="text/css">
	.st0{fill:#CB2026;}
	.st1{fill:#FFFFFF;}
</style>
<g>
	<path class="st0" d="M206,11.9l-17.5-7C177.7,37.5,160.4,57,138.1,57c-22.3,0-39.6-19.5-50.5-52.1l-17.5,7c0,0,23.3,60.6-22.1,81.1
		c0,29.5,0,175.9,0,175.9h90h90c0,0,0-146.4,0-175.9C182.7,72.4,206,11.9,206,11.9z"/>
	<g>
		<path class="st1" d="M96.4,162.3v20.3l2.2-2.1c2.4-2.3,6.5-6,12.4-6h8.2c8.7,0,15.7,7,15.7,15.7v20.3c0,8.7-7,15.7-15.7,15.7H95.3
			c-8.7,0-15.7-7-15.7-15.7v-8.4h15.7v4.9c0,2.8,1.5,4.4,4.3,4.4h15.1c2.8,0,4.3-1.5,4.3-4.4v-14.2c0-2.8-1.5-4.3-4.3-4.3h-5.3
			c-3,0-7.1,0.7-10.9,2.9l-2.2,1.3l-15.7-4.6v-40.7h51.9v14.8L96.4,162.3L96.4,162.3z M86.4,209.3c0,6.7,3.9,10.7,10.7,10.7h20.3
			c6.7,0,10.7-3.9,10.7-10.7v-18.2c0-6.7-3.9-10.7-10.7-10.7h-7c-5.9,0-10.1,3-14,6.2l-6.7-2V156h36.2v-2.2H87.4v32.1l8.9,2.6
			c4.2-3.2,8.4-5.9,14-5.9h7c5.4,0,8.5,3,8.5,8.5v18.2c0,5.4-3,8.5-8.5,8.5H97c-5.4,0-8.5-3-8.5-8.5v-0.8h-2.2V209.3z"/>
		<path class="st1" d="M158.2,207.3c0,2.8,1.5,4.3,4.4,4.3h14.6c2.8,0,4.4-1.5,4.4-4.3v-10.2c0-3.3-2.2-4.4-5.2-4.4h-14.9v-13.9
			h14.9c3,0,4.3-0.9,4.3-4.3V166c0-2.8-1.5-4.4-4.3-4.4h-12.8c-2.8,0-4.3,1.5-4.3,4.4v5h-15.7v-8.3c0-8.7,7-15.7,15.7-15.7h21.5
			c8.7,0,15.7,7,15.7,15.7V174c0,4.7-1.8,8.8-6.9,11.7c5.4,2.6,7.7,7.1,7.7,11.7v13.1c0,8.7-7,15.7-15.7,15.7h-23.3
			c-8.7,0-15.7-7-15.7-15.7v-8.3h15.7V207.3z M189.6,175v-11.1c0-6.7-3.9-10.7-10.7-10.7h-18.1c-6.7,0-10.7,3.9-10.7,10.7v0.8h2.2
			v-0.8c0-5.4,3-8.5,8.5-8.5h18.1c5.4,0,8.5,3,8.5,8.5V175c0,6.9-5.1,9.7-11.1,9.7h-8.2v2.2h8.2c7.4,0,12,3.8,12,10.1v12.4
			c0,5.4-3,8.5-8.5,8.5H160c-5.4,0-8.5-3-8.5-8.5v-0.8h-2.2v0.8c0,6.7,3.9,10.7,10.7,10.7h19.8c6.7,0,10.7-3.9,10.7-10.7V197
			c0-5.4-2.9-9.7-9.1-11.2C187.4,183.8,189.6,179.9,189.6,175z"/>
	</g>
	<g>
		<path class="st1" d="M200.2,39.9c1-15.5,5.8-28,5.8-28l-17.5-7c-3.4,10.2-7.4,19.1-12,26.5L200.2,39.9z"/>
		<path class="st1" d="M99.1,30.5c-4.4-7.3-8.2-15.8-11.5-25.6l-17.5,7c0,0,4.6,11.9,5.7,26.9L99.1,30.5z"/>
	</g>
	<g>
		<path class="st1" d="M98.6,130.3h-2.9c-1.4,0-2.5-0.4-3.3-1.1c-0.8-0.8-1.2-1.8-1.2-3.3v-8.5c0-1.4,0.4-2.5,1.2-3.3
			c0.8-0.8,1.9-1.1,3.3-1.1h2.9c1.4,0,2.5,0.4,3.3,1.1c0.8,0.8,1.2,1.8,1.2,3.2v1.3c0,0.4-0.2,0.6-0.6,0.6h-2.3
			c-0.4,0-0.6-0.2-0.6-0.6v-1.1c0-0.6-0.1-1-0.4-1.2c-0.2-0.2-0.6-0.4-1.2-0.4h-1.8c-0.6,0-1,0.1-1.2,0.4c-0.2,0.2-0.4,0.7-0.4,1.2
			v8.2c0,0.6,0.1,1,0.4,1.2c0.2,0.2,0.6,0.4,1.2,0.4H98c0.6,0,1-0.1,1.2-0.4c0.2-0.2,0.4-0.7,0.4-1.2v-1.1c0-0.4,0.2-0.6,0.6-0.6
			h2.3c0.4,0,0.6,0.2,0.6,0.6v1.3c0,1.4-0.4,2.5-1.2,3.2C101,129.9,100,130.3,98.6,130.3z"/>
		<path class="st1" d="M115.3,130.3h-8.8c-0.4,0-0.6-0.2-0.6-0.6v-16.2c0-0.4,0.2-0.6,0.6-0.6h8.8c0.4,0,0.5,0.2,0.5,0.6v1.8
			c0,0.4-0.2,0.6-0.5,0.6h-5.6c-0.2,0-0.3,0.1-0.3,0.3v3.5c0,0.2,0.1,0.3,0.3,0.3h4.6c0.4,0,0.6,0.2,0.6,0.6v1.8
			c0,0.4-0.2,0.6-0.6,0.6h-4.6c-0.2,0-0.3,0.1-0.3,0.3v3.7c0,0.2,0.1,0.3,0.3,0.3h5.6c0.4,0,0.5,0.2,0.5,0.6v1.8
			C115.8,130.1,115.6,130.3,115.3,130.3z"/>
		<path class="st1" d="M121.6,130.3h-2.2c-0.4,0-0.6-0.2-0.6-0.6v-16.2c0-0.4,0.2-0.6,0.6-0.6h2c0.4,0,0.6,0.1,0.8,0.4l5.4,10.2h0.1
			v-10c0-0.4,0.2-0.6,0.6-0.6h2.2c0.4,0,0.6,0.2,0.6,0.6v16.2c0,0.4-0.2,0.6-0.6,0.6h-2c-0.4,0-0.7-0.2-0.9-0.5l-5.4-10h-0.1v10
			C122.2,130.1,122,130.3,121.6,130.3z"/>
		<path class="st1" d="M139.9,130.3h-2.3c-0.4,0-0.6-0.2-0.6-0.6v-13.5c0-0.2-0.1-0.3-0.3-0.3h-3.1c-0.4,0-0.6-0.2-0.6-0.6v-1.8
			c0-0.4,0.2-0.6,0.6-0.6h10.2c0.4,0,0.6,0.2,0.6,0.6v1.8c0,0.4-0.2,0.6-0.6,0.6h-3.1c-0.2,0-0.3,0.1-0.3,0.3v13.5
			C140.4,130.1,140.2,130.3,139.9,130.3z"/>
		<path class="st1" d="M149.3,130.3H147c-0.4,0-0.6-0.2-0.6-0.6v-16.2c0-0.4,0.2-0.6,0.6-0.6h6.4c1.4,0,2.5,0.4,3.3,1.2
			c0.8,0.8,1.2,1.9,1.2,3.3v2.1c0,2-0.8,3.4-2.4,4v0.1l2.9,6c0.2,0.4,0,0.6-0.5,0.6h-2.2c-0.3,0-0.6,0-0.7-0.1
			c-0.1-0.1-0.3-0.2-0.3-0.5l-2.7-5.8h-1.8c-0.2,0-0.3,0.1-0.3,0.3v5.5C149.8,130.1,149.6,130.3,149.3,130.3z M150.1,121.2h2.6
			c0.6,0,1-0.1,1.3-0.4c0.3-0.2,0.4-0.6,0.4-1.2v-2.1c0-0.6-0.1-1-0.4-1.2c-0.3-0.3-0.7-0.4-1.3-0.4h-2.6c-0.2,0-0.3,0.1-0.3,0.3
			v4.6C149.8,121.1,149.9,121.2,150.1,121.2z"/>
		<path class="st1" d="M162.9,130.3h-2.6c-0.3,0-0.4-0.2-0.3-0.6l4.2-16.2c0.1-0.4,0.4-0.6,0.8-0.6h3.6c0.4,0,0.7,0.2,0.8,0.6
			l4.2,16.2c0.1,0.4,0,0.6-0.3,0.6h-2.6c-0.2,0-0.3,0-0.4-0.1c-0.1-0.1-0.1-0.2-0.2-0.4l-0.8-3h-5.2l-0.8,3c0,0.2-0.1,0.4-0.2,0.4
			C163.2,130.2,163.1,130.3,162.9,130.3z M166.8,116.2l-1.9,7.8h4l-1.9-7.8H166.8z"/>
		<path class="st1" d="M185.5,130.3h-8.8c-0.4,0-0.6-0.2-0.6-0.6v-16.2c0-0.4,0.2-0.6,0.6-0.6h2.3c0.4,0,0.6,0.2,0.6,0.6V127
			c0,0.2,0.1,0.3,0.3,0.3h5.7c0.4,0,0.5,0.2,0.5,0.6v1.8C186,130.1,185.8,130.3,185.5,130.3z"/>
	</g>
</g>
</svg>
