<svg id="Layer_1" data-name="Layer 1" xmlns="http://www.w3.org/2000/svg" viewBox="0 0 300 175"><defs><style>.cls-1{fill:#cb2026;}.cls-2{fill:#fff;}.cls-3{font-size:30px;font-family:Rajdhani-Bold, Rajdhani;font-weight:700;}</style></defs><title>justMe</title><path class="cls-1" d="M185.55,13.77l-8.35-3.35C172,26,163.75,35.35,153.07,35.35S134.13,26,128.94,10.42l-8.35,3.35s11.14,29-10.58,38.78v84.14h86.13V52.55C174.4,42.73,185.55,13.77,185.55,13.77Z"/><path class="cls-2" d="M133.13,85.71v9.73l1-1c1.14-1.09,3.12-2.86,5.93-2.86H144a7.46,7.46,0,0,1,7.49,7.49v9.73A7.46,7.46,0,0,1,144,116.3H132.61a7.46,7.46,0,0,1-7.49-7.49v-4h7.49v2.34a1.87,1.87,0,0,0,2.08,2.08h7.23a1.87,1.87,0,0,0,2.08-2.08v-6.81a1.87,1.87,0,0,0-2.08-2.08h-2.55a10.18,10.18,0,0,0-5.2,1.4l-1,.62-7.49-2.18V78.64h24.81v7.07H133.13Zm-4.78,22.47c0,3.23,1.87,5.1,5.1,5.1h9.73c3.22,0,5.1-1.87,5.1-5.1V99.5c0-3.22-1.87-5.1-5.1-5.1h-3.33c-2.81,0-4.84,1.46-6.71,3l-3.22-.94V82.7h17.32v-1H128.86V97l4.26,1.25c2-1.51,4-2.81,6.71-2.81h3.33a3.67,3.67,0,0,1,4.06,4.06v8.69c0,2.6-1.46,4.06-4.06,4.06h-9.73c-2.6,0-4.06-1.46-4.06-4.06v-.36h-1Z"/><path class="cls-2" d="M162.72,107.25a1.87,1.87,0,0,0,2.08,2.08h7a1.87,1.87,0,0,0,2.08-2.08v-4.89c0-1.56-1-2.08-2.5-2.08h-7.13V93.62h7.13c1.46,0,2.08-.42,2.08-2.08V87.48a1.87,1.87,0,0,0-2.08-2.08h-6.14a1.87,1.87,0,0,0-2.08,2.08v2.39h-7.49v-4a7.46,7.46,0,0,1,7.49-7.49h10.3a7.46,7.46,0,0,1,7.49,7.49v5.41a6.12,6.12,0,0,1-3.28,5.62,6,6,0,0,1,3.69,5.62v6.24a7.46,7.46,0,0,1-7.49,7.49H162.72a7.46,7.46,0,0,1-7.49-7.49v-4h7.49Zm15-15.45V86.49c0-3.22-1.87-5.1-5.1-5.1H164c-3.22,0-5.1,1.87-5.1,5.1v.36h1v-.36c0-2.6,1.46-4.06,4.06-4.06h8.63c2.6,0,4.06,1.46,4.06,4.06V91.8c0,3.28-2.45,4.63-5.31,4.63h-3.9v1h3.9c3.54,0,5.72,1.82,5.72,4.84v5.93c0,2.6-1.46,4.06-4.06,4.06h-9.47c-2.6,0-4.06-1.46-4.06-4.06v-.36h-1v.36c0,3.22,1.87,5.1,5.1,5.1H173c3.22,0,5.1-1.87,5.1-5.1V102.3a5.22,5.22,0,0,0-4.37-5.36C176.66,96,177.7,94.14,177.7,91.8Z"/><path class="cls-2" d="M182.79,27.15a50.76,50.76,0,0,1,2.76-13.38l-8.35-3.35a60.29,60.29,0,0,1-5.74,12.69Z"/><path class="cls-2" d="M134.43,22.68a60.8,60.8,0,0,1-5.49-12.27l-8.35,3.35a50.7,50.7,0,0,1,2.73,12.88Z"/><path class="cls-2" d="M167.66,43.23c0,1.43,1.67,2.59,3.61,2.59a3.58,3.58,0,0,0,3.34-1.89H177c-.49,2-2.79,3.63-5.69,3.63a6,6,0,0,1-5.53-2.86,2.65,2.65,0,0,0-2.45-1.48,2.65,2.65,0,0,0,2.45-1.48,6.11,6.11,0,0,1,5.53-2.86c2.89,0,5.19,1.6,5.69,3.63h-2.34a3.58,3.58,0,0,0-3.34-1.89C169.33,40.63,167.66,41.79,167.66,43.23Z"/><path class="cls-2" d="M134.18,70.39h-1.4a2.15,2.15,0,0,1-1.57-.54,2.07,2.07,0,0,1-.55-1.55V64.22a2.08,2.08,0,0,1,.55-1.55,2.16,2.16,0,0,1,1.57-.54h1.4a2.14,2.14,0,0,1,1.56.55,2.07,2.07,0,0,1,.56,1.55v.6a.25.25,0,0,1-.28.28h-1.08q-.27,0-.27-.28V64.3a.64.64,0,0,0-.76-.76H133a.79.79,0,0,0-.57.17.81.81,0,0,0-.17.59v3.92a.81.81,0,0,0,.17.59A.79.79,0,0,0,133,69h.87a.64.64,0,0,0,.76-.76v-.53c0-.19.09-.28.27-.28H136a.25.25,0,0,1,.28.28v.6a2.07,2.07,0,0,1-.56,1.55A2.14,2.14,0,0,1,134.18,70.39Z"/><path class="cls-2" d="M142.18,70.39H138a.24.24,0,0,1-.27-.27V62.4a.24.24,0,0,1,.27-.27h4.2c.17,0,.26.09.26.27v.87c0,.18-.09.27-.26.27h-2.69c-.1,0-.15,0-.15.14v1.67c0,.09.05.14.15.14h2.2a.24.24,0,0,1,.27.27v.87a.24.24,0,0,1-.27.27h-2.2c-.1,0-.15,0-.15.14v1.79c0,.09.05.14.15.14h2.69c.17,0,.26.09.26.27v.87C142.43,70.3,142.35,70.39,142.18,70.39Z"/><path class="cls-2" d="M145.2,70.39h-1.07a.24.24,0,0,1-.27-.27V62.4a.24.24,0,0,1,.27-.27h1a.36.36,0,0,1,.36.18l2.6,4.87h.05V62.4a.24.24,0,0,1,.27-.27h1.07a.24.24,0,0,1,.27.27v7.72a.24.24,0,0,1-.27.27h-.94a.43.43,0,0,1-.41-.26l-2.57-4.78h-.05v4.77A.24.24,0,0,1,145.2,70.39Z"/><path class="cls-2" d="M153.93,70.39h-1.08c-.19,0-.28-.09-.28-.27V63.68a.12.12,0,0,0-.14-.14H151a.24.24,0,0,1-.27-.27V62.4a.24.24,0,0,1,.27-.27h4.86a.24.24,0,0,1,.27.27v.87a.24.24,0,0,1-.27.27h-1.46q-.15,0-.15.14v6.44A.24.24,0,0,1,153.93,70.39Z"/><path class="cls-2" d="M158.43,70.39h-1.09a.24.24,0,0,1-.27-.27V62.4a.24.24,0,0,1,.27-.27h3.06a2.15,2.15,0,0,1,1.57.55,2.08,2.08,0,0,1,.56,1.56v1a1.88,1.88,0,0,1-1.14,1.93v.05l1.37,2.87q.12.31-.22.31h-1a.81.81,0,0,1-.33-.05.38.38,0,0,1-.17-.22l-1.29-2.78h-.86c-.1,0-.15,0-.15.14v2.64A.24.24,0,0,1,158.43,70.39Zm.41-4.36h1.26a.89.89,0,0,0,.61-.17.72.72,0,0,0,.19-.56v-1a.76.76,0,0,0-.19-.58.86.86,0,0,0-.61-.18h-1.26a.13.13,0,0,0-.14.14v2.21A.13.13,0,0,0,158.84,66Z"/><path class="cls-2" d="M165,70.39h-1.23c-.15,0-.21-.09-.15-.27l2-7.72a.37.37,0,0,1,.39-.27h1.71a.35.35,0,0,1,.39.27l2,7.72c.05.18,0,.27-.15.27h-1.23a.25.25,0,0,1-.19-.06.45.45,0,0,1-.08-.21l-.36-1.41h-2.51l-.36,1.41a.38.38,0,0,1-.08.21A.26.26,0,0,1,165,70.39Zm1.86-6.71-.93,3.71h1.9l-.93-3.71Z"/><path class="cls-2" d="M175.76,70.39h-4.23a.24.24,0,0,1-.27-.27V62.4a.24.24,0,0,1,.27-.27h1.09a.24.24,0,0,1,.27.27v6.43c0,.09.05.14.15.14h2.71c.17,0,.26.09.26.28v.87C176,70.3,175.93,70.39,175.76,70.39Z"/><text class="cls-3" transform="translate(102.33 159.67)">JUST ME</text></svg>