<?xml version="1.0" encoding="utf-8"?>
<!-- Generator: Adobe Illustrator 20.0.0, SVG Export Plug-In . SVG Version: 6.00 Build 0)  -->
<svg version="1.1" id="Layer_1" xmlns="http://www.w3.org/2000/svg" xmlns:xlink="http://www.w3.org/1999/xlink" x="0px" y="0px"
	 viewBox="0 0 300 175" style="enable-background:new 0 0 300 175;" xml:space="preserve">
<style type="text/css">
	.st0{fill:#CB2026;}
	.st1{fill:#FFFFFF;}
	.st2{enable-background:new    ;}
</style>
<title>justMe</title>
<path class="st0" d="M185.6,13.8l-8.4-3.4C172,26,163.8,35.3,153.1,35.3s-18.9-9.3-24.1-24.9l-8.3,3.4c0,0,11.1,29-10.6,38.8v84.1
	h86.1V52.5C174.4,42.7,185.6,13.8,185.6,13.8z"/>
<path class="st1" d="M133.1,85.7v9.7l1-1c1.1-1.1,3.1-2.9,5.9-2.9h3.9c4.1,0,7.5,3.3,7.5,7.4c0,0,0,0,0,0.1v9.7
	c0,4.1-3.3,7.5-7.4,7.5c0,0,0,0-0.1,0h-11.4c-4.1,0-7.5-3.3-7.5-7.4c0,0,0,0,0-0.1v-4h7.5v2.3c-0.1,1,0.6,2,1.6,2.1
	c0.1,0,0.3,0,0.4,0h7.2c1,0.1,2-0.6,2.1-1.6c0-0.1,0-0.3,0-0.4v-6.8c0.1-1-0.6-2-1.6-2.1c-0.1,0-0.3,0-0.4,0h-2.6
	c-1.8,0-3.6,0.5-5.2,1.4l-1,0.6l-7.5-2.2V78.6h24.8v7.1H133.1z M128.4,108.2c0,3.2,1.9,5.1,5.1,5.1h9.7c3.2,0,5.1-1.9,5.1-5.1v-8.7
	c0-3.2-1.9-5.1-5.1-5.1h-3.3c-2.8,0-4.8,1.5-6.7,3l-3.2-0.9V82.7h17.3v-1h-18.4V97l4.3,1.2c2-1.5,4-2.8,6.7-2.8h3.3
	c2-0.2,3.8,1.2,4.1,3.2c0,0.3,0,0.6,0,0.8v8.7c0,2.6-1.5,4.1-4.1,4.1h-9.7c-2.6,0-4.1-1.5-4.1-4.1v-0.4h-1L128.4,108.2z"/>
<path class="st1" d="M162.7,107.2c-0.1,1,0.6,2,1.6,2.1c0.1,0,0.3,0,0.4,0h7c1,0.1,2-0.6,2.1-1.6c0-0.1,0-0.3,0-0.4v-4.9
	c0-1.6-1-2.1-2.5-2.1h-7.1v-6.7h7.1c1.5,0,2.1-0.4,2.1-2.1v-4.1c0.1-1-0.6-2-1.6-2.1c-0.1,0-0.3,0-0.4,0h-6.1c-1-0.1-2,0.6-2.1,1.6
	c0,0.1,0,0.3,0,0.4v2.4h-7.5v-4c0-4.1,3.3-7.5,7.4-7.5c0,0,0,0,0.1,0h10.3c4.1,0,7.5,3.3,7.5,7.4c0,0,0,0,0,0.1v5.4
	c0.1,2.3-1.2,4.5-3.3,5.6c2.3,0.9,3.7,3.2,3.7,5.6v6.2c0,4.1-3.3,7.5-7.4,7.5c0,0,0,0-0.1,0h-11.2c-4.1,0-7.5-3.3-7.5-7.4
	c0,0,0,0,0-0.1v-4h7.5V107.2z M177.7,91.8v-5.3c0-3.2-1.9-5.1-5.1-5.1H164c-3.2,0-5.1,1.9-5.1,5.1v0.4h1v-0.4c0-2.6,1.5-4.1,4.1-4.1
	h8.6c2.6,0,4.1,1.5,4.1,4.1v5.3c0,3.3-2.4,4.6-5.3,4.6h-3.9v1h3.9c3.5,0,5.7,1.8,5.7,4.8v5.9c0,2.6-1.5,4.1-4.1,4.1h-9.5
	c-2.6,0-4.1-1.5-4.1-4.1v-0.4h-1v0.4c0,3.2,1.9,5.1,5.1,5.1h9.4c3.2,0,5.1-1.9,5.1-5.1v-5.9c0.1-2.6-1.8-4.9-4.4-5.4
	C176.7,96,177.7,94.1,177.7,91.8L177.7,91.8z"/>
<path class="st1" d="M182.8,27.1c0.3-4.6,1.2-9.1,2.8-13.4l-8.4-3.3c-1.4,4.4-3.3,8.7-5.7,12.7L182.8,27.1z"/>
<path class="st1" d="M134.4,22.7c-2.3-3.9-4.1-8-5.5-12.3l-8.3,3.4c1.5,4.2,2.4,8.5,2.7,12.9L134.4,22.7z"/>
<path class="st1" d="M167.7,43.2c0,1.4,1.7,2.6,3.6,2.6c1.4,0.1,2.7-0.7,3.3-1.9h2.4c-0.5,2-2.8,3.6-5.7,3.6c-2.2,0.2-4.4-1-5.5-2.9
	c-0.5-0.9-1.4-1.5-2.4-1.5c1,0,2-0.6,2.4-1.5c1.2-1.9,3.3-3,5.5-2.9c2.9,0,5.2,1.6,5.7,3.6h-2.3c-0.7-1.2-2-2-3.3-1.9
	C169.3,40.6,167.7,41.8,167.7,43.2z"/>
<path class="st1" d="M134.2,70.4h-1.4c-0.6,0-1.1-0.2-1.6-0.5c-0.4-0.4-0.6-1-0.6-1.6v-4.1c0-0.6,0.2-1.1,0.6-1.5
	c0.4-0.4,1-0.6,1.6-0.5h1.4c0.6,0,1.1,0.2,1.6,0.5c0.4,0.4,0.6,1,0.6,1.6v0.6c0,0.1-0.1,0.3-0.2,0.3c0,0,0,0-0.1,0h-1.1
	c-0.2,0-0.3-0.1-0.3-0.3v-0.5c0.1-0.3-0.1-0.7-0.5-0.8c-0.1,0-0.2,0-0.3,0H133c-0.2,0-0.4,0-0.6,0.2c-0.1,0.2-0.2,0.4-0.2,0.6v3.9
	c0,0.2,0,0.4,0.2,0.6c0.2,0.1,0.4,0.2,0.6,0.2h0.9c0.3,0.1,0.7-0.1,0.8-0.5c0-0.1,0-0.2,0-0.3v-0.5c0-0.2,0.1-0.3,0.3-0.3h1.1
	c0.1,0,0.3,0.1,0.3,0.2c0,0,0,0,0,0.1v0.6c0,0.6-0.2,1.1-0.6,1.6C135.3,70.2,134.7,70.4,134.2,70.4z"/>
<path class="st1" d="M142.2,70.4H138c-0.1,0-0.3-0.1-0.3-0.2c0,0,0,0,0-0.1v-7.7c0-0.1,0.1-0.3,0.2-0.3c0,0,0,0,0.1,0h4.2
	c0.2,0,0.3,0.1,0.3,0.3v0.9c0,0.2-0.1,0.3-0.3,0.3h-2.7c-0.1,0-0.1,0-0.1,0.1v1.7c0,0.1,0.1,0.1,0.1,0.1h2.2c0.1,0,0.3,0.1,0.3,0.2
	c0,0,0,0,0,0.1v0.9c0,0.1-0.1,0.3-0.2,0.3c0,0,0,0-0.1,0h-2.2c-0.1,0-0.1,0-0.1,0.1v1.8c0,0.1,0.1,0.1,0.1,0.1h2.7
	c0.2,0,0.3,0.1,0.3,0.3v0.9C142.4,70.3,142.4,70.4,142.2,70.4z"/>
<path class="st1" d="M145.2,70.4h-1.1c-0.1,0-0.3-0.1-0.3-0.2c0,0,0,0,0-0.1v-7.7c0-0.1,0.1-0.3,0.2-0.3c0,0,0,0,0.1,0h1
	c0.1,0,0.3,0.1,0.4,0.2l2.6,4.9h0.1v-4.8c0-0.1,0.1-0.3,0.2-0.3c0,0,0,0,0.1,0h1.1c0.1,0,0.3,0.1,0.3,0.2c0,0,0,0,0,0.1v7.7
	c0,0.1-0.1,0.3-0.2,0.3c0,0,0,0-0.1,0h-0.9c-0.2,0-0.3-0.1-0.4-0.3l-2.6-4.8h-0.1v4.8c0,0.1-0.1,0.3-0.2,0.3
	C145.3,70.4,145.2,70.4,145.2,70.4z"/>
<path class="st1" d="M153.9,70.4h-1.1c-0.2,0-0.3-0.1-0.3-0.3v-6.4c0-0.1,0-0.1-0.1-0.1c0,0,0,0,0,0H151c-0.1,0-0.3-0.1-0.3-0.2
	c0,0,0,0,0-0.1v-0.9c0-0.1,0.1-0.3,0.2-0.3c0,0,0,0,0.1,0h4.9c0.1,0,0.3,0.1,0.3,0.2c0,0,0,0,0,0.1v0.9c0,0.1-0.1,0.3-0.2,0.3
	c0,0,0,0-0.1,0h-1.5c-0.1,0-0.1,0-0.1,0.1v6.4c0,0.1-0.1,0.3-0.2,0.3C154,70.4,154,70.4,153.9,70.4z"/>
<path class="st1" d="M158.4,70.4h-1.1c-0.1,0-0.3-0.1-0.3-0.2c0,0,0,0,0-0.1v-7.7c0-0.1,0.1-0.3,0.2-0.3c0,0,0,0,0.1,0h3.1
	c0.6,0,1.1,0.2,1.6,0.5c0.4,0.4,0.6,1,0.6,1.6v1c0.1,0.8-0.4,1.6-1.1,1.9v0.1l1.4,2.9c0.1,0.2,0,0.3-0.2,0.3h-1
	c-0.1,0-0.2,0-0.3-0.1c-0.1,0-0.1-0.1-0.2-0.2l-1.3-2.8h-0.9c-0.1,0-0.1,0-0.1,0.1v2.6c0,0.1-0.1,0.3-0.2,0.3
	C158.5,70.4,158.5,70.4,158.4,70.4z M158.8,66h1.3c0.2,0,0.4,0,0.6-0.2c0.1-0.2,0.2-0.4,0.2-0.6v-1c0-0.2,0-0.4-0.2-0.6
	c-0.2-0.1-0.4-0.2-0.6-0.2h-1.3c-0.1,0-0.1,0-0.1,0.1c0,0,0,0,0,0v2.2C158.7,66,158.8,66,158.8,66L158.8,66z"/>
<path class="st1" d="M165,70.4h-1.2c-0.1,0-0.2-0.1-0.1-0.3l2-7.7c0-0.2,0.2-0.3,0.4-0.3h1.7c0.2,0,0.4,0.1,0.4,0.3l2,7.7
	c0.1,0.2,0,0.3-0.1,0.3h-1.2c-0.1,0-0.1,0-0.2-0.1c0-0.1-0.1-0.1-0.1-0.2l-0.4-1.4h-2.5l-0.4,1.4c0,0.1,0,0.1-0.1,0.2
	C165.1,70.4,165.1,70.4,165,70.4z M166.9,63.7l-0.9,3.7h1.9L166.9,63.7L166.9,63.7z"/>
<path class="st1" d="M175.8,70.4h-4.2c-0.1,0-0.3-0.1-0.3-0.2c0,0,0,0,0-0.1v-7.7c0-0.1,0.1-0.3,0.2-0.3c0,0,0,0,0.1,0h1.1
	c0.1,0,0.3,0.1,0.3,0.2c0,0,0,0,0,0.1v6.4c0,0.1,0.1,0.1,0.1,0.1h2.7c0.2,0,0.3,0.1,0.3,0.3v0.9C176,70.3,175.9,70.4,175.8,70.4z"/>
<g class="st2">
	<path d="M113,140.4h2.5c0.4,0,0.6,0.2,0.6,0.6v13.8c0,1.6-0.4,2.8-1.3,3.6c-0.9,0.9-2.1,1.3-3.6,1.3h-3c-1.6,0-2.8-0.4-3.7-1.3
		c-0.9-0.8-1.3-2-1.3-3.6V152c0-0.4,0.2-0.6,0.6-0.6h2.6c0.4,0,0.6,0.2,0.6,0.6v2.6c0,0.6,0.1,1.1,0.4,1.4c0.3,0.3,0.7,0.4,1.3,0.4
		h1.8c0.6,0,1.1-0.1,1.4-0.4c0.3-0.3,0.4-0.7,0.4-1.4V141C112.4,140.6,112.6,140.4,113,140.4z"/>
	<path d="M129.8,140.4h2.5c0.4,0,0.7,0.2,0.7,0.6v13.8c0,1.6-0.4,2.8-1.3,3.6c-0.9,0.9-2.1,1.3-3.6,1.3h-3.3c-1.6,0-2.8-0.4-3.7-1.3
		s-1.3-2-1.3-3.6V141c0-0.4,0.2-0.6,0.6-0.6h2.5c0.4,0,0.6,0.2,0.6,0.6v13.6c0,0.6,0.1,1.1,0.4,1.4c0.3,0.3,0.7,0.4,1.3,0.4h2.1
		c0.6,0,1.1-0.1,1.4-0.4c0.3-0.3,0.4-0.7,0.4-1.4V141C129.1,140.6,129.4,140.4,129.8,140.4z"/>
	<path d="M136.2,154.8v-0.6c0-0.4,0.2-0.6,0.6-0.6h2.5c0.4,0,0.6,0.2,0.6,0.6v0.2c0,0.8,0.2,1.3,0.5,1.6s0.9,0.4,1.6,0.4h1.4
		c0.8,0,1.3-0.2,1.6-0.5s0.5-0.9,0.5-1.7v-0.4c0-0.6-0.2-1-0.7-1.3c-0.5-0.3-1.1-0.5-1.8-0.6c-0.7-0.1-1.5-0.2-2.3-0.3
		c-0.8-0.2-1.6-0.4-2.3-0.7c-0.7-0.3-1.3-0.8-1.8-1.6c-0.5-0.8-0.7-1.8-0.7-3v-1c0-1.6,0.4-2.8,1.3-3.6c0.9-0.9,2.1-1.3,3.7-1.3h3
		c1.6,0,2.8,0.4,3.7,1.3c0.9,0.9,1.3,2.1,1.3,3.6v0.6c0,0.4-0.2,0.6-0.6,0.6H146c-0.4,0-0.6-0.2-0.6-0.6v-0.2c0-0.8-0.1-1.3-0.5-1.6
		c-0.3-0.3-0.9-0.4-1.6-0.4h-1.2c-0.8,0-1.4,0.2-1.7,0.5c-0.3,0.3-0.4,0.9-0.4,1.8v0.6c0,0.9,0.8,1.5,2.5,1.6c1.7,0.1,3.2,0.5,4.5,1
		c0.7,0.3,1.3,0.8,1.8,1.6c0.5,0.8,0.7,1.8,0.7,3v1c0,1.6-0.4,2.8-1.3,3.6c-0.9,0.9-2.1,1.3-3.7,1.3h-3.3c-1.6,0-2.8-0.4-3.7-1.3
		C136.7,157.5,136.2,156.3,136.2,154.8z"/>
	<path d="M158.8,159.7h-2.5c-0.4,0-0.7-0.2-0.7-0.6v-15c0-0.2-0.1-0.3-0.3-0.3h-3.4c-0.4,0-0.6-0.2-0.6-0.6v-2
		c0-0.4,0.2-0.6,0.6-0.6h11.3c0.4,0,0.6,0.2,0.6,0.6v2c0,0.4-0.2,0.6-0.6,0.6h-3.4c-0.2,0-0.4,0.1-0.4,0.3v15
		C159.5,159.5,159.3,159.7,158.8,159.7z"/>
	<path d="M185.6,140.4h4.4c0.4,0,0.6,0.2,0.6,0.6v18c0,0.4-0.2,0.6-0.6,0.6h-2.5c-0.4,0-0.6-0.2-0.6-0.6v-14.2h-0.1l-3.1,10
		c-0.1,0.4-0.4,0.6-0.8,0.6h-2.5c-0.4,0-0.6-0.2-0.8-0.6l-3.1-10.1h-0.1V159c0,0.2,0,0.4-0.1,0.5s-0.2,0.1-0.5,0.1h-2.5
		c-0.4,0-0.6-0.2-0.6-0.6v-18c0-0.4,0.2-0.6,0.6-0.6h4.5c0.3,0,0.5,0.1,0.6,0.4l3.2,10.6h0.2l3.2-10.6
		C185.1,140.5,185.3,140.4,185.6,140.4z"/>
	<path d="M205,159.7h-9.8c-0.4,0-0.6-0.2-0.6-0.6v-18c0-0.4,0.2-0.6,0.6-0.6h9.8c0.4,0,0.6,0.2,0.6,0.6v2c0,0.4-0.2,0.6-0.6,0.6
		h-6.3c-0.2,0-0.4,0.1-0.4,0.3v3.9c0,0.2,0.1,0.3,0.4,0.3h5.1c0.4,0,0.6,0.2,0.6,0.6v2c0,0.4-0.2,0.6-0.6,0.6h-5.1
		c-0.2,0-0.4,0.1-0.4,0.3v4.2c0,0.2,0.1,0.3,0.4,0.3h6.3c0.4,0,0.6,0.2,0.6,0.6v2C205.6,159.5,205.4,159.7,205,159.7z"/>
</g>
</svg>
