<?xml version="1.0" encoding="utf-8"?>
<!-- Generator: Adobe Illustrator 22.0.0, SVG Export Plug-In . SVG Version: 6.00 Build 0)  -->
<svg version="1.1" id="Layer_2_1_" xmlns="http://www.w3.org/2000/svg" xmlns:xlink="http://www.w3.org/1999/xlink" x="0px" y="0px"
	 viewBox="0 0 300 175" style="enable-background:new 0 0 300 175;" xml:space="preserve">
<style type="text/css">
	.st0{fill:#CB2026;}
	.st1{fill:#FFFFFF;}
</style>
<title>MePlusFriend</title>
<path class="st0" d="M96.6,13.8l-8.4-3.4C83,26,74.8,35.3,64.1,35.3s-19-9.3-24.2-24.9l-8.4,3.4c0,0,11.2,29-10.6,38.8v84.1H107
	V52.5C85.4,42.7,96.6,13.8,96.6,13.8z"/>
<path class="st1" d="M44.1,85.7v9.7l1-1c1.1-1.1,3.1-2.9,5.9-2.9h4c4.1,0,7.5,3.3,7.5,7.4c0,0,0,0,0,0.1v9.7c0,4.1-3.3,7.5-7.4,7.5
	c0,0,0,0-0.1,0H43.6c-4.1,0-7.5-3.3-7.5-7.4c0,0,0,0,0-0.1v-4h7.5v2.3c-0.1,1,0.6,2,1.6,2.1c0.1,0,0.3,0,0.4,0h7.2
	c1,0.1,2-0.6,2.1-1.6c0-0.2,0-0.3,0-0.5v-6.8c0.1-1-0.6-2-1.6-2.1c-0.1,0-0.3,0-0.4,0h-2.5c-1.8,0-3.6,0.5-5.2,1.4l-1,0.6l-7.5-2.2
	V78.6h24.8v7.1H44.1z M39.4,108.2c0,3.2,1.9,5.1,5.1,5.1h9.7c3.2,0,5.1-1.9,5.1-5.1v-8.7c0-3.2-1.9-5.1-5.1-5.1h-3.3
	c-2.8,0-4.8,1.5-6.7,3L41,96.5V82.7h17.3v-1H39.9V97l4.3,1.2c2-1.5,4-2.8,6.7-2.8h3.3c2-0.2,3.8,1.2,4.1,3.2c0,0.3,0,0.6,0,0.8v8.7
	c0,2.6-1.5,4.1-4.1,4.1h-9.7c-2.6,0-4.1-1.5-4.1-4.1v-0.4h-1V108.2z"/>
<path class="st1" d="M73.7,107.2c-0.1,1,0.6,2,1.6,2.1c0.1,0,0.3,0,0.4,0h7c1,0.1,2-0.6,2.1-1.6c0-0.1,0-0.3,0-0.4v-4.9
	c0-1.6-1-2.1-2.5-2.1h-7.2v-6.7h7.1c1.5,0,2.1-0.4,2.1-2.1v-4.1c0.1-1-0.6-2-1.6-2.1c-0.1,0-0.3,0-0.4,0h-6.1c-1-0.1-2,0.6-2.1,1.6
	c0,0.1,0,0.3,0,0.4v2.4h-7.5v-4c0-4.1,3.3-7.5,7.4-7.5c0,0,0,0,0.1,0h10.3c4.1,0,7.5,3.3,7.5,7.4c0,0,0,0,0,0.1v5.4
	c0.1,2.3-1.2,4.5-3.3,5.6c2.3,0.9,3.7,3.2,3.7,5.6v6.2c0,4.1-3.3,7.5-7.4,7.5c0,0,0,0-0.1,0H73.7c-4.1,0-7.5-3.3-7.5-7.4
	c0,0,0,0,0-0.1v-4h7.5V107.2z M88.7,91.8v-5.3c0-3.2-1.9-5.1-5.1-5.1H75c-3.2,0-5.1,1.9-5.1,5.1v0.4h1v-0.4c0-2.6,1.5-4.1,4.1-4.1
	h8.6c2.6,0,4.1,1.5,4.1,4.1v5.3c0,3.3-2.4,4.6-5.3,4.6h-3.9v1h3.9c3.5,0,5.7,1.8,5.7,4.8v5.9c0,2.6-1.5,4.1-4.1,4.1h-9.5
	c-2.6,0-4.1-1.5-4.1-4.1v-0.4h-1v0.4c0,3.2,1.9,5.1,5.1,5.1H84c3.2,0,5.1-1.9,5.1-5.1v-5.9c0.1-2.6-1.8-4.9-4.4-5.4
	C87.7,96,88.7,94.1,88.7,91.8L88.7,91.8z"/>
<path class="st1" d="M93.8,27.1c0.3-4.6,1.2-9.1,2.8-13.4l-8.4-3.3c-1.4,4.4-3.3,8.7-5.7,12.7L93.8,27.1z"/>
<path class="st1" d="M45.4,22.7c-2.3-3.9-4.1-8-5.5-12.3l-8.4,3.4c1.5,4.2,2.4,8.5,2.7,12.9L45.4,22.7z"/>
<path class="st1" d="M45.2,70.4h-1.4c-0.6,0-1.1-0.2-1.6-0.5c-0.4-0.4-0.6-1-0.5-1.6v-4.1c0-0.6,0.2-1.1,0.5-1.5
	c0.4-0.4,1-0.6,1.6-0.5h1.4c0.6,0,1.1,0.2,1.6,0.5c0.4,0.4,0.6,1,0.6,1.6v0.6c0,0.1-0.1,0.3-0.2,0.3c0,0,0,0-0.1,0H46
	c-0.2,0-0.3-0.1-0.3-0.3v-0.5c0.1-0.3-0.1-0.7-0.5-0.8c-0.1,0-0.2,0-0.3,0H44c-0.2,0-0.4,0-0.6,0.2c-0.1,0.2-0.2,0.4-0.2,0.6v3.9
	c0,0.2,0,0.4,0.2,0.6c0.2,0.1,0.4,0.2,0.6,0.2h0.9c0.3,0.1,0.7-0.1,0.8-0.5c0-0.1,0-0.2,0-0.3v-0.5c0-0.2,0.1-0.3,0.3-0.3h1
	c0.1,0,0.3,0.1,0.3,0.2c0,0,0,0,0,0.1v0.6c0,0.6-0.2,1.1-0.6,1.6C46.3,70.2,45.7,70.4,45.2,70.4z"/>
<path class="st1" d="M53.2,70.4H49c-0.1,0-0.3-0.1-0.3-0.2c0,0,0,0,0-0.1v-7.7c0-0.1,0.1-0.3,0.2-0.3c0,0,0,0,0.1,0h4.2
	c0.2,0,0.3,0.1,0.3,0.3v0.9c0,0.2-0.1,0.3-0.3,0.3h-2.7c-0.1,0-0.2,0-0.2,0.1v1.7c0,0.1,0,0.1,0.2,0.1h2.2c0.1,0,0.3,0.1,0.3,0.2
	c0,0,0,0,0,0.1v0.9c0,0.1-0.1,0.3-0.2,0.3c0,0,0,0-0.1,0h-2.2c-0.1,0-0.2,0-0.2,0.1v1.8c0,0.1,0,0.1,0.2,0.1h2.7
	c0.2,0,0.3,0.1,0.3,0.3v0.9C53.4,70.3,53.3,70.4,53.2,70.4z"/>
<path class="st1" d="M56.2,70.4h-1.1c-0.1,0-0.3-0.1-0.3-0.2c0,0,0,0,0-0.1v-7.7c0-0.1,0.1-0.3,0.2-0.3c0,0,0,0,0.1,0h1
	c0.1,0,0.3,0.1,0.4,0.2l2.5,4.9l0,0v-4.8c0-0.1,0.1-0.3,0.2-0.3c0,0,0,0,0.1,0h1.1c0.1,0,0.3,0.1,0.3,0.2c0,0,0,0,0,0.1v7.7
	c0,0.1-0.1,0.3-0.2,0.3c0,0,0,0-0.1,0h-0.9c-0.2,0-0.3-0.1-0.4-0.3l-2.6-4.8l0,0v4.8C56.5,70.3,56.4,70.4,56.2,70.4L56.2,70.4z"/>
<path class="st1" d="M64.9,70.4h-1.1c-0.2,0-0.3-0.1-0.3-0.3v-6.4c0-0.1,0-0.1-0.1-0.1l0,0H62c-0.1,0-0.3-0.1-0.3-0.2c0,0,0,0,0-0.1
	v-0.9c0-0.1,0.1-0.3,0.2-0.3c0,0,0,0,0.1,0h4.9c0.1,0,0.3,0.1,0.3,0.2c0,0,0,0,0,0.1v0.9c0,0.1-0.1,0.3-0.2,0.3c0,0,0,0-0.1,0h-1.5
	c-0.1,0-0.2,0-0.2,0.1v6.4C65.2,70.3,65.1,70.4,64.9,70.4C65,70.4,65,70.4,64.9,70.4z"/>
<path class="st1" d="M69.4,70.4h-1.1c-0.1,0-0.3-0.1-0.3-0.2c0,0,0,0,0-0.1v-7.7c0-0.1,0.1-0.3,0.2-0.3c0,0,0,0,0.1,0h3.1
	c0.6,0,1.1,0.2,1.6,0.5c0.4,0.4,0.6,1,0.6,1.6v1c0.1,0.8-0.4,1.6-1.1,1.9v0.1l1.4,2.9c0.1,0.2,0,0.3-0.2,0.3h-1
	c-0.1,0-0.2,0-0.3-0.1c-0.1,0-0.1-0.1-0.2-0.2l-1.3-2.8H70c-0.1,0-0.2,0-0.2,0.1V70c0,0.1-0.1,0.3-0.2,0.3
	C69.5,70.4,69.5,70.4,69.4,70.4z M69.8,66h1.3c0.2,0,0.4,0,0.6-0.2c0.1-0.2,0.2-0.4,0.2-0.6v-1c0-0.2,0-0.4-0.2-0.6
	c-0.2-0.1-0.4-0.2-0.6-0.2h-1.3c-0.1,0-0.1,0-0.1,0.1l0,0v2.2C69.7,65.9,69.7,66,69.8,66L69.8,66z"/>
<path class="st1" d="M76,70.4h-1.3c-0.2,0-0.2-0.1-0.2-0.3l2-7.7c0-0.2,0.2-0.3,0.4-0.3h1.7c0.2,0,0.4,0.1,0.4,0.3l2,7.7
	c0.1,0.2,0,0.3-0.2,0.3h-1.2c-0.1,0-0.1,0-0.2-0.1c0-0.1-0.1-0.1-0.1-0.2l-0.4-1.4h-2.5L76,70.1C76,70.2,76,70.2,76,70.4
	C76.1,70.4,76.1,70.4,76,70.4z M77.9,63.7l-1,3.7h1.9L77.9,63.7L77.9,63.7z"/>
<path class="st1" d="M86.8,70.4h-4.2c-0.1,0-0.3-0.1-0.3-0.2c0,0,0,0,0-0.1v-7.7c0-0.1,0.1-0.3,0.2-0.3c0,0,0,0,0.1,0h1.1
	c0.1,0,0.3,0.1,0.3,0.2c0,0,0,0,0,0.1v6.4c0,0.1,0.1,0.1,0.2,0.1h2.7c0.2,0,0.3,0.1,0.3,0.3v0.9C87,70.3,86.9,70.4,86.8,70.4z"/>
<path class="st0" d="M274.1,13.8l-8.4-3.4c-5.2,15.6-13.4,24.9-24.1,24.9s-18.9-9.3-24.1-24.9l-8.4,3.4c0,0,11.1,29-10.6,38.8v84.1
	h86.1V52.5C263,42.7,274.1,13.8,274.1,13.8z"/>
<path class="st1" d="M221.7,85.7v9.7l1-1c1.1-1.1,3.1-2.9,5.9-2.9h3.9c4.1,0,7.5,3.3,7.5,7.4c0,0,0,0,0,0.1v9.7
	c0,4.1-3.3,7.5-7.4,7.5c0,0,0,0-0.1,0h-11.3c-4.1,0-7.5-3.3-7.5-7.4c0,0,0,0,0-0.1v-4h7.5v2.3c-0.1,1,0.6,2,1.6,2.1
	c0.1,0,0.3,0,0.4,0h7.2c1,0.1,2-0.6,2.1-1.6c0-0.1,0-0.3,0-0.4v-6.8c0.1-1-0.6-2-1.6-2.1c-0.1,0-0.3,0-0.4,0h-2.6
	c-1.8,0-3.6,0.5-5.2,1.4l-1,0.6l-7.5-2.2V78.6H239v7.1H221.7z M216.9,108.2c0,3.2,1.9,5.1,5.1,5.1h9.7c3.2,0,5.1-1.9,5.1-5.1v-8.7
	c0-3.2-1.9-5.1-5.1-5.1h-3.3c-2.8,0-4.8,1.5-6.7,3l-3.2-0.9V82.7h17.3v-1h-18.4V97l4.3,1.2c2-1.5,4-2.8,6.7-2.8h3.3
	c2-0.2,3.8,1.2,4.1,3.2c0,0.3,0,0.6,0,0.8v8.7c0,2.6-1.5,4.1-4.1,4.1H222c-2.6,0-4.1-1.5-4.1-4.1v-0.4h-1V108.2z"/>
<path class="st1" d="M251.3,107.2c-0.1,1,0.6,2,1.6,2.1c0.1,0,0.3,0,0.4,0h7c1,0.1,2-0.6,2.1-1.6c0-0.1,0-0.3,0-0.4v-4.9
	c0-1.6-1-2.1-2.5-2.1h-7.1v-6.7h7.1c1.5,0,2.1-0.4,2.1-2.1v-4.1c0.1-1-0.6-2-1.6-2.1c-0.1,0-0.3,0-0.4,0h-6.1c-1-0.1-2,0.6-2.1,1.6
	c0,0.1,0,0.3,0,0.4v2.4h-7.5v-4c0-4.1,3.3-7.5,7.4-7.5c0,0,0,0,0.1,0H262c4.1,0,7.5,3.3,7.5,7.4c0,0,0,0,0,0.1v5.4
	c0.1,2.3-1.2,4.5-3.3,5.6c2.3,0.9,3.7,3.2,3.7,5.6v6.2c0,4.1-3.3,7.5-7.4,7.5c0,0,0,0-0.1,0h-11.1c-4.1,0-7.5-3.3-7.5-7.4
	c0,0,0,0,0-0.1v-4h7.5L251.3,107.2L251.3,107.2z M266.3,91.8v-5.3c0-3.2-1.9-5.1-5.1-5.1h-8.6c-3.2,0-5.1,1.9-5.1,5.1v0.4h1v-0.4
	c0-2.6,1.5-4.1,4.1-4.1h8.6c2.6,0,4.1,1.5,4.1,4.1v5.3c0,3.3-2.5,4.6-5.3,4.6h-4v1h3.9c3.5,0,5.7,1.8,5.7,4.8v5.9
	c0,2.6-1.5,4.1-4.1,4.1H252c-2.6,0-4.1-1.5-4.1-4.1v-0.4h-1v0.4c0,3.2,1.9,5.1,5.1,5.1h9.5c3.2,0,5.1-1.9,5.1-5.1v-5.9
	c0.1-2.6-1.8-4.9-4.4-5.4C265.2,96,266.2,94.1,266.3,91.8L266.3,91.8z"/>
<path class="st1" d="M271.3,27.1c0.3-4.6,1.2-9.1,2.8-13.4l-8.4-3.3c-1.4,4.4-3.3,8.7-5.8,12.7L271.3,27.1z"/>
<path class="st1" d="M223,22.7c-2.3-3.9-4.1-8-5.5-12.3l-8.4,3.4c1.5,4.2,2.4,8.5,2.7,12.9L223,22.7z"/>
<path class="st1" d="M222.7,70.4h-1.4c-0.6,0-1.1-0.2-1.6-0.5c-0.4-0.4-0.6-1-0.6-1.6v-4.1c0-0.6,0.2-1.1,0.6-1.5
	c0.4-0.4,1-0.6,1.6-0.5h1.4c0.6,0,1.1,0.2,1.6,0.5c0.4,0.4,0.6,1,0.6,1.6v0.6c0,0.1-0.1,0.3-0.2,0.3c0,0,0,0-0.1,0h-1.1
	c-0.2,0-0.3-0.1-0.3-0.3v-0.5c0.1-0.3-0.1-0.7-0.5-0.8c-0.1,0-0.2,0-0.3,0h-0.9c-0.2,0-0.4,0-0.6,0.2c-0.1,0.2-0.2,0.4-0.2,0.6v3.9
	c0,0.2,0,0.4,0.2,0.6c0.2,0.1,0.4,0.2,0.6,0.2h0.9c0.3,0.1,0.7-0.1,0.8-0.5c0-0.1,0-0.2,0-0.3v-0.5c0-0.2,0.1-0.3,0.3-0.3h1.1
	c0.1,0,0.3,0.1,0.3,0.2c0,0,0,0,0,0.1v0.6c0,0.6-0.2,1.1-0.6,1.6C223.9,70.2,223.3,70.4,222.7,70.4z"/>
<path class="st1" d="M230.7,70.4h-4.2c-0.1,0-0.3-0.1-0.3-0.2c0,0,0,0,0-0.1v-7.7c0-0.1,0.1-0.3,0.2-0.3c0,0,0,0,0.1,0h4.2
	c0.2,0,0.3,0.1,0.3,0.3v0.9c0,0.2-0.1,0.3-0.3,0.3H228c-0.1,0-0.1,0-0.1,0.1v1.7c0,0.1,0.1,0.1,0.1,0.1h2.2c0.1,0,0.3,0.1,0.3,0.2
	c0,0,0,0,0,0.1v0.9c0,0.1-0.1,0.3-0.2,0.3c0,0,0,0-0.1,0H228c-0.1,0-0.1,0-0.1,0.1v1.8c0,0.1,0.1,0.1,0.1,0.1h2.7
	c0.2,0,0.3,0.1,0.3,0.3v0.9C231,70.3,230.9,70.4,230.7,70.4z"/>
<path class="st1" d="M233.8,70.4h-1.1c-0.1,0-0.3-0.1-0.3-0.2c0,0,0,0,0-0.1v-7.7c0-0.1,0.1-0.3,0.2-0.3c0,0,0,0,0.1,0h1
	c0.1,0,0.3,0.1,0.4,0.2l2.6,4.9h0.1v-4.8c0-0.1,0.1-0.3,0.2-0.3c0,0,0,0,0.1,0h1c0.1,0,0.3,0.1,0.3,0.2c0,0,0,0,0,0.1v7.7
	c0,0.1-0.1,0.3-0.2,0.3c0,0,0,0-0.1,0h-0.9c-0.2,0-0.3-0.1-0.4-0.3l-2.6-4.8H234v4.8C234,70.3,233.9,70.4,233.8,70.4L233.8,70.4z"/>
<path class="st1" d="M242.5,70.4h-1.1c-0.2,0-0.3-0.1-0.3-0.3v-6.4c0-0.1,0-0.1-0.1-0.1l0,0h-1.5c-0.1,0-0.3-0.1-0.3-0.2
	c0,0,0,0,0-0.1v-0.9c0-0.1,0.1-0.3,0.2-0.3c0,0,0,0,0.1,0h4.9c0.1,0,0.3,0.1,0.3,0.2c0,0,0,0,0,0.1v0.9c0,0.1-0.1,0.3-0.2,0.3
	c0,0,0,0-0.1,0h-1.5c-0.1,0-0.1,0-0.1,0.1v6.4C242.8,70.3,242.7,70.4,242.5,70.4L242.5,70.4z"/>
<path class="st1" d="M247,70.4h-1.1c-0.1,0-0.3-0.1-0.3-0.2c0,0,0,0,0-0.1v-7.7c0-0.1,0.1-0.3,0.2-0.3c0,0,0,0,0.1,0h3.1
	c0.6,0,1.1,0.2,1.6,0.5c0.4,0.4,0.6,1,0.6,1.6v1c0.1,0.8-0.4,1.6-1.1,1.9v0.1l1.4,2.9c0.1,0.2,0,0.3-0.2,0.3h-1
	c-0.1,0-0.2,0-0.3-0.1c-0.1,0-0.1-0.1-0.2-0.2l-1.3-2.8h-0.9c-0.1,0-0.1,0-0.1,0.1V70c0,0.1-0.1,0.3-0.2,0.3
	C247.1,70.4,247,70.4,247,70.4z M247.4,66h1.3c0.2,0,0.4,0,0.6-0.2c0.1-0.2,0.2-0.4,0.2-0.6v-1c0-0.2,0-0.4-0.2-0.6
	c-0.2-0.1-0.4-0.2-0.6-0.2h-1.3c-0.1,0-0.1,0-0.1,0.1l0,0v2.2C247.3,65.9,247.3,66,247.4,66L247.4,66z"/>
<path class="st1" d="M253.5,70.4h-1.2c-0.1,0-0.2-0.1-0.1-0.3l2-7.7c0-0.2,0.2-0.3,0.4-0.3h1.7c0.2,0,0.4,0.1,0.4,0.3l2,7.7
	c0,0.2,0,0.3-0.1,0.3h-1.2c-0.1,0-0.1,0-0.2-0.1c0-0.1-0.1-0.1-0.1-0.2l-0.4-1.4h-2.5l-0.4,1.4c0,0.1,0,0.1-0.1,0.2
	C253.6,70.4,253.6,70.4,253.5,70.4z M255.4,63.7l-0.9,3.7h1.9L255.4,63.7L255.4,63.7z"/>
<path class="st1" d="M264.3,70.4h-4.2c-0.1,0-0.3-0.1-0.3-0.2c0,0,0,0,0-0.1v-7.7c0-0.1,0.1-0.3,0.2-0.3c0,0,0,0,0.1,0h1.1
	c0.1,0,0.3,0.1,0.3,0.2c0,0,0,0,0,0.1v6.4c0,0.1,0,0.1,0.1,0.1h2.7c0.2,0,0.3,0.1,0.3,0.3v0.9C264.6,70.3,264.5,70.4,264.3,70.4z"/>
<g>
	<path d="M59.1,140.1h4.5c0.4,0,0.6,0.2,0.6,0.6V159c0,0.4-0.2,0.6-0.6,0.6h-2.5c-0.4,0-0.6-0.2-0.6-0.6v-14.4h-0.1l-3.1,10.2
		c-0.1,0.4-0.4,0.6-0.8,0.6H54c-0.4,0-0.6-0.2-0.8-0.6L50,144.6h-0.1V159c0,0.2,0,0.4-0.1,0.5s-0.3,0.1-0.5,0.1h-2.5
		c-0.4,0-0.6-0.2-0.6-0.6v-18.2c0-0.4,0.2-0.6,0.6-0.6h4.5c0.3,0,0.5,0.1,0.6,0.4l3.2,10.7h0.2l3.2-10.7
		C58.6,140.2,58.8,140.1,59.1,140.1z"/>
	<path d="M78.8,159.6h-9.9c-0.4,0-0.6-0.2-0.6-0.6v-18.2c0-0.4,0.2-0.6,0.6-0.6h9.9c0.4,0,0.6,0.2,0.6,0.6v2.1
		c0,0.4-0.2,0.6-0.6,0.6h-6.3c-0.2,0-0.4,0.1-0.4,0.3v3.9c0,0.2,0.1,0.3,0.4,0.3h5.2c0.4,0,0.6,0.2,0.6,0.6v2.1
		c0,0.4-0.2,0.6-0.6,0.6h-5.2c-0.2,0-0.4,0.1-0.4,0.3v4.2c0,0.2,0.1,0.3,0.4,0.3h6.3c0.4,0,0.6,0.2,0.6,0.6v2.1
		C79.4,159.4,79.2,159.6,78.8,159.6z"/>
</g>
<g>
	<path d="M205.2,159.5h-2.6c-0.4,0-0.6-0.2-0.6-0.6v-18.2c0-0.4,0.2-0.6,0.6-0.6h9.6c0.4,0,0.6,0.2,0.6,0.6v2.1
		c0,0.4-0.2,0.6-0.6,0.6h-6.1c-0.2,0-0.4,0.1-0.4,0.3v4.7c0,0.2,0.1,0.4,0.4,0.4h5.2c0.4,0,0.6,0.2,0.6,0.6v2c0,0.4-0.2,0.7-0.6,0.7
		h-5.2c-0.2,0-0.4,0.1-0.4,0.3v6.4C205.8,159.3,205.6,159.5,205.2,159.5z"/>
	<path d="M218.8,159.5h-2.6c-0.4,0-0.6-0.2-0.6-0.6v-18.2c0-0.4,0.2-0.6,0.6-0.6h7.2c1.6,0,2.8,0.4,3.7,1.3c0.9,0.9,1.3,2.1,1.3,3.7
		v2.4c0,2.3-0.9,3.8-2.7,4.5v0.1l3.2,6.7c0.2,0.5,0,0.7-0.5,0.7H226c-0.4,0-0.6,0-0.8-0.1s-0.3-0.3-0.4-0.5l-3-6.5h-2
		c-0.2,0-0.4,0.1-0.4,0.3v6.2C219.4,159.3,219.2,159.5,218.8,159.5z M219.7,149.3h3c0.6,0,1.1-0.1,1.4-0.4c0.3-0.3,0.5-0.7,0.5-1.3
		v-2.4c0-0.6-0.2-1.1-0.5-1.4c-0.3-0.3-0.8-0.4-1.4-0.4h-3c-0.2,0-0.3,0.1-0.3,0.3v5.2C219.4,149.1,219.5,149.3,219.7,149.3z"/>
	<path d="M236.1,140.7v18.2c0,0.4-0.2,0.6-0.6,0.6h-2.6c-0.4,0-0.6-0.2-0.6-0.6v-18.2c0-0.4,0.2-0.6,0.6-0.6h2.6
		C235.9,140.1,236.1,140.3,236.1,140.7z"/>
	<path d="M250.7,159.5h-9.9c-0.4,0-0.6-0.2-0.6-0.6v-18.2c0-0.4,0.2-0.6,0.6-0.6h9.9c0.4,0,0.6,0.2,0.6,0.6v2.1
		c0,0.4-0.2,0.6-0.6,0.6h-6.3c-0.2,0-0.4,0.1-0.4,0.3v3.9c0,0.2,0.1,0.3,0.4,0.3h5.2c0.4,0,0.6,0.2,0.6,0.6v2.1
		c0,0.4-0.2,0.6-0.6,0.6h-5.2c-0.2,0-0.4,0.1-0.4,0.3v4.2c0,0.2,0.1,0.3,0.4,0.3h6.3c0.4,0,0.6,0.2,0.6,0.6v2.1
		C251.3,159.3,251.1,159.5,250.7,159.5z"/>
	<path d="M257.8,159.5h-2.5c-0.4,0-0.6-0.2-0.6-0.6v-18.2c0-0.4,0.2-0.6,0.6-0.6h2.3c0.4,0,0.7,0.1,0.8,0.4l6.1,11.5h0.1v-11.2
		c0-0.4,0.2-0.6,0.6-0.6h2.5c0.4,0,0.6,0.2,0.6,0.6V159c0,0.4-0.2,0.6-0.6,0.6h-2.2c-0.4,0-0.8-0.2-1-0.6l-6-11.2h-0.1V159
		C258.4,159.3,258.2,159.5,257.8,159.5z"/>
	<path d="M272.3,158.9v-18.2c0-0.4,0.2-0.6,0.6-0.6h7.5c1.6,0,2.8,0.4,3.7,1.3c0.9,0.9,1.3,2.1,1.3,3.6v9.6c0,1.6-0.4,2.8-1.3,3.6
		c-0.9,0.9-2.1,1.3-3.7,1.3h-7.5C272.5,159.5,272.3,159.3,272.3,158.9z M276.5,156.2h3.3c0.6,0,1.1-0.1,1.4-0.4
		c0.3-0.3,0.4-0.7,0.4-1.4v-9.2c0-0.6-0.1-1.1-0.4-1.4c-0.3-0.3-0.7-0.4-1.4-0.4h-3.3c-0.2,0-0.3,0.1-0.3,0.3v12.1
		C276.2,156.1,276.3,156.2,276.5,156.2z"/>
</g>
<g>
	<path d="M151.1,82.4h6.8c0.4,0,0.7,0.1,0.9,0.3c0.2,0.2,0.3,0.5,0.3,0.9v2.8c0,0.8-0.4,1.1-1.2,1.1h-6.8v6.9c0,0.8-0.4,1.2-1.2,1.2
		H147c-0.8,0-1.2-0.4-1.2-1.2v-6.9H139c-0.8,0-1.2-0.4-1.2-1.1v-2.8c0-0.4,0.1-0.7,0.3-0.9c0.2-0.2,0.5-0.3,0.9-0.3h6.8v-6.9
		c0-0.8,0.4-1.2,1.2-1.2h2.9c0.8,0,1.2,0.4,1.2,1.2L151.1,82.4L151.1,82.4z"/>
</g>
</svg>
