<svg id="Layer_2" data-name="Layer 2" xmlns="http://www.w3.org/2000/svg" viewBox="0 0 300 175"><defs><style>.cls-1{fill:#cb2026;}.cls-2{fill:#fff;}.cls-3{font-size:70.05px;}.cls-3,.cls-4{font-family:Rajdhani-Bold, Rajdhani;font-weight:700;}.cls-4{font-size:30px;}</style></defs><title>MePlusFriend</title><path class="cls-1" d="M96.55,13.77,88.2,10.42C83,26,74.75,35.35,64.07,35.35S45.13,26,39.94,10.42l-8.35,3.35S42.74,42.73,21,52.55v84.14h86.13V52.55C85.4,42.73,96.55,13.77,96.55,13.77Z"/><path class="cls-2" d="M44.13,85.71v9.73l1-1c1.14-1.09,3.12-2.86,5.93-2.86H55a7.46,7.46,0,0,1,7.49,7.49v9.73A7.46,7.46,0,0,1,55,116.3H43.61a7.46,7.46,0,0,1-7.49-7.49v-4h7.49v2.34a1.87,1.87,0,0,0,2.08,2.08h7.23A1.87,1.87,0,0,0,55,107.14v-6.81a1.87,1.87,0,0,0-2.08-2.08H50.37a10.18,10.18,0,0,0-5.2,1.4l-1,.62-7.49-2.18V78.64H61.45v7.07H44.13Zm-4.78,22.47c0,3.23,1.87,5.1,5.1,5.1h9.73c3.22,0,5.1-1.87,5.1-5.1V99.5c0-3.22-1.87-5.1-5.1-5.1H50.84c-2.81,0-4.84,1.46-6.71,3l-3.22-.94V82.7H58.22v-1H39.86V97l4.26,1.25c2-1.51,4-2.81,6.71-2.81h3.33a3.67,3.67,0,0,1,4.06,4.06v8.69c0,2.6-1.46,4.06-4.06,4.06H44.44c-2.6,0-4.06-1.46-4.06-4.06v-.36h-1Z"/><path class="cls-2" d="M73.72,107.25a1.87,1.87,0,0,0,2.08,2.08h7a1.87,1.87,0,0,0,2.08-2.08v-4.89c0-1.56-1-2.08-2.5-2.08H75.23V93.62h7.13c1.46,0,2.08-.42,2.08-2.08V87.48a1.87,1.87,0,0,0-2.08-2.08H76.22a1.87,1.87,0,0,0-2.08,2.08v2.39H66.65v-4a7.46,7.46,0,0,1,7.49-7.49h10.3a7.46,7.46,0,0,1,7.49,7.49v5.41a6.12,6.12,0,0,1-3.28,5.62,6,6,0,0,1,3.69,5.62v6.24a7.46,7.46,0,0,1-7.49,7.49H73.72a7.46,7.46,0,0,1-7.49-7.49v-4h7.49Zm15-15.45V86.49c0-3.22-1.87-5.1-5.1-5.1H75c-3.22,0-5.1,1.87-5.1,5.1v.36h1v-.36c0-2.6,1.46-4.06,4.06-4.06H83.6c2.6,0,4.06,1.46,4.06,4.06V91.8c0,3.28-2.45,4.63-5.31,4.63h-3.9v1h3.9c3.54,0,5.72,1.82,5.72,4.84v5.93c0,2.6-1.46,4.06-4.06,4.06H74.55c-2.6,0-4.06-1.46-4.06-4.06v-.36h-1v.36c0,3.22,1.87,5.1,5.1,5.1H84c3.22,0,5.1-1.87,5.1-5.1V102.3a5.22,5.22,0,0,0-4.37-5.36C87.66,96,88.7,94.14,88.7,91.8Z"/><path class="cls-2" d="M93.79,27.15a50.76,50.76,0,0,1,2.76-13.38L88.2,10.42a60.29,60.29,0,0,1-5.74,12.69Z"/><path class="cls-2" d="M45.43,22.68a60.8,60.8,0,0,1-5.49-12.27l-8.35,3.35a50.7,50.7,0,0,1,2.73,12.88Z"/><path class="cls-2" d="M82.66,43.23c0,1.43,1.67,2.59,3.61,2.59a3.58,3.58,0,0,0,3.34-1.89H92c-.49,2-2.79,3.63-5.69,3.63a6,6,0,0,1-5.53-2.86,2.65,2.65,0,0,0-2.45-1.48,2.65,2.65,0,0,0,2.45-1.48,6.11,6.11,0,0,1,5.53-2.86c2.89,0,5.19,1.6,5.69,3.63H89.62a3.58,3.58,0,0,0-3.34-1.89C84.33,40.63,82.66,41.79,82.66,43.23Z"/><path class="cls-2" d="M45.18,70.39h-1.4a2.15,2.15,0,0,1-1.57-.54,2.07,2.07,0,0,1-.55-1.55V64.22a2.08,2.08,0,0,1,.55-1.55,2.16,2.16,0,0,1,1.57-.54h1.4a2.14,2.14,0,0,1,1.56.55,2.07,2.07,0,0,1,.56,1.55v.6a.25.25,0,0,1-.28.28H45.94q-.27,0-.27-.28V64.3a.64.64,0,0,0-.76-.76H44a.79.79,0,0,0-.57.17.81.81,0,0,0-.17.59v3.92a.81.81,0,0,0,.17.59A.79.79,0,0,0,44,69h.87a.64.64,0,0,0,.76-.76v-.53c0-.19.09-.28.27-.28H47a.25.25,0,0,1,.28.28v.6a2.07,2.07,0,0,1-.56,1.55A2.14,2.14,0,0,1,45.18,70.39Z"/><path class="cls-2" d="M53.18,70.39H49a.24.24,0,0,1-.27-.27V62.4a.24.24,0,0,1,.27-.27h4.2c.17,0,.26.09.26.27v.87c0,.18-.09.27-.26.27H50.49c-.1,0-.15,0-.15.14v1.67c0,.09.05.14.15.14h2.2a.24.24,0,0,1,.27.27v.87a.24.24,0,0,1-.27.27h-2.2c-.1,0-.15,0-.15.14v1.79c0,.09.05.14.15.14h2.69c.17,0,.26.09.26.27v.87C53.43,70.3,53.35,70.39,53.18,70.39Z"/><path class="cls-2" d="M56.2,70.39H55.13a.24.24,0,0,1-.27-.27V62.4a.24.24,0,0,1,.27-.27h1a.36.36,0,0,1,.36.18L59,67.18h.05V62.4a.24.24,0,0,1,.27-.27h1.07a.24.24,0,0,1,.27.27v7.72a.24.24,0,0,1-.27.27H59.5a.43.43,0,0,1-.41-.26l-2.57-4.78h-.05v4.77A.24.24,0,0,1,56.2,70.39Z"/><path class="cls-2" d="M64.93,70.39H63.86c-.19,0-.28-.09-.28-.27V63.68a.12.12,0,0,0-.14-.14H62a.24.24,0,0,1-.27-.27V62.4a.24.24,0,0,1,.27-.27h4.86a.24.24,0,0,1,.27.27v.87a.24.24,0,0,1-.27.27H65.36q-.15,0-.15.14v6.44A.24.24,0,0,1,64.93,70.39Z"/><path class="cls-2" d="M69.43,70.39H68.34a.24.24,0,0,1-.27-.27V62.4a.24.24,0,0,1,.27-.27H71.4a2.15,2.15,0,0,1,1.57.55,2.08,2.08,0,0,1,.56,1.56v1a1.88,1.88,0,0,1-1.14,1.93v.05l1.37,2.87q.12.31-.22.31h-1a.81.81,0,0,1-.33-.05.38.38,0,0,1-.17-.22l-1.29-2.78h-.86c-.1,0-.15,0-.15.14v2.64A.24.24,0,0,1,69.43,70.39ZM69.84,66H71.1a.89.89,0,0,0,.61-.17.72.72,0,0,0,.19-.56v-1a.76.76,0,0,0-.19-.58.86.86,0,0,0-.61-.18H69.84a.13.13,0,0,0-.14.14v2.21A.13.13,0,0,0,69.84,66Z"/><path class="cls-2" d="M76,70.39H74.73c-.15,0-.21-.09-.15-.27l2-7.72a.37.37,0,0,1,.39-.27H78.7a.35.35,0,0,1,.39.27l2,7.72c.05.18,0,.27-.15.27H79.73a.25.25,0,0,1-.19-.06.45.45,0,0,1-.08-.21l-.36-1.41H76.59l-.36,1.41a.38.38,0,0,1-.08.21A.26.26,0,0,1,76,70.39Zm1.86-6.71L76.9,67.4h1.9l-.93-3.71Z"/><path class="cls-2" d="M86.76,70.39H82.53a.24.24,0,0,1-.27-.27V62.4a.24.24,0,0,1,.27-.27h1.09a.24.24,0,0,1,.27.27v6.43c0,.09.05.14.15.14h2.71c.17,0,.26.09.26.28v.87C87,70.3,86.93,70.39,86.76,70.39Z"/><text class="cls-3" transform="translate(133 111.47)">+</text><path class="cls-1" d="M274.1,13.77l-8.35-3.35C260.57,26,252.3,35.35,241.62,35.35S222.68,26,217.49,10.42l-8.35,3.35s11.14,29-10.58,38.78v84.14h86.13V52.55C263,42.73,274.1,13.77,274.1,13.77Z"/><path class="cls-2" d="M221.68,85.71v9.73l1-1c1.14-1.09,3.12-2.86,5.93-2.86h3.9A7.46,7.46,0,0,1,240,99.08v9.73a7.46,7.46,0,0,1-7.49,7.49H221.16a7.46,7.46,0,0,1-7.49-7.49v-4h7.49v2.34a1.87,1.87,0,0,0,2.08,2.08h7.23a1.87,1.87,0,0,0,2.08-2.08v-6.81a1.87,1.87,0,0,0-2.08-2.08h-2.55a10.18,10.18,0,0,0-5.2,1.4l-1,.62-7.49-2.18V78.64H239v7.07H221.68Zm-4.78,22.47c0,3.23,1.87,5.1,5.1,5.1h9.73c3.22,0,5.1-1.87,5.1-5.1V99.5c0-3.22-1.87-5.1-5.1-5.1h-3.33c-2.81,0-4.84,1.46-6.71,3l-3.22-.94V82.7h17.32v-1H217.41V97l4.26,1.25c2-1.51,4-2.81,6.71-2.81h3.33a3.67,3.67,0,0,1,4.06,4.06v8.69c0,2.6-1.46,4.06-4.06,4.06H222c-2.6,0-4.06-1.46-4.06-4.06v-.36h-1Z"/><path class="cls-2" d="M251.27,107.25a1.87,1.87,0,0,0,2.08,2.08h7a1.87,1.87,0,0,0,2.08-2.08v-4.89c0-1.56-1-2.08-2.5-2.08h-7.13V93.62h7.13c1.46,0,2.08-.42,2.08-2.08V87.48a1.87,1.87,0,0,0-2.08-2.08h-6.14a1.87,1.87,0,0,0-2.08,2.08v2.39H244.2v-4a7.46,7.46,0,0,1,7.49-7.49H262a7.46,7.46,0,0,1,7.49,7.49v5.41a6.12,6.12,0,0,1-3.28,5.62,6,6,0,0,1,3.69,5.62v6.24a7.46,7.46,0,0,1-7.49,7.49H251.27a7.46,7.46,0,0,1-7.49-7.49v-4h7.49Zm15-15.45V86.49c0-3.22-1.87-5.1-5.1-5.1h-8.63c-3.22,0-5.1,1.87-5.1,5.1v.36h1v-.36c0-2.6,1.46-4.06,4.06-4.06h8.63c2.6,0,4.06,1.46,4.06,4.06V91.8c0,3.28-2.45,4.63-5.31,4.63H256v1h3.9c3.54,0,5.72,1.82,5.72,4.84v5.93c0,2.6-1.46,4.06-4.06,4.06H252.1c-2.6,0-4.06-1.46-4.06-4.06v-.36h-1v.36c0,3.22,1.87,5.1,5.1,5.1h9.47c3.22,0,5.1-1.87,5.1-5.1V102.3a5.22,5.22,0,0,0-4.37-5.36C265.21,96,266.25,94.14,266.25,91.8Z"/><path class="cls-2" d="M271.34,27.15a50.76,50.76,0,0,1,2.76-13.38l-8.35-3.35A60.29,60.29,0,0,1,260,23.11Z"/><path class="cls-2" d="M223,22.68a60.8,60.8,0,0,1-5.49-12.27l-8.35,3.35a50.7,50.7,0,0,1,2.73,12.88Z"/><path class="cls-2" d="M256.21,43.23c0,1.43,1.67,2.59,3.61,2.59a3.58,3.58,0,0,0,3.34-1.89h2.34c-.49,2-2.79,3.63-5.69,3.63a6,6,0,0,1-5.53-2.86,2.65,2.65,0,0,0-2.45-1.48,2.65,2.65,0,0,0,2.45-1.48,6.11,6.11,0,0,1,5.53-2.86c2.89,0,5.19,1.6,5.69,3.63h-2.34a3.58,3.58,0,0,0-3.34-1.89C257.88,40.63,256.21,41.79,256.21,43.23Z"/><path class="cls-2" d="M222.73,70.39h-1.4a2.15,2.15,0,0,1-1.57-.54,2.07,2.07,0,0,1-.55-1.55V64.22a2.08,2.08,0,0,1,.55-1.55,2.16,2.16,0,0,1,1.57-.54h1.4a2.14,2.14,0,0,1,1.56.55,2.07,2.07,0,0,1,.56,1.55v.6a.25.25,0,0,1-.28.28h-1.08q-.27,0-.27-.28V64.3a.64.64,0,0,0-.76-.76h-.87a.79.79,0,0,0-.57.17.81.81,0,0,0-.17.59v3.92a.81.81,0,0,0,.17.59.79.79,0,0,0,.57.17h.87a.64.64,0,0,0,.76-.76v-.53c0-.19.09-.28.27-.28h1.08a.25.25,0,0,1,.28.28v.6a2.07,2.07,0,0,1-.56,1.55A2.14,2.14,0,0,1,222.73,70.39Z"/><path class="cls-2" d="M230.73,70.39h-4.2a.24.24,0,0,1-.27-.27V62.4a.24.24,0,0,1,.27-.27h4.2c.17,0,.26.09.26.27v.87c0,.18-.09.27-.26.27H228c-.1,0-.15,0-.15.14v1.67c0,.09.05.14.15.14h2.2a.24.24,0,0,1,.27.27v.87a.24.24,0,0,1-.27.27H228c-.1,0-.15,0-.15.14v1.79c0,.09.05.14.15.14h2.69c.17,0,.26.09.26.27v.87C231,70.3,230.9,70.39,230.73,70.39Z"/><path class="cls-2" d="M233.75,70.39h-1.07a.24.24,0,0,1-.27-.27V62.4a.24.24,0,0,1,.27-.27h1a.36.36,0,0,1,.36.18l2.6,4.87h.05V62.4a.24.24,0,0,1,.27-.27H238a.24.24,0,0,1,.27.27v7.72a.24.24,0,0,1-.27.27h-.94a.43.43,0,0,1-.41-.26l-2.57-4.78H234v4.77A.24.24,0,0,1,233.75,70.39Z"/><path class="cls-2" d="M242.49,70.39h-1.08c-.19,0-.28-.09-.28-.27V63.68a.12.12,0,0,0-.14-.14h-1.47a.24.24,0,0,1-.27-.27V62.4a.24.24,0,0,1,.27-.27h4.86a.24.24,0,0,1,.27.27v.87a.24.24,0,0,1-.27.27h-1.46q-.15,0-.15.14v6.44A.24.24,0,0,1,242.49,70.39Z"/><path class="cls-2" d="M247,70.39h-1.09a.24.24,0,0,1-.27-.27V62.4a.24.24,0,0,1,.27-.27H249a2.15,2.15,0,0,1,1.57.55,2.08,2.08,0,0,1,.56,1.56v1a1.88,1.88,0,0,1-1.14,1.93v.05l1.37,2.87q.12.31-.22.31h-1a.81.81,0,0,1-.33-.05.38.38,0,0,1-.17-.22l-1.29-2.78h-.86c-.1,0-.15,0-.15.14v2.64A.24.24,0,0,1,247,70.39ZM247.4,66h1.26a.89.89,0,0,0,.61-.17.72.72,0,0,0,.19-.56v-1a.76.76,0,0,0-.19-.58.86.86,0,0,0-.61-.18H247.4a.13.13,0,0,0-.14.14v2.21A.13.13,0,0,0,247.4,66Z"/><path class="cls-2" d="M253.51,70.39h-1.23c-.15,0-.21-.09-.15-.27l2-7.72a.37.37,0,0,1,.39-.27h1.71a.35.35,0,0,1,.39.27l2,7.72c.05.18,0,.27-.15.27h-1.23a.25.25,0,0,1-.19-.06.45.45,0,0,1-.08-.21l-.36-1.41h-2.51l-.36,1.41a.38.38,0,0,1-.08.21A.26.26,0,0,1,253.51,70.39Zm1.86-6.71-.93,3.71h1.9l-.93-3.71Z"/><path class="cls-2" d="M264.31,70.39h-4.23a.24.24,0,0,1-.27-.27V62.4a.24.24,0,0,1,.27-.27h1.09a.24.24,0,0,1,.27.27v6.43c0,.09.05.14.15.14h2.71c.17,0,.26.09.26.28v.87C264.56,70.3,264.48,70.39,264.31,70.39Z"/><text class="cls-4" transform="translate(44.48 159.6)">ME</text><text class="cls-4" transform="translate(199.9 159.6)">FRIEND</text></svg>